<?xml version="1.0" encoding="UTF-8"?>
<!--
  - Copyright (c) 2023 OceanBase
  - OCP Express is licensed under Mulan PSL v2.
  - You can use this software according to the terms and conditions of the Mulan PSL v2.
  - You may obtain a copy of Mulan PSL v2 at:
  -          http://license.coscl.org.cn/MulanPSL2
  - THIS SOFTWARE IS PROVIDED ON AN "AS IS" BASIS, WITHOUT WARRANTIES OF ANY KIND,
  - EITHER EXPRESS OR IMPLIED, INCLUDING BUT NOT LIMITED TO NON-INFRINGEMENT,
  - MERCHANTABILITY OR FIT FOR A PARTICULAR PURPOSE.
  - See the Mulan PSL v2 for more details.
  -->

<svg width="104px" height="86px" viewBox="0 0 104 86" version="1.1" xmlns="http://www.w3.org/2000/svg" xmlns:xlink="http://www.w3.org/1999/xlink">
    <defs>
        <polygon id="path-1" points="0 8.72865055e-06 69.9638295 8.72865055e-06 69.9638295 69.8292044 0 69.8292044"></polygon>
        <polygon id="path-3" points="57.9619704 8.08031893 86.015231 8.08031893 86.015231 36.0634464 57.9619704 36.0634464"></polygon>
        <polygon id="path-5" points="0.1171875 1.54197524 5.12187502 1.54197524 5.12187502 11.8270596 0.1171875 11.8270596"></polygon>
        <polygon id="path-7" points="15.2206986 1.54197524 20.225263 1.54197524 20.225263 11.8270596 15.2206986 11.8270596"></polygon>
        <polygon id="path-9" points="90.8818212 74.6834752 94.6485562 74.6834752 94.6485562 78.5100766 90.8818212 78.5100766"></polygon>
        <polygon id="path-11" points="68.8723395 80.9383691 72.9825557 80.9383691 72.9825557 85.0671308 68.8723395 85.0671308"></polygon>
    </defs>
    <g id="锁分析与巡检报告" stroke="none" stroke-width="1" fill="none" fill-rule="evenodd">
        <g id="1.3-锁分析_诊断无死锁" transform="translate(-774.000000, -435.000000)">
            <g id="编组" transform="translate(619.000000, 420.000000)">
                <g transform="translate(145.000000, 0.000000)" id="1.组合示例/3.功能区块示例/1.扫描无数据">
                    <g id="编组-2" transform="translate(10.093472, 15.843950)">
                        <g id="分组" transform="translate(10.327847, 11.029738)">
                            <mask id="mask-2" fill="white">
                                <use xlink:href="#path-1"></use>
                            </mask>
                            <g id="Clip-2"></g>
                            <path d="M69.9638295,34.9146109 C69.9638295,54.197422 54.3019015,69.8292131 34.9819147,69.8292131 C15.661928,69.8292131 0,54.197422 0,34.9146109 C0,15.6317999 15.661928,8.72865055e-06 34.9819147,8.72865055e-06 C54.3019015,8.72865055e-06 69.9638295,15.6317999 69.9638295,34.9146109" id="Fill-1" fill="#E4EBF7" mask="url(#mask-2)"></path>
                        </g>
                        <path d="M69.6654909,45.9011333 C69.6654909,59.3991185 58.7021588,70.3413548 45.1781505,70.3413548 C31.6541423,70.3413548 20.6908102,59.3991185 20.6908102,45.9011333 C20.6908102,32.4031481 31.6541423,21.4609117 45.1781505,21.4609117 C58.7021588,21.4609117 69.6654909,32.4031481 69.6654909,45.9011333" id="Fill-3" fill="#A3B5D6"></path>
                        <path d="M58.4279793,45.9443488 C58.4279793,53.1754248 52.5547782,59.0373246 45.3097613,59.0373246 C38.0647443,59.0373246 32.1915432,53.1754248 32.1915432,45.9443488 C32.1915432,38.7132728 38.0647443,32.851373 45.3097613,32.851373 C52.5547782,32.851373 58.4279793,38.7132728 58.4279793,45.9443488" id="Fill-5" fill="#253368"></path>
                        <line x1="45.3097613" y1="45.9443488" x2="71.3448764" y2="23.6305138" id="Stroke-7" stroke="#E4EBF7" stroke-width="0.975998166" stroke-linecap="round" stroke-linejoin="round"></line>
                        <path d="M48.8079527,45.9443488 C48.8079527,47.8725659 47.2416958,49.435809 45.3097613,49.435809 C43.3778267,49.435809 41.8115698,47.8725659 41.8115698,45.9443488 C41.8115698,44.0160153 43.3778267,42.4528886 45.3097613,42.4528886 C47.2416958,42.4528886 48.8079527,44.0160153 48.8079527,45.9443488" id="Fill-9" fill="#FFFFFF"></path>
                        <path d="M66.4828712,30.0560052 C66.4828712,31.5022553 65.3081785,32.6746004 63.8592276,32.6746004 C62.4102767,32.6746004 61.235584,31.5022553 61.235584,30.0560052 C61.235584,28.6097551 62.4102767,27.43741 63.8592276,27.43741 C65.3081785,27.43741 66.4828712,28.6097551 66.4828712,30.0560052" id="Fill-11" fill="#FFFFFF"></path>
                        <path d="M58.3405245,37.8266951 C58.3405245,39.5139869 56.9700497,40.8817228 55.2796069,40.8817228 C53.5891642,40.8817228 52.2186894,39.5139869 52.2186894,37.8266951 C52.2186894,36.1395051 53.5891642,34.7716674 55.2796069,34.7716674 C56.9700497,34.7716674 58.3405245,36.1395051 58.3405245,37.8266951" id="Fill-13" fill="#FFFFFF"></path>
                        <mask id="mask-4" fill="white">
                            <use xlink:href="#path-3"></use>
                        </mask>
                        <g id="Clip-2"></g>
                        <path d="M71.9885991,8.08031581 C64.2418907,8.08031581 57.9619672,14.3445395 57.9619672,22.0718811 C57.9619672,29.7991915 64.2418907,36.0634464 71.9885991,36.0634464 C79.7353075,36.0634464 86.015231,29.7991915 86.015231,22.0718811 C86.015231,14.3445395 79.7353075,8.08031581 71.9885991,8.08031581" id="Fill-1" fill="#597EF7"></path>
                        <path d="M75.312619,16.5649864 C76.0527755,17.2280945 76.4323541,18.1375402 76.4323541,19.2743238 C76.4323541,20.2026751 76.1856249,20.9794679 75.7301367,21.5857337 C75.5592855,21.7941346 75.0279193,22.2867784 74.116943,23.0635398 C73.7753034,23.3666884 73.5096046,23.6888053 73.3387847,24.0298278 C73.1300259,24.4087557 73.0351155,24.8255576 73.0351155,25.2992331 L73.0351155,25.7488298 C73.0351155,25.9366634 72.8825742,26.0889431 72.6944494,26.0889431 L71.3450387,26.0889431 C71.1569139,26.0889431 71.0043727,25.9366634 71.0043727,25.7488298 L71.0043727,25.2992331 C71.0043727,24.5982197 71.118284,23.9919225 71.3650132,23.49931 C71.630712,22.9688549 72.351899,22.1920308 73.5285741,21.1499948 L73.8512442,20.7900353 C74.1928211,20.3542337 74.3636723,19.8995266 74.3636723,19.4069141 C74.3636723,18.743806 74.1738515,18.2322565 73.8132738,17.8532972 C73.4336637,17.4744007 72.9022975,17.2849368 72.2190182,17.2849368 C71.3650132,17.2849368 70.7387053,17.55018 70.3591266,18.0806978 C70.0622412,18.4758664 69.8943735,19.0284251 69.8554923,19.7134801 C69.8453166,19.8926603 69.6953821,20.0321168 69.5156114,20.0321168 L68.1846049,20.0321168 C67.9902302,20.0321168 67.8339202,19.8698356 67.8440959,19.6760764 C67.9078824,18.4622907 68.3048917,17.4995142 69.0496021,16.7733873 C69.8466985,15.9587206 70.9474327,15.5608244 72.3329295,15.5608244 C73.5665445,15.5608244 74.5534302,15.8829099 75.312619,16.5649864" id="Fill-3" fill="#FFFFFF"></path>
                        <path d="M72.2534298,29.2289083 L71.7454943,29.2289083 C71.3247014,29.2289083 70.9835909,28.8877979 70.9835909,28.467005 L70.9835909,27.9590695 C70.9835909,27.5382766 71.3247014,27.1971661 71.7454943,27.1971661 L72.2534298,27.1971661 C72.6742227,27.1971661 73.0153331,27.5382766 73.0153331,27.9590695 L73.0153331,28.467005 C73.0153331,28.8877979 72.6742227,29.2289083 72.2534298,29.2289083" id="Fill-5" fill="#FFFFFF"></path>
                        <polygon id="Fill-1" fill="#CED0DB" points="10.9232161 0.000176396848 6.68118259 13.1449328 9.24585158 13.1449328 13.4882886 0.000176396848"></polygon>
                        <mask id="mask-6" fill="white">
                            <use xlink:href="#path-5"></use>
                        </mask>
                        <g id="Clip-3"></g>
                        <path d="M4.87538919,1.54197524 L2.10785786,1.54197524 L0.363591298,1.54197524 C0.227429412,1.54197524 0.117105475,1.65040051 0.117105475,1.78421907 L0.117105475,3.49846697 L0.117105475,9.87056785 L0.117105475,11.5848157 C0.117105475,11.7186343 0.227429412,11.8270596 0.363591298,11.8270596 L2.10785786,11.8270596 L4.87538919,11.8270596 C5.01155108,11.8270596 5.12187502,11.7186343 5.12187502,11.5848157 L5.12187502,10.1128117 C5.12187502,9.97899312 5.01155108,9.87056785 4.87538919,9.87056785 L2.10785786,9.87056785 L2.10785786,3.49846697 L4.87538919,3.49846697 C5.01155108,3.49846697 5.12187502,3.39004169 5.12187502,3.25662621 L5.12187502,1.78421907 C5.12187502,1.65040051 5.01155108,1.54197524 4.87538919,1.54197524" id="Fill-2" fill="#E4E6EF"></path>
                        <mask id="mask-8" fill="white">
                            <use xlink:href="#path-7"></use>
                        </mask>
                        <g id="Clip-5"></g>
                        <path d="M19.9789823,1.54197524 L18.2347157,1.54197524 L15.4671844,1.54197524 C15.3310225,1.54197524 15.2206986,1.65040051 15.2206986,1.78421907 L15.2206986,3.25662621 C15.2206986,3.39004169 15.3310225,3.49846697 15.4671844,3.49846697 L18.2347157,3.49846697 L18.2347157,9.87056785 L15.4671844,9.87056785 C15.3310225,9.87056785 15.2206986,9.97899312 15.2206986,10.1128117 L15.2206986,11.5848157 C15.2206986,11.7186343 15.3310225,11.8270596 15.4671844,11.8270596 L18.2347157,11.8270596 L19.9789823,11.8270596 C20.1151442,11.8270596 20.2254681,11.7186343 20.2254681,11.5848157 L20.2254681,10.1128117 L20.2254681,3.25662621 L20.2254681,1.78421907 C20.2254681,1.65040051 20.1151442,1.54197524 19.9789823,1.54197524" id="Fill-4" fill="#E4E6EF"></path>
                        <mask id="mask-10" fill="white">
                            <use xlink:href="#path-9"></use>
                        </mask>
                        <g id="Clip-2" transform="translate(92.765189, 76.596776) scale(-1, 1) rotate(23.000000) translate(-92.765189, -76.596776) "></g>
                        <path d="M94.6385882,76.7920202 C94.5324263,77.8430593 93.6076828,78.6078521 92.5731051,78.500001 C91.5381936,78.39215 90.785379,77.4526927 90.8918747,76.4013145 C90.9980366,75.3502755 91.9227801,74.5854826 92.9573578,74.6936728 C93.9919354,74.8015239 94.74475,75.7409812 94.6385882,76.7920202" id="Fill-1" fill="#E4E6EF" transform="translate(92.765202, 76.596807) scale(-1, 1) rotate(23.000000) translate(-92.765202, -76.596807) "></path>
                        <path d="M80.7942352,75.0642893 C80.6872152,76.1211486 79.7549972,76.8901766 78.7120573,76.7817283 C77.6687808,76.67328 76.9098813,75.7282793 77.0169013,74.67142 C77.1242578,73.6145607 78.0564758,72.8455327 79.0994157,72.954322 C80.1423557,73.0624292 80.9012552,74.0074299 80.7942352,75.0642893" id="Fill-3" fill="#E4E6EF" transform="translate(78.905568, 74.867995) scale(-1, 1) rotate(23.000000) translate(-78.905568, -74.867995) "></path>
                        <path d="M103.083206,64.8432579 C102.976285,65.9002244 102.043747,66.6689274 101.000568,66.560593 C99.9576997,66.4519446 99.1987145,65.5073946 99.3059455,64.4504281 C99.4128667,63.3934615 100.345405,62.6247586 101.388274,62.7330929 C102.431452,62.8414273 103.190437,63.7862913 103.083206,64.8432579" id="Fill-5" fill="#E4E6EF" transform="translate(101.194576, 64.646843) scale(-1, 1) rotate(23.000000) translate(-101.194576, -64.646843) "></path>
                        <mask id="mask-12" fill="white">
                            <use xlink:href="#path-11"></use>
                        </mask>
                        <g id="Mask" transform="translate(70.927448, 83.002750) scale(-1, 1) rotate(23.000000) translate(-70.927448, -83.002750) "></g>
                        <path d="M72.9716934,83.2135433 C72.8556312,84.3476709 71.8466285,85.1724909 70.7175383,85.0562479 C69.5884481,84.9396679 68.7672916,83.9261636 68.8830183,82.792036 C68.9990804,81.6579085 70.0080832,80.8330885 71.1371734,80.9493315 C72.2659281,81.0659114 73.0874201,82.0794158 72.9716934,83.2135433" id="Fill-7" fill="#E4E6EF" transform="translate(70.927354, 83.002790) scale(-1, 1) rotate(23.000000) translate(-70.927354, -83.002790) "></path>
                        <polygon id="Fill-9" fill="#E4E6EF" transform="translate(86.332393, 75.135627) scale(-1, 1) rotate(23.000000) translate(-86.332393, -75.135627) " points="81.0074511 79.1583888 80.9611542 79.1288808 68.7259997 71.2725362 68.8233829 71.112865 81.0125598 78.9400295 93.3585076 71.8459752 93.3990573 71.8623685 103.938787 76.1092274 103.871737 76.2839804 93.372237 72.0535149"></polygon>
                    </g>
                </g>
            </g>
        </g>
    </g>
</svg>