<?xml version="1.0" encoding="UTF-8"?>
<!--
  - Copyright (c) 2023 OceanBase
  - OCP Express is licensed under Mulan PSL v2.
  - You can use this software according to the terms and conditions of the Mulan PSL v2.
  - You may obtain a copy of Mulan PSL v2 at:
  -          http://license.coscl.org.cn/MulanPSL2
  - THIS SOFTWARE IS PROVIDED ON AN "AS IS" BASIS, WITHOUT WARRANTIES OF ANY KIND,
  - EITHER EXPRESS OR IMPLIED, INCLUDING BUT NOT LIMITED TO NON-INFRINGEMENT,
  - MERCHANTABILITY OR FIT FOR A PARTICULAR PURPOSE.
  - See the Mulan PSL v2 for more details.
  -->

<svg width="247px" height="128px" viewBox="0 0 247 128" version="1.1" xmlns="http://www.w3.org/2000/svg" xmlns:xlink="http://www.w3.org/1999/xlink">
    <defs>
        <polygon id="path-1" points="0 0.2157656 7.835256 0.2157656 7.835256 16.8472037 0 16.8472037"></polygon>
        <polygon id="path-3" points="0.0170152985 0.2157656 7.85207867 0.2157656 7.85207867 16.8472037 0.0170152985 16.8472037"></polygon>
        <polygon id="path-5" points="0 0.088110823 30.9953876 0.088110823 30.9953876 7.32102617 0 7.32102617"></polygon>
        <polygon id="path-7" points="0.0169396919 0.0189579738 31.6687521 0.0189579738 31.6687521 7.22222985 0.0169396919 7.22222985"></polygon>
        <polygon id="path-9" points="0.0248562073 0.0328695069 5.9426579 0.0328695069 5.9426579 5.94968553 0.0248562073 5.94968553"></polygon>
        <polygon id="path-11" points="0.0146412656 0.0505086745 6.47207575 0.0505086745 6.47207575 6.43453496 0.0146412656 6.43453496"></polygon>
        <polygon id="path-13" points="0 0.0482947679 109.808599 0.0482947679 109.808599 13.7582446 0 13.7582446"></polygon>
        <polygon id="path-15" points="0 0.0623158296 109.808599 0.0623158296 109.808599 70.9550696 0 70.9550696"></polygon>
        <polygon id="path-17" points="0 0 63.5629021 0 63.5629021 63.6272483 0 63.6272483"></polygon>
    </defs>
    <g id="锁分析与巡检报告" stroke="none" stroke-width="1" fill="none" fill-rule="evenodd">
        <g id="1.1-锁分析_集群版本过低不支持" transform="translate(-702.000000, -399.000000)">
            <g id="Backstage/Feedback/illustration" transform="translate(609.000000, 360.000000)">
                <g id="编组-4" transform="translate(93.000000, 39.000000)">
                    <g id="编组" transform="translate(25.422533, 14.801753)">
                        <polygon id="Fill-1" fill="#CED0DB" points="16.9177397 0.189782633 10.2764821 21.4454375 14.2916855 21.4454375 20.9335747 0.189782633"></polygon>
                        <g transform="translate(0.000000, 2.467174)">
                            <g>
                                <mask id="mask-2" fill="white">
                                    <use xlink:href="#path-1"></use>
                                </mask>
                                <g id="Clip-3"></g>
                                <path d="M7.44936187,0.2157656 L3.11656059,0.2157656 L0.38576571,0.2157656 C0.172592914,0.2157656 -0.000128417347,0.391094081 -0.000128417347,0.607484622 L-0.000128417347,3.3794996 L-0.000128417347,13.6834697 L-0.000128417347,16.4554846 C-0.000128417347,16.6718752 0.172592914,16.8472037 0.38576571,16.8472037 L3.11656059,16.8472037 L7.44936187,16.8472037 C7.66253467,16.8472037 7.835256,16.6718752 7.835256,16.4554846 L7.835256,14.0751887 C7.835256,13.8587982 7.66253467,13.6834697 7.44936187,13.6834697 L3.11656059,13.6834697 L3.11656059,3.3794996 L7.44936187,3.3794996 C7.66253467,3.3794996 7.835256,3.20417112 7.835256,2.98843235 L7.835256,0.607484622 C7.835256,0.391094081 7.66253467,0.2157656 7.44936187,0.2157656" id="Fill-2" fill="#E4E6EF" mask="url(#mask-2)"></path>
                            </g>
                            <g transform="translate(23.628792, 0.000000)">
                                <mask id="mask-4" fill="white">
                                    <use xlink:href="#path-3"></use>
                                </mask>
                                <g id="Clip-5"></g>
                                <path d="M7.46650559,0.2157656 L4.73571071,0.2157656 L0.402909426,0.2157656 C0.18973663,0.2157656 0.0170152985,0.391094081 0.0170152985,0.607484622 L0.0170152985,2.98843235 C0.0170152985,3.20417112 0.18973663,3.3794996 0.402909426,3.3794996 L4.73571071,3.3794996 L4.73571071,13.6834697 L0.402909426,13.6834697 C0.18973663,13.6834697 0.0170152985,13.8587982 0.0170152985,14.0751887 L0.0170152985,16.4554846 C0.0170152985,16.6718752 0.18973663,16.8472037 0.402909426,16.8472037 L4.73571071,16.8472037 L7.46650559,16.8472037 C7.67967838,16.8472037 7.85239971,16.6718752 7.85239971,16.4554846 L7.85239971,14.0751887 L7.85239971,2.98843235 L7.85239971,0.607484622 C7.85239971,0.391094081 7.67967838,0.2157656 7.46650559,0.2157656" id="Fill-4" fill="#E4E6EF" mask="url(#mask-4)"></path>
                            </g>
                        </g>
                    </g>
                    <g id="编组" opacity="0.567708333" transform="translate(204.256364, 104.575337)">
                        <g transform="translate(0.786902, 0.455346)">
                            <mask id="mask-6" fill="white">
                                <use xlink:href="#path-5"></use>
                            </mask>
                            <g id="Clip-2"></g>
                            <path d="M3.64826597,7.32102617 L27.3506909,7.31105436 C29.3643353,7.31014786 30.9963025,5.69205631 30.9953876,3.69776979 C30.9944719,1.70348328 29.3615894,0.0872047102 27.347945,0.088110823 L3.6446048,0.0980826367 C1.63096042,0.0989891306 -0.00100682219,1.71708069 -9.19141099e-05,3.7113672 C0.000823763609,5.70565371 1.6337063,7.32193228 3.64826597,7.32102617" id="Fill-1" fill="#E4E6EF" mask="url(#mask-6)"></path>
                        </g>
                        <g transform="translate(9.786902, 14.455346)">
                            <mask id="mask-8" fill="white">
                                <use xlink:href="#path-7"></use>
                            </mask>
                            <g id="Clip-4"></g>
                            <path d="M3.74255197,7.22223023 L27.9468785,7.21229928 C30.003162,7.2113965 31.6696863,5.59993647 31.6687521,3.61382326 C31.667817,1.62771005 30.000358,0.0180555746 27.9440744,0.0189579738 L3.73974795,0.0288889194 C1.68252974,0.0297916981 0.0160054106,1.64034895 0.0169396919,3.62736494 C0.0178747592,5.61347815 1.68626844,7.22313262 3.74255197,7.22223023" id="Fill-3" fill="#E4E6EF" mask="url(#mask-8)"></path>
                        </g>
                        <path d="M15.7869018,7.46236874 L15.7869018,7.46061303 L28.7840571,7.45534591 C26.6970404,7.45622376 25.0073248,9.02319141 25.008273,10.9544681 C25.008273,12.8857447 26.7008332,14.4509566 28.7869018,14.4500788 L15.7897464,14.4553459 L15.7897464,14.4544681 C17.8615918,14.436911 19.5342395,12.877844 19.5332913,10.9562238 C19.5323431,9.03548135 17.8577989,7.47817009 15.7869018,7.46236874" id="Fill-5" fill="#E4E6EF"></path>
                    </g>
                    <g id="编组" transform="translate(0.371725, 105.128797)">
                        <g transform="translate(19.525316, 11.899371)">
                            <mask id="mask-10" fill="white">
                                <use xlink:href="#path-9"></use>
                            </mask>
                            <g id="Clip-2"></g>
                            <path d="M5.92697684,3.29317478 C5.76018916,4.91832566 4.30735307,6.10087334 2.68195991,5.93411052 C1.05604226,5.7673477 -0.126681713,4.31472816 0.0406304583,2.68905286 C0.20741814,1.06390198 1.66025423,-0.118645692 3.28564739,0.0486415397 C4.91104055,0.21540436 6.09376452,1.6680239 5.92697684,3.29317478" id="Fill-1" fill="#E4E6EF" mask="url(#mask-10)"></path>
                        </g>
                        <path d="M44.4585232,4.36012069 C44.2903874,5.99427109 42.8258083,7.18336729 41.1872774,7.01568099 C39.5482178,6.8479947 38.3559341,5.38680376 38.5240699,3.75265336 C38.6927344,2.11850297 40.1573135,0.92940677 41.7958444,1.09762038 C43.4343753,1.26477936 44.626659,2.7259703 44.4585232,4.36012069" id="Fill-3" fill="#E4E6EF"></path>
                        <path d="M5.95020365,3.27854591 C5.78222312,4.9128621 4.31714073,6.1014557 2.678235,5.93394557 C1.03981617,5.76594991 -0.152602165,4.30545582 0.0158652686,2.67113962 C0.183845802,1.03682343 1.64892819,-0.151770164 3.28734702,0.0157399624 C4.92625275,0.183250089 6.11867108,1.64422972 5.95020365,3.27854591" id="Fill-5" fill="#E4E6EF"></path>
                        <g transform="translate(54.779359, 7.572327)">
                            <mask id="mask-12" fill="white">
                                <use xlink:href="#path-11"></use>
                            </mask>
                            <g id="Clip-8"></g>
                            <path d="M6.45531718,3.56839599 C6.2729755,5.32202103 4.68776225,6.59738469 2.91388334,6.41764594 C1.14000442,6.23738621 -0.150089339,4.67027268 0.0317253449,2.91664764 C0.214067028,1.1630226 1.79928027,-0.112341061 3.57315919,0.0673976904 C5.34651111,0.247657424 6.63713186,1.81477095 6.45531718,3.56839599" id="Fill-7" fill="#E4E6EF" mask="url(#mask-12)"></path>
                        </g>
                        <polygon id="Fill-9" fill="#E4E6EF" points="22.5492305 15.1446541 22.4764948 15.0990278 3.25421934 2.95129124 3.40721501 2.70440252 22.5572565 14.8070198 41.9535958 3.83796144 42.0173022 3.86330936 58.5759482 10.4299412 58.4706069 10.70015 41.9751657 4.15886609"></polygon>
                    </g>
                    <g id="编组-5" transform="translate(79.043266, 0.000000)">
                        <g id="3.通用组件/彩色版/表格" transform="translate(0.000000, 27.030683)">
                            <g id="分组" transform="translate(0.582412, 0.721246)">
                                <g transform="translate(0.000000, 0.093332)">
                                    <mask id="mask-14" fill="white">
                                        <use xlink:href="#path-13"></use>
                                    </mask>
                                    <g id="Clip-2"></g>
                                    <path d="M109.808599,13.7582446 L-4.23186217e-05,13.7582446 L-4.23186217e-05,2.88073334 C-4.23186217e-05,1.31646439 1.26316854,0.0481956291 2.82119913,0.0481956291 L106.987358,0.0481956291 C108.54553,0.0481956291 109.808599,1.31646439 109.808599,2.88073334 L109.808599,13.7582446 Z" id="Fill-1" fill="#253369" mask="url(#mask-14)"></path>
                                </g>
                                <g transform="translate(0.000000, 12.839752)">
                                    <mask id="mask-16" fill="white">
                                        <use xlink:href="#path-15"></use>
                                    </mask>
                                    <g id="Clip-4"></g>
                                    <path d="M2.82119913,70.9550696 C1.26316854,70.9550696 -4.23186217e-05,69.6869425 -4.23186217e-05,68.1225319 L-4.23186217e-05,0.0623158296 L109.808599,0.0623158296 L109.808599,68.1225319 C109.808599,69.6869425 108.54553,70.9550696 106.987358,70.9550696 L2.82119913,70.9550696 Z" id="Fill-3" fill="#E4EBF7" mask="url(#mask-16)"></path>
                                </g>
                                <path d="M109.237792,35.7610017 C109.432308,35.7610017 109.589995,35.9857557 109.589995,36.2630037 C109.589995,36.5295884 109.444205,36.7476393 109.260066,36.7640181 L109.237792,36.7650057 L0.570906419,36.7650057 C0.376390041,36.7650057 0.21870336,36.5402518 0.21870336,36.2630037 C0.21870336,35.9964191 0.364493561,35.7783682 0.548632543,35.7619894 L0.570906419,35.7610017 L109.237792,35.7610017 Z" id="Stroke-5" fill="#597EF7" fill-rule="nonzero"></path>
                                <path d="M36.6652127,12.4947494 C36.9307342,12.4947494 37.1479155,12.6411234 37.164229,12.8259997 L37.1652127,12.8483627 L37.1652127,83.429679 C37.1652127,83.6249742 36.9413551,83.7832923 36.6652127,83.7832923 C36.3996912,83.7832923 36.1825099,83.6369183 36.1661964,83.452042 L36.1652127,83.429679 L36.1652127,12.8483627 C36.1652127,12.6530675 36.3890703,12.4947494 36.6652127,12.4947494 Z" id="Stroke-7" fill="#597EF7" fill-rule="nonzero"></path>
                                <path d="M73.0992467,12.4947494 C73.3647682,12.4947494 73.5819495,12.6411234 73.598263,12.8259997 L73.5992467,12.8483627 L73.5992467,83.429679 C73.5992467,83.6249742 73.375389,83.7832923 73.0992467,83.7832923 C72.8337252,83.7832923 72.6165438,83.6369183 72.6002304,83.452042 L72.5992467,83.429679 L72.5992467,12.8483627 C72.5992467,12.6530675 72.8231043,12.4947494 73.0992467,12.4947494 Z" id="Stroke-9" fill="#597EF7" fill-rule="nonzero"></path>
                                <path d="M109.237792,59.4741718 C109.432308,59.4741718 109.589995,59.6989258 109.589995,59.9761738 C109.589995,60.2427585 109.444205,60.4608094 109.260066,60.4771882 L109.237792,60.4781758 L0.570906419,60.4781758 C0.376390041,60.4781758 0.21870336,60.2534219 0.21870336,59.9761738 C0.21870336,59.7095892 0.364493561,59.4915383 0.548632543,59.4751595 L0.570906419,59.4741718 L109.237792,59.4741718 Z" id="Stroke-11" fill="#597EF7" fill-rule="nonzero"></path>
                                <path d="M9.21172008,6.52179061 C9.21172008,7.86200583 8.12963293,8.94842566 6.79476254,8.94842566 C5.46003321,8.94842566 4.37794605,7.86200583 4.37794605,6.52179061 C4.37794605,5.18171702 5.46003321,4.09529718 6.79476254,4.09529718 C8.12963293,4.09529718 9.21172008,5.18171702 9.21172008,6.52179061" id="Fill-13" fill="#FF7946"></path>
                                <path d="M18.2377602,6.52179061 C18.2377602,7.86200583 17.155673,8.94842566 15.8208026,8.94842566 C14.4860733,8.94842566 13.4039861,7.86200583 13.4039861,6.52179061 C13.4039861,5.18171702 14.4860733,4.09529718 15.8208026,4.09529718 C17.155673,4.09529718 18.2377602,5.18171702 18.2377602,6.52179061" id="Fill-15" fill="#FFC53D"></path>
                                <path d="M27.2638002,6.52179061 C27.2638002,7.86200583 26.1817131,8.94842566 24.8468427,8.94842566 C23.5121134,8.94842566 22.4300262,7.86200583 22.4300262,6.52179061 C22.4300262,5.18171702 23.5121134,4.09529718 24.8468427,4.09529718 C26.1817131,4.09529718 27.2638002,5.18171702 27.2638002,6.52179061" id="Fill-17" fill="#BAE637"></path>
                            </g>
                        </g>
                        <g id="编组-3备份" transform="translate(78.000000, 0.030683)">
                            <g id="分组备份" transform="translate(0.034865, 0.107861)">
                                <g id="分组">
                                    <mask id="mask-18" fill="white">
                                        <use xlink:href="#path-17"></use>
                                    </mask>
                                    <g id="Clip-2"></g>
                                    <path d="M31.7814475,-7.10125619e-06 C14.2290041,-7.10125619e-06 -7.09407468e-06,14.2434085 -7.09407468e-06,31.8136206 C-7.09407468e-06,49.3837617 14.2290041,63.6272483 31.7814475,63.6272483 C49.3338908,63.6272483 63.5629021,49.3837617 63.5629021,31.8136206 C63.5629021,14.2434085 49.3338908,-7.10125619e-06 31.7814475,-7.10125619e-06" id="Fill-1" fill="#597EF7" mask="url(#mask-18)"></path>
                                </g>
                                <path d="M39.2857583,19.3312526 C40.9576189,20.8331683 41.8150088,22.8930297 41.8150088,25.4678032 C41.8150088,27.5704851 41.2576983,29.3298923 40.2288446,30.7030623 C39.842927,31.1750828 38.6426805,32.2909031 36.5849732,34.0502394 C35.8132797,34.7368598 35.213121,35.4664429 34.8272743,36.2388465 C34.3557311,37.0971043 34.1413482,38.0411453 34.1413482,39.1140031 L34.1413482,40.1323233 C34.1413482,40.5577595 33.796789,40.9026675 33.3718539,40.9026675 L30.3238138,40.9026675 C29.8988787,40.9026675 29.5543195,40.5577595 29.5543195,40.1323233 L29.5543195,39.1140031 C29.5543195,37.5262333 29.8116216,36.1529923 30.3689321,35.037243 C30.9690908,33.8357814 32.5981032,32.0763032 35.2559692,29.7161297 L35.9848144,28.9008344 C36.756366,27.9137598 37.1422837,26.8838647 37.1422837,25.7681153 C37.1422837,24.2661996 36.7135178,23.1075586 35.8990471,22.2492298 C35.0415863,21.391043 33.8413398,20.9619141 32.2979529,20.9619141 C30.3689321,20.9619141 28.9542317,21.5626804 28.0968419,22.7642839 C27.426239,23.6593262 27.0470607,24.9108516 26.959236,26.4624761 C26.9362512,26.8683129 26.5975801,27.1841768 26.1915153,27.1841768 L23.1850464,27.1841768 C22.7459941,27.1841768 22.392922,26.8166158 22.4159068,26.3777581 C22.5599875,23.6285778 23.4567495,21.4479241 25.1388965,19.8032731 C26.9393726,17.9580827 29.4257039,17.0568623 32.555255,17.0568623 C35.3417366,17.0568623 37.5709077,17.7863743 39.2857583,19.3312526" id="Fill-3" fill="#FFFFFF"></path>
                                <path d="M32.2226635,47.8896432 L31.0876115,47.8896432 C30.1472919,47.8896432 29.3850336,47.1266132 29.3850336,46.1853417 L29.3850336,45.0491407 C29.3850336,44.1078692 30.1472919,43.3448392 31.0876115,43.3448392 L32.2226635,43.3448392 C33.1629831,43.3448392 33.9252414,44.1078692 33.9252414,45.0491407 L33.9252414,46.1853417 C33.9252414,47.1266132 33.1629831,47.8896432 32.2226635,47.8896432" id="Fill-5" fill="#FFFFFF"></path>
                            </g>
                        </g>
                    </g>
                </g>
            </g>
        </g>
    </g>
</svg>