<?xml version="1.0" encoding="UTF-8"?>
<!--
  - Copyright (c) 2023 OceanBase
  - OCP Express is licensed under Mulan PSL v2.
  - You can use this software according to the terms and conditions of the Mulan PSL v2.
  - You may obtain a copy of Mulan PSL v2 at:
  -          http://license.coscl.org.cn/MulanPSL2
  - THIS SOFTWARE IS PROVIDED ON AN "AS IS" BASIS, WITHOUT WARRANTIES OF ANY KIND,
  - EITHER EXPRESS OR IMPLIED, INCLUDING BUT NOT LIMITED TO NON-INFRINGEMENT,
  - MERCHANTABILITY OR FIT FOR A PARTICULAR PURPOSE.
  - See the Mulan PSL v2 for more details.
  -->

<svg width="18px" height="18px" viewBox="0 0 18 18" version="1.1" xmlns="http://www.w3.org/2000/svg" xmlns:xlink="http://www.w3.org/1999/xlink">
    <g id="OBProxy" stroke="none" stroke-width="1" fill="none" fill-rule="evenodd">
        <g id="4.1.2.1.1-OBProxy-集群总览-集群数据-单个-OB-集群" transform="translate(-235.000000, -103.000000)" fill="#2F54EB">
            <g id="Backstage/pageheader/normal" transform="translate(232.000000, 48.000000)">
                <g id="Icon/01-Line/1-example" transform="translate(0.000000, 52.000000)">
                    <path d="M10.921875,12.890625 C11.1289818,12.890625 11.296875,13.0585182 11.296875,13.265625 L11.296875,20.015625 C11.296875,20.2227318 11.1289818,20.390625 10.921875,20.390625 L4.171875,20.390625 C3.96476822,20.390625 3.796875,20.2227318 3.796875,20.015625 L3.796875,13.265625 C3.796875,13.0585182 3.96476822,12.890625 4.171875,12.890625 L10.921875,12.890625 Z M20.203125,12.890625 C20.4102318,12.890625 20.578125,13.0585182 20.578125,13.265625 L20.578125,20.015625 C20.578125,20.2227318 20.4102318,20.390625 20.203125,20.390625 L13.453125,20.390625 C13.2460182,20.390625 13.078125,20.2227318 13.078125,20.015625 L13.078125,13.265625 C13.078125,13.0585182 13.2460182,12.890625 13.453125,12.890625 L20.203125,12.890625 Z M17.09329,3.21829004 L20.96921,7.09420996 C21.1156566,7.24065657 21.1156566,7.47809343 20.96921,7.62454004 L17.09329,11.50046 C16.9468434,11.6469066 16.7094066,11.6469066 16.56296,11.50046 L12.68704,7.62454004 C12.5405934,7.47809343 12.5405934,7.24065657 12.68704,7.09420996 L16.56296,3.21829004 C16.7094066,3.07184343 16.9468434,3.07184343 17.09329,3.21829004 Z M10.921875,3.609375 C11.1289818,3.609375 11.296875,3.77726822 11.296875,3.984375 L11.296875,10.734375 C11.296875,10.9414818 11.1289818,11.109375 10.921875,11.109375 L4.171875,11.109375 C3.96476822,11.109375 3.796875,10.9414818 3.796875,10.734375 L3.796875,3.984375 C3.796875,3.77726822 3.96476822,3.609375 4.171875,3.609375 L10.921875,3.609375 Z" id="Shape"></path>
                </g>
            </g>
        </g>
    </g>
</svg>