<?xml version="1.0" encoding="UTF-8"?>
<!--
  - Copyright (c) 2023 OceanBase
  - OCP Express is licensed under Mulan PSL v2.
  - You can use this software according to the terms and conditions of the Mulan PSL v2.
  - You may obtain a copy of Mulan PSL v2 at:
  -          http://license.coscl.org.cn/MulanPSL2
  - THIS SOFTWARE IS PROVIDED ON AN "AS IS" BASIS, WITHOUT WARRANTIES OF ANY KIND,
  - EITHER EXPRESS OR IMPLIED, INCLUDING BUT NOT LIMITED TO NON-INFRINGEMENT,
  - MERCHANTABILITY OR FIT FOR A PARTICULAR PURPOSE.
  - See the Mulan PSL v2 for more details.
  -->

<svg width="12px" height="12px" viewBox="0 0 12 12" version="1.1" xmlns="http://www.w3.org/2000/svg" xmlns:xlink="http://www.w3.org/1999/xlink">
    <g id="2.6.0-导航优化" stroke="none" stroke-width="1" fill="none" fill-rule="evenodd">
        <g id="导航方案" transform="translate(-2657.000000, -474.000000)" fill="#9254DE">
            <g id="多级站点方案2-子站点" transform="translate(1862.000000, 446.000000)">
                <g id="编组-11" transform="translate(770.000000, 0.000000)">
                    <g id="编组-45" transform="translate(16.000000, 16.000000)">
                        <g id="编组-22" transform="translate(8.000000, 8.000000)">
                            <g id="Icon/01-Line/1-example" transform="translate(0.000000, 3.000000)">
                                <path d="M11.8358617,8.5625 L10.5658374,8.5625 L10.5658374,6.70703125 C10.5658374,6.65332031 10.521875,6.609375 10.4681432,6.609375 L7.43962379,6.609375 L7.43962379,5.4375 L8.75849515,5.4375 C8.86595874,5.4375 8.9538835,5.34960938 8.9538835,5.2421875 L8.9538835,1.7265625 C8.9538835,1.61914062 8.86595874,1.53125 8.75849515,1.53125 L5.24150485,1.53125 C5.13404126,1.53125 5.0461165,1.61914062 5.0461165,1.7265625 L5.0461165,5.2421875 C5.0461165,5.34960938 5.13404126,5.4375 5.24150485,5.4375 L6.56037621,5.4375 L6.56037621,6.609375 L3.5318568,6.609375 C3.478125,6.609375 3.43416262,6.65332031 3.43416262,6.70703125 L3.43416262,8.5625 L2.16413835,8.5625 C2.05667476,8.5625 1.96875,8.65039062 1.96875,8.7578125 L1.96875,12.2734375 C1.96875,12.3808594 2.05667476,12.46875 2.16413835,12.46875 L5.68112864,12.46875 C5.78859223,12.46875 5.87651699,12.3808594 5.87651699,12.2734375 L5.87651699,8.7578125 C5.87651699,8.65039062 5.78859223,8.5625 5.68112864,8.5625 L4.31341019,8.5625 L4.31341019,7.48828125 L9.68658981,7.48828125 L9.68658981,8.5625 L8.31887136,8.5625 C8.21140777,8.5625 8.12348301,8.65039062 8.12348301,8.7578125 L8.12348301,12.2734375 C8.12348301,12.3808594 8.21140777,12.46875 8.31887136,12.46875 L11.8358617,12.46875 C11.9433252,12.46875 12.03125,12.3808594 12.03125,12.2734375 L12.03125,8.7578125 C12.03125,8.65039062 11.9433252,8.5625 11.8358617,8.5625 Z" id="Path"></path>
                            </g>
                        </g>
                    </g>
                </g>
            </g>
        </g>
    </g>
</svg>