<?xml version="1.0" encoding="UTF-8"?>
<!--
  - Copyright (c) 2023 OceanBase
  - OCP Express is licensed under Mulan PSL v2.
  - You can use this software according to the terms and conditions of the Mulan PSL v2.
  - You may obtain a copy of Mulan PSL v2 at:
  -          http://license.coscl.org.cn/MulanPSL2
  - THIS SOFTWARE IS PROVIDED ON AN "AS IS" BASIS, WITHOUT WARRANTIES OF ANY KIND,
  - EITHER EXPRESS OR IMPLIED, INCLUDING BUT NOT LIMITED TO NON-INFRINGEMENT,
  - MERCHANTABILITY OR FIT FOR A PARTICULAR PURPOSE.
  - See the Mulan PSL v2 for more details.
  -->

<svg width="14px" height="14px" viewBox="0 0 14 14" version="1.1" xmlns="http://www.w3.org/2000/svg" xmlns:xlink="http://www.w3.org/1999/xlink">
    <g id="资源管理" stroke="none" stroke-width="1" fill="none" fill-rule="evenodd">
        <g id="2.1-Unit-管理" transform="translate(-411.000000, -625.000000)" fill="#5B8FF9">
            <g id="Icon/01-Line/1-example" transform="translate(410.000000, 624.000000)">
                <path d="M7.40625,14.875 C7.40625,14.9440356 7.35028559,15 7.28125,15 L5.65625,15 C5.58721441,15 5.53125,14.9440356 5.53125,14.875 L5.53125,13 L3.25,13 C3.11192881,13 3,12.8880712 3,12.75 L3,10.46875 L1.125,10.46875 C1.05596441,10.46875 1,10.4127856 1,10.34375 L1,8.71875 C1,8.64971441 1.05596441,8.59375 1.125,8.59375 L3,8.59375 L3,7.40625 L1.125,7.40625 C1.05596441,7.40625 1,7.35028559 1,7.28125 L1,5.65625 C1,5.58721441 1.05596441,5.53125 1.125,5.53125 L3,5.53125 L3,3.25 C3,3.11192881 3.11192881,3 3.25,3 L5.53125,3 L5.53125,1.125 C5.53125,1.05596441 5.58721441,1 5.65625,1 L7.28125,1 C7.35028559,1 7.40625,1.05596441 7.40625,1.125 L7.40625,3 L8.59375,3 L8.59375,1.125 C8.59375,1.05596441 8.64971441,1 8.71875,1 L10.34375,1 C10.4127856,1 10.46875,1.05596441 10.46875,1.125 L10.46875,3 L12.75,3 C12.8880712,3 13,3.11192881 13,3.25 L13,5.53125 L14.875,5.53125 C14.9440356,5.53125 15,5.58721441 15,5.65625 L15,7.28125 C15,7.35028559 14.9440356,7.40625 14.875,7.40625 L13,7.40625 L13,8.59375 L14.875,8.59375 C14.9440356,8.59375 15,8.64971441 15,8.71875 L15,10.34375 C15,10.4127856 14.9440356,10.46875 14.875,10.46875 L13,10.46875 L13,12.75 C13,12.8880712 12.8880712,13 12.75,13 L10.46875,13 L10.46875,14.875 C10.46875,14.9440356 10.4127856,15 10.34375,15 L8.71875,15 C8.64971441,15 8.59375,14.9440356 8.59375,14.875 L8.59375,13 L7.40625,13 L7.40625,14.875 Z M9.75,6.125 L6.25,6.125 C6.18226696,6.125 6.12711652,6.17887247 6.12505948,6.24610657 L6.125,6.25 L6.125,9.75 C6.125,9.81773304 6.17887247,9.87288348 6.24610657,9.87494052 L6.25,9.875 L9.75,9.875 C9.81773304,9.875 9.87288348,9.82112753 9.87494052,9.75389343 L9.875,9.75 L9.875,6.25 C9.875,6.18226696 9.82112753,6.12711652 9.75389343,6.12505948 L9.75,6.125 Z" id="Shape"></path>
            </g>
        </g>
    </g>
</svg>