<?xml version="1.0" encoding="UTF-8"?>
<!--
  - Copyright (c) 2023 OceanBase
  - OCP Express is licensed under Mulan PSL v2.
  - You can use this software according to the terms and conditions of the Mulan PSL v2.
  - You may obtain a copy of Mulan PSL v2 at:
  -          http://license.coscl.org.cn/MulanPSL2
  - THIS SOFTWARE IS PROVIDED ON AN "AS IS" BASIS, WITHOUT WARRANTIES OF ANY KIND,
  - EITHER EXPRESS OR IMPLIED, INCLUDING BUT NOT LIMITED TO NON-INFRINGEMENT,
  - MERCHANTABILITY OR FIT FOR A PARTICULAR PURPOSE.
  - See the Mulan PSL v2 for more details.
  -->

<svg width="14px" height="11px" viewBox="0 0 14 11" version="1.1" xmlns="http://www.w3.org/2000/svg" xmlns:xlink="http://www.w3.org/1999/xlink">
    <g id="资源管理" stroke="none" stroke-width="1" fill="none" fill-rule="evenodd">
        <g id="2.1-Unit-管理" transform="translate(-521.000000, -500.000000)" fill="#5B8FF9">
            <g id="Group-8" transform="translate(232.000000, 178.000000)">
                <g id="General/box-icon/16px" transform="translate(288.000000, 320.000000)">
                    <path d="M14.75,9.4375 C14.8880712,9.4375 15,9.54942881 15,9.6875 L15,12.4375 C15,12.5065356 14.9440356,12.5625 14.875,12.5625 L13.625,12.5625 C13.5559644,12.5625 13.5,12.5065356 13.5,12.4375 L13.5,11.3125 L12.5,11.3125 L12.5,12.4375 C12.5,12.5065356 12.4440356,12.5625 12.375,12.5625 L11.125,12.5625 C11.0559644,12.5625 11,12.5065356 11,12.4375 L11,11.3125 L10,11.3125 L10,12.4375 C10,12.5065356 9.94403559,12.5625 9.875,12.5625 L8.625,12.5625 C8.55596441,12.5625 8.5,12.5065356 8.5,12.4375 L8.5,11.3125 L7.5,11.3125 L7.5,12.4375 C7.5,12.5065356 7.44403559,12.5625 7.375,12.5625 L6.125,12.5625 C6.05596441,12.5625 6,12.5065356 6,12.4375 L6,11.3125 L5,11.3125 L5,12.4375 C5,12.5065356 4.94403559,12.5625 4.875,12.5625 L3.625,12.5625 C3.55596441,12.5625 3.5,12.5065356 3.5,12.4375 L3.5,11.3125 L2.5,11.3125 L2.5,12.4375 C2.5,12.5065356 2.44403559,12.5625 2.375,12.5625 L1.125,12.5625 C1.05596441,12.5625 1,12.5065356 1,12.4375 L1,9.6875 C1,9.54942881 1.11192881,9.4375 1.25,9.4375 L14.75,9.4375 Z M14.5,2.9375 C14.7761424,2.9375 15,3.16135763 15,3.4375 L15,7.1875 C15,7.32557119 14.8880712,7.4375 14.75,7.4375 L13.4375,7.4375 L13.4375,8.3125 C13.4375,8.38153559 13.3815356,8.4375 13.3125,8.4375 L2.6875,8.4375 C2.61846441,8.4375 2.5625,8.38153559 2.5625,8.3125 L2.5625,7.4375 L1.25,7.4375 C1.11192881,7.4375 1,7.32557119 1,7.1875 L1,3.4375 C1,3.16135763 1.22385763,2.9375 1.5,2.9375 L14.5,2.9375 Z M12.5625,4.4375 L10.9375,4.4375 C10.8684644,4.4375 10.8125,4.49346441 10.8125,4.5625 L10.8125,6.1875 C10.8125,6.25653559 10.8684644,6.3125 10.9375,6.3125 L12.5625,6.3125 C12.6315356,6.3125 12.6875,6.25653559 12.6875,6.1875 L12.6875,4.5625 C12.6875,4.49346441 12.6315356,4.4375 12.5625,4.4375 Z M8.8125,4.4375 L7.1875,4.4375 C7.11846441,4.4375 7.0625,4.49346441 7.0625,4.5625 L7.0625,6.1875 C7.0625,6.25653559 7.11846441,6.3125 7.1875,6.3125 L8.8125,6.3125 C8.88153559,6.3125 8.9375,6.25653559 8.9375,6.1875 L8.9375,4.5625 C8.9375,4.49346441 8.88153559,4.4375 8.8125,4.4375 Z M5.0625,4.4375 L3.4375,4.4375 C3.36846441,4.4375 3.3125,4.49346441 3.3125,4.5625 L3.3125,6.1875 C3.3125,6.25653559 3.36846441,6.3125 3.4375,6.3125 L5.0625,6.3125 C5.13153559,6.3125 5.1875,6.25653559 5.1875,6.1875 L5.1875,4.5625 C5.1875,4.49346441 5.13153559,4.4375 5.0625,4.4375 Z" id="Shape"></path>
                </g>
            </g>
        </g>
    </g>
</svg>