<?xml version="1.0" encoding="UTF-8"?>
<!--
  - Copyright (c) 2023 OceanBase
  - OCP Express is licensed under Mulan PSL v2.
  - You can use this software according to the terms and conditions of the Mulan PSL v2.
  - You may obtain a copy of Mulan PSL v2 at:
  -          http://license.coscl.org.cn/MulanPSL2
  - THIS SOFTWARE IS PROVIDED ON AN "AS IS" BASIS, WITHOUT WARRANTIES OF ANY KIND,
  - EITHER EXPRESS OR IMPLIED, INCLUDING BUT NOT LIMITED TO NON-INFRINGEMENT,
  - MERCHANTABILITY OR FIT FOR A PARTICULAR PURPOSE.
  - See the Mulan PSL v2 for more details.
  -->

<svg width="12px" height="12px" viewBox="0 0 12 12" version="1.1" xmlns="http://www.w3.org/2000/svg" xmlns:xlink="http://www.w3.org/1999/xlink">
    <g id="资源管理" stroke="none" stroke-width="1" fill="none" fill-rule="evenodd">
        <g id="2.1-Unit-管理" transform="translate(-478.000000, -614.000000)" fill="#2F54EB">
            <g id="Icon/01-Line/1-example" transform="translate(476.000000, 612.000000)">
                <path d="M7.28125,8.59375 C7.41932119,8.59375 7.53125,8.70567881 7.53125,8.84375 L7.53125,13.34375 C7.53125,13.4818212 7.41932119,13.59375 7.28125,13.59375 L2.78125,13.59375 C2.64317881,13.59375 2.53125,13.4818212 2.53125,13.34375 L2.53125,8.84375 C2.53125,8.70567881 2.64317881,8.59375 2.78125,8.59375 L7.28125,8.59375 Z M13.46875,8.59375 C13.6068212,8.59375 13.71875,8.70567881 13.71875,8.84375 L13.71875,13.34375 C13.71875,13.4818212 13.6068212,13.59375 13.46875,13.59375 L8.96875,13.59375 C8.83067881,13.59375 8.71875,13.4818212 8.71875,13.34375 L8.71875,8.84375 C8.71875,8.70567881 8.83067881,8.59375 8.96875,8.59375 L13.46875,8.59375 Z M11.3955267,2.1455267 L13.9794733,4.7294733 C14.0771044,4.82710438 14.0771044,4.98539562 13.9794733,5.0830267 L11.3955267,7.6669733 C11.2978956,7.76460438 11.1396044,7.76460438 11.0419733,7.6669733 L8.4580267,5.0830267 C8.36039562,4.98539562 8.36039562,4.82710438 8.4580267,4.7294733 L11.0419733,2.1455267 C11.1396044,2.04789562 11.2978956,2.04789562 11.3955267,2.1455267 Z M7.28125,2.40625 C7.41932119,2.40625 7.53125,2.51817881 7.53125,2.65625 L7.53125,7.15625 C7.53125,7.29432119 7.41932119,7.40625 7.28125,7.40625 L2.78125,7.40625 C2.64317881,7.40625 2.53125,7.29432119 2.53125,7.15625 L2.53125,2.65625 C2.53125,2.51817881 2.64317881,2.40625 2.78125,2.40625 L7.28125,2.40625 Z" id="Shape"></path>
            </g>
        </g>
    </g>
</svg>