<?xml version="1.0" encoding="UTF-8"?>
<!--
  - Copyright (c) 2023 OceanBase
  - OCP Express is licensed under Mulan PSL v2.
  - You can use this software according to the terms and conditions of the Mulan PSL v2.
  - You may obtain a copy of Mulan PSL v2 at:
  -          http://license.coscl.org.cn/MulanPSL2
  - THIS SOFTWARE IS PROVIDED ON AN "AS IS" BASIS, WITHOUT WARRANTIES OF ANY KIND,
  - EITHER EXPRESS OR IMPLIED, INCLUDING BUT NOT LIMITED TO NON-INFRINGEMENT,
  - MERCHANTABILITY OR FIT FOR A PARTICULAR PURPOSE.
  - See the Mulan PSL v2 for more details.
  -->

<svg width="14px" height="10px" viewBox="0 0 14 10" version="1.1" xmlns="http://www.w3.org/2000/svg" xmlns:xlink="http://www.w3.org/1999/xlink">
    <g id="资源管理" stroke="none" stroke-width="1" fill="none" fill-rule="evenodd">
        <g id="2.1-Unit-管理" transform="translate(-477.000000, -615.000000)" fill="#FA8C16">
            <g id="Icon/01-Line/1-example" transform="translate(476.000000, 612.000000)">
                <path d="M14.1546875,12.6046875 L13.5265625,8.7296875 C13.5171875,8.66875 13.4640625,8.625 13.403125,8.625 L9.315625,8.625 C9.2546875,8.625 9.2015625,8.66875 9.1921875,8.7296875 L8.5640625,12.6046875 C8.5625,12.6109375 8.5625,12.61875 8.5625,12.625 C8.5625,12.69375 8.61875,12.75 8.6875,12.75 L14.03125,12.75 C14.0375,12.75 14.0453125,12.75 14.0515625,12.7484375 C14.11875,12.7375 14.165625,12.6734375 14.1546875,12.6046875 L14.1546875,12.6046875 Z M6.8078125,8.7296875 C6.7984375,8.66875 6.7453125,8.625 6.684375,8.625 L2.596875,8.625 C2.5359375,8.625 2.4828125,8.66875 2.4734375,8.7296875 L1.8453125,12.6046875 C1.84375,12.6109375 1.84375,12.61875 1.84375,12.625 C1.84375,12.69375 1.9,12.75 1.96875,12.75 L7.3125,12.75 C7.31875,12.75 7.3265625,12.75 7.3328125,12.7484375 C7.4015625,12.7375 7.446875,12.6734375 7.4359375,12.6046875 L6.8078125,8.7296875 L6.8078125,8.7296875 Z M5.34375,7.375 L10.6875,7.375 C10.69375,7.375 10.7015625,7.375 10.7078125,7.3734375 C10.7765625,7.3625 10.821875,7.2984375 10.8109375,7.2296875 L10.1828125,3.3546875 C10.1734375,3.29375 10.1203125,3.25 10.059375,3.25 L5.971875,3.25 C5.9109375,3.25 5.8578125,3.29375 5.8484375,3.3546875 L5.2203125,7.2296875 C5.21875,7.2359375 5.21875,7.24375 5.21875,7.25 C5.21875,7.31875 5.275,7.375 5.34375,7.375 Z" id="Shape"></path>
            </g>
        </g>
    </g>
</svg>