<?xml version="1.0" encoding="UTF-8"?>
<!--
  - Copyright (c) 2023 OceanBase
  - OCP Express is licensed under Mulan PSL v2.
  - You can use this software according to the terms and conditions of the Mulan PSL v2.
  - You may obtain a copy of Mulan PSL v2 at:
  -          http://license.coscl.org.cn/MulanPSL2
  - THIS SOFTWARE IS PROVIDED ON AN "AS IS" BASIS, WITHOUT WARRANTIES OF ANY KIND,
  - EITHER EXPRESS OR IMPLIED, INCLUDING BUT NOT LIMITED TO NON-INFRINGEMENT,
  - MERCHANTABILITY OR FIT FOR A PARTICULAR PURPOSE.
  - See the Mulan PSL v2 for more details.
  -->

<svg width="14px" height="14px" viewBox="0 0 14 14" version="1.1" xmlns="http://www.w3.org/2000/svg" xmlns:xlink="http://www.w3.org/1999/xlink">
    <g id="性能监控下钻分析" stroke="none" stroke-width="1" fill="none" fill-rule="evenodd">
        <g id="1.1-集群性能监控" transform="translate(-781.000000, -418.000000)">
            <g id="编组-6备份" transform="translate(304.000000, 413.000000)">
                <g id="Icon/01-Line/fund" transform="translate(476.000000, 4.000000)">
                    <rect id="透明底图" fill="#D8D8D8" opacity="0" x="0" y="0" width="16" height="16"></rect>
                    <path d="M8.5,10.890625 C8.56903559,10.890625 8.625,10.9465894 8.625,11.015625 L8.624875,12.587 L9.33479602,11.7770826 C9.35853238,11.7499433 9.39283128,11.734375 9.42888619,11.734375 L10.5795265,11.734375 C10.6485621,11.734375 10.7045265,11.7903394 10.7045265,11.859375 C10.7045265,11.8895491 10.6936117,11.9187048 10.6737967,11.941461 L8.09834437,14.8991941 C8.05300951,14.9512581 7.9740521,14.9567132 7.92198807,14.9113783 C7.91761844,14.9075735 7.91351863,14.9034694 7.90971832,14.8990958 L5.34314611,11.9453492 C5.29786554,11.893238 5.30340291,11.8142863 5.35551417,11.7690057 C5.37815041,11.7493366 5.40710333,11.7384608 5.43709104,11.7383622 L6.5929507,11.7345631 C6.62928971,11.7344437 6.66388188,11.7501439 6.68771695,11.7775743 L7.374875,12.569 L7.375,11.015625 C7.375,10.9465894 7.43096441,10.890625 7.5,10.890625 L8.5,10.890625 Z M6.87239482,3.7087296 C6.88103427,3.72605515 6.88553125,3.74515067 6.88553125,3.7645108 L6.88553125,4.8819184 C6.88553125,4.92931337 6.85872674,4.97263185 6.81631261,4.99378189 L3.49373005,6.65060627 L8.00661811,9.01495038 L12.5195062,6.65060627 L9.2047504,4.99770362 C9.16233599,4.97655368 9.13553125,4.93323505 9.13553125,4.88583988 L9.13553125,3.76843206 C9.13553125,3.69939647 9.19149566,3.64343206 9.26053125,3.64343206 C9.27989127,3.64343206 9.29898667,3.64792899 9.31631214,3.65656834 L14.8278724,6.40491005 C14.9514336,6.4665241 15.0016516,6.61663828 14.9400376,6.74019944 C14.9165801,6.78724114 14.8788915,6.82569196 14.8323288,6.85008643 L8.12263663,10.3653347 C8.049975,10.4034025 7.96326123,10.4034025 7.89059959,10.3653347 L1.1809074,6.85008643 C1.05860444,6.78601118 1.01140156,6.63492178 1.07547682,6.51261882 C1.09987129,6.46605613 1.13832211,6.4283675 1.18536382,6.40491005 L6.70475006,3.65264723 C6.7665306,3.62184012 6.84158772,3.64694906 6.87239482,3.7087296 Z M8.5,1 C8.56903559,1 8.625,1.05596441 8.625,1.125 L8.625,7.875 C8.625,7.94403559 8.56903559,8 8.5,8 L7.5,8 C7.43096441,8 7.375,7.94403559 7.375,7.875 L7.375,1.125 C7.375,1.05596441 7.43096441,1 7.5,1 L8.5,1 Z" id="形状结合" fill="#000000" opacity="0.45"></path>
                </g>
            </g>
        </g>
    </g>
</svg>