<?xml version="1.0" encoding="UTF-8"?>
<!--
  - Copyright (c) 2023 OceanBase
  - OCP Express is licensed under Mulan PSL v2.
  - You can use this software according to the terms and conditions of the Mulan PSL v2.
  - You may obtain a copy of Mulan PSL v2 at:
  -          http://license.coscl.org.cn/MulanPSL2
  - THIS SOFTWARE IS PROVIDED ON AN "AS IS" BASIS, WITHOUT WARRANTIES OF ANY KIND,
  - EITHER EXPRESS OR IMPLIED, INCLUDING BUT NOT LIMITED TO NON-INFRINGEMENT,
  - MERCHANTABILITY OR FIT FOR A PARTICULAR PURPOSE.
  - See the Mulan PSL v2 for more details.
  -->

<svg width="88px" height="88px" viewBox="0 0 88 88" version="1.1" xmlns="http://www.w3.org/2000/svg" xmlns:xlink="http://www.w3.org/1999/xlink">
    <g id="L1-集群概览-吾笙" stroke="none" stroke-width="1" fill="none" fill-rule="evenodd">
        <g id="1.4.1-集群概览-创建集群-提交失败" transform="translate(-7.000000, -7.000000)">
            <g id="2.通用组件/彩色版/哭泣表情">
                <g id="分组" transform="translate(7.968750, 7.968750)">
                    <path d="M86.0625,43.03125 C86.0625,66.7967207 66.7968242,86.0625 43.03125,86.0625 C19.2656758,86.0625 0,66.7967207 0,43.03125 C0,19.2657793 19.2656758,0 43.03125,0 C66.7968242,0 86.0625,19.2657793 86.0625,43.03125" id="Fill-1" fill="#CCD7EE"></path>
                    <path d="M41.2697339,36.740133 C41.2697339,41.7434609 37.2138185,45.7993763 32.2104907,45.7993763 C27.2072664,45.7993763 23.151351,41.7434609 23.151351,36.740133 C23.151351,31.7368052 27.2072664,27.6808898 32.2104907,27.6808898 C37.2138185,27.6808898 41.2697339,31.7368052 41.2697339,36.740133" id="Fill-7" fill="#FFFFFF"></path>
                    <path d="M36.2368176,36.4885012 C36.2368176,38.5731607 34.5469478,40.2631341 32.4621847,40.2631341 C30.3775252,40.2631341 28.6874482,38.5731607 28.6874482,36.4885012 C28.6874482,34.4038417 30.3775252,32.7137647 32.4621847,32.7137647 C34.5469478,32.7137647 36.2368176,34.4038417 36.2368176,36.4885012" id="Fill-9" fill="#253369"></path>
                    <path d="M36.4880455,55.9936606 C36.2874401,55.9936606 36.0835207,55.9534774 35.8877829,55.8685541 C35.1227484,55.5365248 34.7717666,54.6473159 35.1036924,53.8823849 C36.5478025,50.5540135 39.1769031,48.7210169 42.5064137,48.7210169 C45.6865836,48.7210169 48.2376998,50.3295882 49.8838652,53.3729488 C50.2806227,54.106396 50.0076254,55.0226354 49.2741782,55.4192892 C48.5405238,55.8160467 47.6245951,55.5430494 47.2277341,54.8096022 C46.1107858,52.7445164 44.5664248,51.7407646 42.5064137,51.7407646 C40.3654149,51.7407646 38.8501556,52.8345144 37.8738485,55.0844637 C37.6268461,55.6536568 37.0713235,55.9936606 36.4880455,55.9936606" id="Fill-11" fill="#253369"></path>
                    <path d="M43.03125,86.0625 C57.9567245,86.0625 71.1067845,78.4632123 78.8249648,66.9231735 C78.8253791,66.9218272 78.8263111,66.9204808 78.8263111,66.9190309 C71.1554601,67.9317929 59.8915255,72.4613109 59.8915255,65.8293202 C59.8915255,59.1292872 59.6200817,43.7862387 59.6200817,43.7862387 L53.8519264,43.7862387 L53.8519264,65.1636045 C53.8519264,65.1636045 53.1569019,73.9711848 41.2697132,68.686678 C29.3825246,63.4020677 18.9120014,76.0900208 9.80346119,70.3752015 C17.6958378,79.9547552 29.6502401,86.0625 43.03125,86.0625" id="Fill-13" fill="#597EF7"></path>
                    <path d="M62.91118,36.740133 C62.91118,41.7434609 58.8552646,45.7993763 53.8519368,45.7993763 C48.8487125,45.7993763 44.7927971,41.7434609 44.7927971,36.740133 C44.7927971,31.7368052 48.8487125,27.6808898 53.8519368,27.6808898 C58.8552646,27.6808898 62.91118,31.7368052 62.91118,36.740133" id="Fill-15" fill="#FFFFFF"></path>
                    <path d="M57.375,36.4885012 C57.375,38.5731607 55.6850266,40.2631341 53.6003671,40.2631341 C51.515604,40.2631341 49.8256306,38.5731607 49.8256306,36.4885012 C49.8256306,34.4038417 51.515604,32.7137647 53.6003671,32.7137647 C55.6850266,32.7137647 57.375,34.4038417 57.375,36.4885012" id="Fill-17" fill="#253369"></path>
                </g>
            </g>
        </g>
    </g>
</svg>