<?xml version="1.0" encoding="UTF-8"?>
<!--
  - Copyright (c) 2023 OceanBase
  - OCP Express is licensed under Mulan PSL v2.
  - You can use this software according to the terms and conditions of the Mulan PSL v2.
  - You may obtain a copy of Mulan PSL v2 at:
  -          http://license.coscl.org.cn/MulanPSL2
  - THIS SOFTWARE IS PROVIDED ON AN "AS IS" BASIS, WITHOUT WARRANTIES OF ANY KIND,
  - EITHER EXPRESS OR IMPLIED, INCLUDING BUT NOT LIMITED TO NON-INFRINGEMENT,
  - MERCHANTABILITY OR FIT FOR A PARTICULAR PURPOSE.
  - See the Mulan PSL v2 for more details.
  -->

<svg width="12px" height="12px" viewBox="0 0 12 12" version="1.1" xmlns="http://www.w3.org/2000/svg" xmlns:xlink="http://www.w3.org/1999/xlink">
    <g id="SQL-耗时分布" stroke="none" stroke-width="1" fill="none" fill-rule="evenodd" opacity="0.449999988">
        <g id="2.1-租户性能监控" transform="translate(-1321.000000, -419.000000)" fill="#000000" fill-rule="nonzero">
            <g id="编组-6备份-2" transform="translate(871.000000, 413.000000)">
                <g id="编组" transform="translate(448.000000, 4.000000)">
                    <path d="M3,2.50039062 C3.06875,2.50039062 3.125,2.55664062 3.125,2.62539062 L3.125,2.62539062 L3.125,12.3753906 L13.875,12.3753906 C13.94375,12.3753906 14,12.4316406 14,12.5003906 L14,12.5003906 L14,13.3753906 C14,13.4441406 13.94375,13.5003906 13.875,13.5003906 L13.875,13.5003906 L2.125,13.5003906 C2.05625,13.5003906 2,13.4441406 2,13.3753906 L2,13.3753906 L2,2.62539062 C2,2.55664062 2.05625,2.50039062 2.125,2.50039062 L2.125,2.50039062 Z M8.78884753,7.70590721 C9.83662294,7.70590721 10.5077572,8.41064303 10.5077572,9.5459647 C10.5077572,10.1393832 10.326982,10.6174302 10.0060376,10.9275052 L9.99626919,10.9368499 L10.4256091,11.6121572 L9.5994785,11.6121572 L9.39333334,11.2977366 C9.20888767,11.3565937 9.00584244,11.3875711 8.78729757,11.3875711 C7.73177234,11.3875711 7.06373803,10.6874818 7.06528262,9.5459647 C7.06528262,8.40754529 7.74107213,7.70590721 8.78884753,7.70590721 Z M5.1967991,7.70351562 C6.01650179,7.70351562 6.58470478,8.14593705 6.59867699,8.79100605 L6.59867699,8.79100605 L5.77586937,8.79100605 C5.7556873,8.54504449 5.51971228,8.37333547 5.20766637,8.37333547 C4.89562047,8.37333547 4.68914233,8.52029364 4.68914233,8.75233285 C4.68914233,8.942605 4.84438905,9.05398382 5.21387624,9.12668943 L5.21387624,9.12668943 L5.6656442,9.21331741 C6.3564921,9.34635322 6.66698554,9.65728576 6.66698554,10.211086 C6.66698554,10.9396891 6.10964982,11.3790167 5.1921417,11.3790167 C4.3072354,11.3790167 3.7483472,10.962893 3.734375,10.2915263 L3.734375,10.2915263 L4.58357456,10.2915263 C4.6053091,10.5452225 4.85991372,10.7076499 5.22940092,10.7076499 C5.56318136,10.7076499 5.78984158,10.5467694 5.78828911,10.319371 C5.78828911,10.126005 5.63614732,10.0223608 5.23561078,9.94192052 L5.23561078,9.94192052 L4.77452803,9.85065176 C4.13335907,9.72999137 3.80423602,9.38193256 3.80423602,8.8327731 C3.80423602,8.15057783 4.35225695,7.70351562 5.1967991,7.70351562 Z M11.9280176,7.80240803 L11.9280176,10.5636769 L13.421875,10.5636769 L13.421875,11.2966063 L11.0329507,11.2966063 L11.0329507,7.80240803 L11.9280176,7.80240803 Z M8.78010705,8.43932557 C8.28733143,8.43932557 7.95933251,8.86453299 7.95777801,9.53868002 C7.95777801,10.2143733 8.28577693,10.6395807 8.77855256,10.6395807 C8.83948885,10.6395807 8.899071,10.6328461 8.95603515,10.620634 L8.96820122,10.6179338 L8.60444886,10.0582062 L9.36304352,10.0582062 L9.44387738,10.1648946 C9.5433652,10.0118199 9.5993271,9.79689689 9.5993271,9.53868002 C9.5993271,8.86762541 9.27132818,8.43932557 8.78010705,8.43932557 Z M11.3469078,2.58533839 L11.3500643,2.58838835 L11.8803943,3.11871843 C11.9291932,3.1675413 11.9291985,3.24667765 11.8804064,3.29550715 L8.61555407,6.56124761 C8.56779548,6.60904283 8.49096578,6.61007006 8.44194636,6.56433288 L7.19076563,5.31323437 L5.73299472,6.77101893 C5.68521844,6.81879646 5.60838837,6.81981336 5.55937494,6.77406974 L5.55621843,6.77101934 L5.02588835,6.24068925 C4.97709835,6.19186252 4.97709013,6.11273106 5.02586998,6.0638942 L7.101934,3.98696737 C7.14968323,3.93916279 7.22651272,3.93812992 7.27553543,3.98386357 L8.52671875,5.23496875 L11.1732877,2.58838853 C11.2210644,2.54061134 11.2978944,2.53959465 11.3469078,2.58533839 Z" id="形状结合"></path>
                </g>
            </g>
        </g>
    </g>
</svg>