<?xml version="1.0" encoding="UTF-8"?>
<!--
  - Copyright (c) 2023 OceanBase
  - OCP Express is licensed under Mulan PSL v2.
  - You can use this software according to the terms and conditions of the Mulan PSL v2.
  - You may obtain a copy of Mulan PSL v2 at:
  -          http://license.coscl.org.cn/MulanPSL2
  - THIS SOFTWARE IS PROVIDED ON AN "AS IS" BASIS, WITHOUT WARRANTIES OF ANY KIND,
  - EITHER EXPRESS OR IMPLIED, INCLUDING BUT NOT LIMITED TO NON-INFRINGEMENT,
  - MERCHANTABILITY OR FIT FOR A PARTICULAR PURPOSE.
  - See the Mulan PSL v2 for more details.
  -->

<svg width="87px" height="74px" viewBox="0 0 87 74" version="1.1" xmlns="http://www.w3.org/2000/svg" xmlns:xlink="http://www.w3.org/1999/xlink">
    <defs>
        <polygon id="path-1" points="1.10696238e-05 0.0178069553 4.35406308 0.0178069553 4.35406308 4.70486549 1.10696238e-05 4.70486549"></polygon>
        <polygon id="path-3" points="0 0.0483660666 55.5053232 0.0483660666 55.5053232 6.88547198 0 6.88547198"></polygon>
        <polygon id="path-5" points="0 0.043894823 55.5053232 0.043894823 55.5053232 48.002412 0 48.002412"></polygon>
        <polygon id="path-7" points="0 0 21.7702601 0 21.7702601 21.8192757 0 21.8192757"></polygon>
    </defs>
    <g id="L1-集群概览-吾笙" stroke="none" stroke-width="1" fill="none" fill-rule="evenodd">
        <g id="1.4-集群概览-创建集群-提交成功" transform="translate(-7.000000, -14.000000)">
            <g id="3.功能类/常用/设置成功">
                <g id="编组-7" transform="translate(7.980745, 14.165822)">
                    <path d="M82.2821177,41.0929739 L75.5522677,41.0929739 C74.7089068,41.0929739 74.0188842,40.4013976 74.0188842,39.5561378 L74.0188842,32.8111348 C74.0188842,31.965875 74.7089068,31.2742987 75.5522677,31.2742987 L82.2821177,31.2742987 C83.1254786,31.2742987 83.8155012,31.965875 83.8155012,32.8111348 L83.8155012,39.5561378 C83.8155012,40.4013976 83.1254786,41.0929739 82.2821177,41.0929739" id="Fill-1" fill="#597EF7" opacity="0.163388207"></path>
                    <g id="分组" transform="translate(14.513507, 28.001407)">
                        <mask id="mask-2" fill="white">
                            <use xlink:href="#path-1"></use>
                        </mask>
                        <g id="Clip-4"></g>
                        <path d="M3.66973894,4.70486549 L0.684298312,4.70486549 C0.307931104,4.70486549 1.10696238e-05,4.37606716 1.10696238e-05,3.97426818 L1.10696238e-05,0.748412151 C1.10696238e-05,0.346573778 0.307931104,0.0177754386 0.684298312,0.0177754386 L3.66973894,0.0177754386 C4.04610615,0.0177754386 4.35406308,0.346573778 4.35406308,0.748412151 L4.35406308,3.97426818 C4.35406308,4.37606716 4.04610615,4.70486549 3.66973894,4.70486549" id="Fill-3" fill="#FFC540" mask="url(#mask-2)"></path>
                    </g>
                    <path d="M82.3227625,53.8208861 C81.9463952,53.8208861 81.6384752,53.5147626 81.6384752,53.1406728 L81.6384752,50.1372805 C81.6384752,49.763154 81.9463952,49.4570305 82.3227625,49.4570305 L85.3082031,49.4570305 C85.6845703,49.4570305 85.9925272,49.763154 85.9925272,50.1372805 L85.9925272,53.1406728 C85.9925272,53.5147626 85.6845703,53.8208861 85.3082031,53.8208861 L82.3227625,53.8208861 Z" id="Fill-5" fill="#FF7A46"></path>
                    <path d="M3.74827086,24.001206 C1.68672189,24.001206 0,22.3106863 0,20.2444955 L0,3.7567105 C0,1.69051973 1.68672189,0 3.74827086,0 L20.1990152,0 C22.2605642,0 23.9472861,1.69051973 23.9472861,3.7567105 L23.9472861,20.2444955 C23.9472861,22.3106863 22.2605642,24.001206 20.1990152,24.001206 L3.74827086,24.001206 Z" id="Fill-7" fill="#ADC6FF" opacity="0.218773251"></path>
                    <g id="分组-copy" transform="translate(18.504721, 13.009349)">
                        <g id="分组" transform="translate(0.000000, 0.082218)">
                            <mask id="mask-4" fill="white">
                                <use xlink:href="#path-3"></use>
                            </mask>
                            <g id="Clip-2"></g>
                            <path d="M55.5053232,6.88547198 L-4.88394397e-05,6.88547198 L-4.88394397e-05,1.97655724 C-4.88394397e-05,0.911700355 0.874665526,0.0483419639 1.95352875,0.0483419639 L53.5517456,0.0483419639 C54.6306902,0.0483419639 55.5053232,0.911700355 55.5053232,1.97655724 L55.5053232,6.88547198 Z" id="Fill-1" fill="#393D65" mask="url(#mask-4)"></path>
                        </g>
                        <g id="分组" transform="translate(0.000000, 6.264347)">
                            <mask id="mask-6" fill="white">
                                <use xlink:href="#path-5"></use>
                            </mask>
                            <g id="Clip-4"></g>
                            <path d="M53.5517456,48.002412 L1.95352875,48.002412 C0.874665526,48.002412 -4.88394397e-05,47.1369993 -4.88394397e-05,46.0694289 L-4.88394397e-05,0.043894823 L55.5053232,0.043894823 L55.5053232,46.0694289 C55.5053232,47.1369993 54.6306902,48.002412 53.5517456,48.002412" id="Fill-3" fill="#ADC6FF" mask="url(#mask-6)"></path>
                        </g>
                        <path d="M4.71688968,3.17328235 C4.71688968,3.87618219 4.14827858,4.44607358 3.44687353,4.44607358 C2.74555279,4.44607358 2.17702601,3.87618219 2.17702601,3.17328235 C2.17702601,2.47038251 2.74555279,1.90049112 3.44687353,1.90049112 C4.14827858,1.90049112 4.71688968,2.47038251 4.71688968,3.17328235" id="Fill-5" fill="#FF7A46"></path>
                        <path d="M9.07094169,3.17328235 C9.07094169,3.87618219 8.50239604,4.44607358 7.8009677,4.44607358 C7.09962367,4.44607358 6.53107802,3.87618219 6.53107802,3.17328235 C6.53107802,2.47038251 7.09962367,1.90049112 7.8009677,1.90049112 C8.50239604,1.90049112 9.07094169,2.47038251 9.07094169,3.17328235" id="Fill-7" fill="#FFC53D"></path>
                        <path d="M13.7878314,3.17328235 C13.7878314,3.87618219 13.2192857,4.44607358 12.5178574,4.44607358 C11.8165133,4.44607358 11.2479677,3.87618219 11.2479677,3.17328235 C11.2479677,2.47038251 11.8165133,1.90049112 12.5178574,1.90049112 C13.2192857,1.90049112 13.7878314,2.47038251 13.7878314,3.17328235" id="Fill-9" fill="#BAE637"></path>
                        <g id="分组-2" transform="translate(5.442565, 11.355512)">
                            <path d="M0.625854899,36.3172268 C0.289617183,36.3172268 0.0171421291,36.0464615 0.0171421291,35.7125025 L0.0171421291,0.655724891 C0.0171421291,0.32176587 0.289617183,0.0510005424 0.625854899,0.0510005424 L44.6753545,0.0510005424 C45.0115161,0.0510005424 45.2840673,0.32176587 45.2840673,0.655724891 L45.2840673,35.7125025 C45.2840673,36.0464615 45.0115161,36.3172268 44.6753545,36.3172268 L0.625854899,36.3172268 Z" id="Fill-11" fill="#FFFFFF"></path>
                            <path d="M30.2273688,20.4025703 C27.5838721,20.4025703 25.4359965,18.2581393 25.4359965,15.6060465 C25.4268412,12.971005 27.5679411,10.8275438 30.2183467,10.818412 C30.2213541,10.818412 30.2243615,10.818412 30.2273688,10.818412 C32.8693213,10.818412 35.0172487,12.9627622 35.0172487,15.6134812 C35.012697,18.2581393 32.8693213,20.4010349 30.2273688,20.4025703 M42.1485857,13.9379223 C42.0555192,13.4153101 41.5523095,12.880657 41.026585,12.7657422 L40.6346488,12.6761215 C39.6828502,12.3891576 38.8770319,11.7520347 38.3816252,10.894537 C37.8811791,10.0283925 37.7328416,9.0047451 37.9670929,8.03330235 L38.0902334,7.66601116 C38.2479995,7.15673305 38.0436595,6.45342498 37.6335977,6.10552871 C37.6335977,6.10552871 37.2656393,5.79488684 36.232316,5.19752349 C35.1943597,4.60323101 34.7498348,4.43740449 34.7498348,4.43740449 C34.245162,4.25226388 33.5392379,4.42996978 33.1697352,4.82118135 L32.8978508,5.11242831 C32.1796533,5.79561415 31.2228153,6.17510797 30.2289132,6.17122899 C29.2294027,6.1739766 28.2677691,5.7912503 27.5463204,5.10345816 L27.2850025,4.81972673 C26.9214333,4.42851516 26.2110387,4.25525393 25.7048217,4.43740449 C25.7048217,4.43740449 25.2542007,4.60323101 24.21787,5.19752349 C23.1800762,5.79933151 22.815044,6.10997338 22.815044,6.10997338 C22.4064452,6.4548796 22.2022677,7.15083376 22.3599525,7.66601116 L22.4726078,8.03782783 C22.7042582,9.00789677 22.5560832,10.0292006 22.0579942,10.894537 C21.5634003,11.7590653 20.7509983,12.3991783 19.791478,12.6805662 L19.4145788,12.7657422 C18.8978765,12.8851825 18.3887333,13.4123201 18.2925781,13.9379223 C18.2925781,13.9379223 18.2069081,14.4098652 18.2069081,15.6075011 C18.2069081,16.805137 18.2925781,17.2755445 18.2925781,17.2755445 C18.3857259,17.8042175 18.8888543,18.3328098 19.4145788,18.4478054 L19.7825371,18.5329006 C20.7437643,18.8151774 21.5578732,19.4573107 22.0520607,20.3249099 C22.5686817,21.2253995 22.6934478,22.2497743 22.466593,23.1861445 L22.3599525,23.548991 C22.2022677,24.0581884 22.4064452,24.7615772 22.816507,25.1095543 C22.816507,25.1095543 23.1845467,25.4201154 24.21787,26.0174787 C25.255745,26.6148421 25.7018143,26.7775977 25.7018143,26.7775977 C26.2050239,26.9627383 26.9124924,26.7850324 27.2819951,26.3938209 L27.5402243,26.1160695 C29.0422942,24.6869068 31.4094361,24.6884422 32.9098804,26.1189788 L33.1682722,26.3982655 C33.5316788,26.7880225 34.2422359,26.9627383 34.7482904,26.7805878 C34.7482904,26.7805878 35.1989114,26.6148421 36.2368677,26.0204688 C37.2731984,25.4231054 37.6366051,25.1125444 37.6366051,25.1125444 C38.0466669,24.7690928 38.2510069,24.0671585 38.0932408,23.5519811 L37.9806668,23.175639 C37.7479598,22.2090449 37.8963786,21.1906503 38.3951178,20.3294353 C38.8922315,19.4645838 39.7048773,18.8229354 40.6646414,18.5374261 L41.0341441,18.4522501 C41.5508464,18.3328098 42.0599896,17.8056722 42.1561449,17.2799892 C42.1561449,17.2799892 42.2418149,16.8081271 42.2418149,15.6119458 C42.2327114,14.4128552 42.1485857,13.9379223 42.1485857,13.9379223" id="Fill-13" fill="#597EF7"></path>
                            <path d="M13.6592778,26.4632813 C12.4824125,27.1286076 10.9802613,26.7144454 10.3049801,25.53378 C9.63010528,24.3629737 10.0374848,22.8698886 11.2151629,22.1988246 L11.2191457,22.1965618 C12.3952794,21.5316395 13.8975119,21.9457209 14.5723054,23.1258206 C15.2436852,24.3043041 14.8350864,25.7977125 13.6592778,26.4632813 M17.3205732,20.5850869 C17.1459819,20.3758643 16.7859891,20.2644243 16.5226392,20.3455597 L16.3252893,20.4043102 C15.8285008,20.5161542 15.3075719,20.4352612 14.8687367,20.1782786 C14.425431,19.9186292 14.098682,19.5001839 13.9556277,19.0087653 L13.9170193,18.8142505 C13.8575217,18.5478936 13.5875068,18.2861431 13.3164352,18.2344234 C13.3164352,18.2344234 13.0734868,18.1887645 12.461442,18.182946 C11.8480155,18.1795519 11.6079119,18.2176144 11.6079119,18.2176144 C11.3361088,18.2622227 11.066988,18.5189629 11.0022071,18.7862087 L10.9552268,18.9841984 C10.809409,19.4691521 10.4801403,19.8788696 10.036672,20.1272861 C9.59239097,20.3800665 9.06682906,20.4516661 8.57060954,20.3270538 L8.38195671,20.2665255 C8.12047625,20.1838546 7.76015829,20.2855163 7.58125916,20.4940116 C7.58125916,20.4940116 7.42276152,20.6812534 7.1127564,21.2066131 C6.80388921,21.735771 6.72049507,21.965924 6.72049507,21.965924 C6.62653442,22.2222601 6.71269211,22.5834904 6.91410603,22.7731565 L7.0588672,22.9103755 C7.40902506,23.2838892 7.60304242,23.7758735 7.60174193,24.2864446 C7.60157937,24.7958035 7.40284772,25.2852019 7.04732532,25.6519274 L6.90118237,25.7847825 C6.70155663,25.9679837 6.60914032,26.3308302 6.70017486,26.589025 C6.70017486,26.589025 6.78226851,26.8206326 7.08715294,27.3538311 C7.39211865,27.8869488 7.54996604,28.074837 7.54996604,28.074837 C7.72602033,28.2867264 8.08455012,28.3954996 8.34781876,28.3143642 L8.53338291,28.2596544 C9.0331788,28.1433657 9.55914711,28.2243395 9.9999331,28.4862516 C10.4592511,28.7570531 10.7755149,29.1818017 10.9129608,29.6556841 L10.9579091,29.8440572 C11.0173254,30.110414 11.2873403,30.3721645 11.5584932,30.4238843 C11.5584932,30.4238843 11.8014416,30.4695432 12.4135676,30.4753616 C13.0276444,30.4801296 13.267748,30.4402892 13.267748,30.4402892 C13.5389009,30.3961657 13.8085094,30.1389407 13.8734528,29.8717758 L13.9177508,29.6830794 C14.222554,28.668887 15.2766852,28.0737864 16.3089519,28.3330318 L16.495085,28.3923479 C16.756159,28.4743722 17.1168834,28.373357 17.2957825,28.1648617 C17.2957825,28.1648617 17.4541989,27.9777008 17.7649355,27.4518562 C18.0742091,26.9251227 18.156953,26.6953737 18.156953,26.6953737 C18.2520516,26.4392801 18.1643496,26.075383 17.9629357,25.8857977 L17.8169553,25.7465584 C17.4673664,25.3748225 17.2740806,24.8840504 17.2768441,24.3750955 C17.2779008,23.8650093 17.4763886,23.3748028 17.8309356,23.0061379 L17.973746,22.875303 C18.1733718,22.6920211 18.2658694,22.3292554 18.1748348,22.0709798 C18.1748348,22.0709798 18.0928224,21.8393722 17.7882631,21.306901 C17.4789083,20.7753187 17.3205732,20.5850869 17.3205732,20.5850869" id="Fill-15" fill="#9254DE"></path>
                            <path d="M11.6824138,6.26415314 L4.9454514,6.26415314 C4.50539693,6.26415314 4.14532282,5.90615535 4.14532282,5.46863842 L4.14532282,5.40188759 C4.14532282,4.96428984 4.50539693,4.60629206 4.9454514,4.60629206 L11.6824138,4.60629206 C12.1224682,4.60629206 12.4825424,4.96428984 12.4825424,5.40188759 L12.4825424,5.46863842 C12.4825424,5.90615535 12.1224682,6.26415314 11.6824138,6.26415314" id="Fill-17" fill="#FF7A46"></path>
                            <path d="M9.79791752,10.1431359 L5.62934838,10.1431359 C5.16889243,10.1431359 4.79556953,9.77204657 4.79556953,9.31424579 C4.79556953,8.85644501 5.16889243,8.48527484 5.62934838,8.48527484 L9.79791752,8.48527484 C10.2583735,8.48527484 10.6316151,8.85644501 10.6316151,9.31424579 C10.6316151,9.77204657 10.2583735,10.1431359 9.79791752,10.1431359" id="Fill-19" fill="#FF7A46"></path>
                        </g>
                    </g>
                    <g id="分组" transform="translate(59.868215, 52.002613)">
                        <g>
                            <mask id="mask-8" fill="white">
                                <use xlink:href="#path-7"></use>
                            </mask>
                            <g id="Clip-2"></g>
                            <path d="M10.88513,-2.4351873e-06 C4.87342822,-2.4351873e-06 0,4.88439883 0,10.9096366 C0,16.9348501 4.87342822,21.8192757 10.88513,21.8192757 C16.8968318,21.8192757 21.7702601,16.9348501 21.7702601,10.9096366 C21.7702601,4.88439883 16.8968318,-2.4351873e-06 10.88513,-2.4351873e-06" id="Fill-1" fill="#8BBC06" mask="url(#mask-8)"></path>
                        </g>
                        <path d="M9.13118813,14.615568 L8.44396711,13.9267996 L15.1033585,7.22806205 C15.3310715,6.99981194 15.7002912,6.99981194 15.9280285,7.22806205 L16.2029267,7.50355479 C16.4306397,7.73180489 16.4306397,8.10185595 16.2029267,8.33010606 L9.95585822,14.615568 C9.72814518,14.8438181 9.35892546,14.8438181 9.13118813,14.615568" id="Fill-3" fill="#FFFFFF"></path>
                        <path d="M10.6418377,13.9267947 L9.95461663,14.6155631 C9.7268793,14.8438132 9.35765958,14.8438132 9.12994655,14.6155631 L6.39345401,11.8729091 C6.16571668,11.6446833 6.16571668,11.2746323 6.39345401,11.0463822 L6.66832784,10.7708894 C6.89606517,10.5426393 7.2652849,10.5426393 7.49302223,10.7708894 L10.6418377,13.9267947 Z" id="Fill-5" fill="#FFFFFF"></path>
                    </g>
                </g>
            </g>
        </g>
    </g>
</svg>