<?xml version="1.0" encoding="UTF-8"?>
<!--
  - Copyright (c) 2023 OceanBase
  - OCP Express is licensed under Mulan PSL v2.
  - You can use this software according to the terms and conditions of the Mulan PSL v2.
  - You may obtain a copy of Mulan PSL v2 at:
  -          http://license.coscl.org.cn/MulanPSL2
  - THIS SOFTWARE IS PROVIDED ON AN "AS IS" BASIS, WITHOUT WARRANTIES OF ANY KIND,
  - EITHER EXPRESS OR IMPLIED, INCLUDING BUT NOT LIMITED TO NON-INFRINGEMENT,
  - MERCHANTABILITY OR FIT FOR A PARTICULAR PURPOSE.
  - See the Mulan PSL v2 for more details.
  -->

<svg width="211px" height="24px" viewBox="0 0 211 24" version="1.1" xmlns="http://www.w3.org/2000/svg" xmlns:xlink="http://www.w3.org/1999/xlink">
    <title>编组 3</title>
    <defs>
        <polygon id="path-1" points="0 23.4705502 151.271831 23.4705502 151.271831 0 0 0"></polygon>
        <linearGradient x1="100%" y1="0%" x2="1.97876229%" y2="0%" id="linearGradient-3">
            <stop stop-color="#008F57" offset="0%"></stop>
            <stop stop-color="#2A66FF" offset="100%"></stop>
        </linearGradient>
    </defs>
    <g id="页面-2" stroke="none" stroke-width="1" fill="none" fill-rule="evenodd">
        <g id="1.6仪表盘-参数管理" transform="translate(-24.000000, -15.000000)">
            <g id="编组-3" transform="translate(24.000000, 15.000000)">
                <g id="Backstage/Logo" transform="translate(0.000000, 0.039082)">
                    <g id="编组" transform="translate(0.000000, 0.000000)">
                        <polygon id="Fill-1" fill="#006DFF" points="0.0347431391 16.3382047 12.3401129 23.4706521 24.6464985 16.3463549 20.44075 13.8951811 12.3401129 18.5815484 4.23033275 13.8809182"></polygon>
                        <path d="M12.3082142,0 L0.000812705009,7.11614694 L12.3071983,14.2516506 L24.6145998,7.12939102 L12.3082142,0 Z M7.73979616,7.12429714 L12.3092301,4.47955592 L16.8756163,7.12633469 L12.3061824,9.77209469 L7.73979616,7.12429714 Z" id="Fill-2" fill="#006DFF"></path>
                        <polygon id="Fill-3" fill="#040D2B" points="0.000914293135 7.12246335 3.86532661 9.36478824 7.73278658 7.12653845 3.86634249 4.88726988"></polygon>
                        <g transform="translate(0.000000, 0.000204)">
                            <path d="M35.4183954,7.84355265 C35.1044881,7.84355265 34.8271525,7.90060408 34.5843569,8.01368816 C34.3405454,8.12677224 34.138385,8.27653224 33.9768599,8.45991184 C33.8691765,8.58012735 33.7767313,8.71256816 33.7015561,8.85927184 C33.625365,9.00597551 33.5664439,9.19750531 33.522761,9.43488 C33.480094,9.67429224 33.4506334,9.97483102 33.4333634,10.3375151 C33.4171093,10.701218 33.4089823,11.1586482 33.4089823,11.7108245 C33.4089823,12.2630008 33.4171093,12.7214498 33.4333634,13.0841339 C33.4506334,13.446818 33.480094,13.7453192 33.522761,13.9776 C33.5664439,14.2108996 33.625365,14.4003918 33.7015561,14.5460767 C33.7767313,14.6927804 33.8691765,14.82624 33.9768599,14.9454367 C34.138385,15.1288163 34.3405454,15.2806139 34.5843569,15.3998106 C34.8271525,15.5190073 35.1044881,15.5791151 35.4183954,15.5791151 C35.7323027,15.5791151 36.0106542,15.5190073 36.2534498,15.3998106 C36.4972613,15.2806139 36.6994217,15.1288163 36.8609468,14.9454367 C36.9686302,14.82624 37.0600595,14.6927804 37.1362506,14.5460767 C37.2124417,14.4003918 37.2713628,14.2108996 37.3140299,13.9776 C37.3577127,13.7453192 37.3871733,13.446818 37.4034274,13.0841339 C37.4206974,12.7214498 37.4288244,12.2630008 37.4288244,11.7108245 C37.4288244,11.1586482 37.4206974,10.701218 37.4034274,10.3375151 C37.3871733,9.97483102 37.3577127,9.67429224 37.3140299,9.43488 C37.2713628,9.19750531 37.2124417,9.00597551 37.1362506,8.85927184 C37.0600595,8.71256816 36.9686302,8.58012735 36.8609468,8.45991184 C36.6994217,8.27653224 36.4972613,8.12677224 36.2534498,8.01368816 C36.0106542,7.90060408 35.7323027,7.84355265 35.4183954,7.84355265 M35.4183954,5.82739592 C36.0878612,5.82739592 36.670977,5.93334857 37.1687588,6.14525388 C37.6655248,6.35614041 38.1135284,6.65667918 38.5137856,7.0468702 C38.8053435,7.32907102 39.0298533,7.62655347 39.186299,7.9413551 C39.3427447,8.25513796 39.4565234,8.59846531 39.5266192,8.97235592 C39.5967151,9.34726531 39.6393821,9.75783184 39.656652,10.2071118 C39.6718903,10.6574106 39.6800173,11.1586482 39.6800173,11.7108245 C39.6800173,12.2630008 39.6718903,12.7642384 39.656652,13.2135184 C39.6393821,13.6638171 39.5967151,14.0754024 39.5266192,14.4482743 C39.4565234,14.8231837 39.3427447,15.166511 39.186299,15.4813127 C39.0298533,15.7961143 38.8053435,16.0935967 38.5137856,16.3747788 C38.1135284,16.7649698 37.6655248,17.0655086 37.1687588,17.2763951 C36.670977,17.4883004 36.0878612,17.5932343 35.4183954,17.5932343 C34.7489297,17.5932343 34.1658138,17.4883004 33.668032,17.2763951 C33.1712661,17.0655086 32.7232624,16.7649698 32.3240211,16.3747788 C32.0324632,16.0823902 31.8069375,15.7787951 31.6515077,15.4639935 C31.495062,15.1512294 31.3802674,14.8068833 31.3111875,14.4329927 C31.2410917,14.059102 31.1974088,13.6495543 31.1811547,13.2063869 C31.1649006,12.761182 31.1577894,12.2630008 31.1577894,11.7108245 C31.1577894,11.1586482 31.1649006,10.6604669 31.1811547,10.215262 C31.1974088,9.77209469 31.2410917,9.36254694 31.3111875,8.98865633 C31.3802674,8.61476571 31.495062,8.27143837 31.6515077,7.95663673 C31.8069375,7.64285388 32.0324632,7.33925878 32.3240211,7.0468702 C32.7232624,6.65667918 33.1712661,6.35614041 33.668032,6.14525388 C34.1658138,5.93334857 34.7489297,5.82739592 35.4183954,5.82739592" id="Fill-4" fill="#050D29"></path>
                            <path d="M46.3803638,9.20810057 C46.8293833,9.39249894 47.242847,9.67877486 47.6207548,10.0689659 L46.1782034,11.5003455 C45.9618207,11.2609332 45.7545809,11.0907977 45.5544523,10.9879014 C45.3553396,10.8850051 45.1145757,10.8330475 44.8331766,10.8330475 C44.5741269,10.8330475 44.3465695,10.8799112 44.1525362,10.971601 C43.9585028,11.0643096 43.785803,11.2018442 43.6344367,11.3852238 C43.4718957,11.5910165 43.3530376,11.8406165 43.2778624,12.1340238 C43.2026872,12.4264124 43.1640837,12.7992842 43.1640837,13.2546769 C43.1640837,13.7090508 43.2026872,14.0870165 43.2778624,14.3844989 C43.3530376,14.6830002 43.4718957,14.9346377 43.6344367,15.1404304 C43.785803,15.32381 43.9585028,15.4623634 44.1525362,15.5540532 C44.3465695,15.6467618 44.5741269,15.6926067 44.8331766,15.6926067 C45.1145757,15.6926067 45.3553396,15.6386116 45.5544523,15.5306214 C45.7545809,15.4216124 45.9618207,15.2535144 46.1782034,15.0253087 L47.6207548,16.4393691 C47.242847,16.8295602 46.8293833,17.1199112 46.3803638,17.3094034 C45.9323601,17.4988957 45.4162924,17.5936418 44.8331766,17.5936418 C44.4126018,17.5936418 43.9767887,17.5284402 43.5298009,17.3990557 C43.0807814,17.2686524 42.6723972,17.0384091 42.305664,16.7083259 C41.937915,16.3782426 41.63823,15.9330377 41.4066091,15.3747487 C41.1739723,14.8174785 41.0581618,14.1104483 41.0581618,13.2546769 C41.0581618,12.3989055 41.1739723,11.6918753 41.4066091,11.1335863 C41.63823,10.5763161 41.937915,10.1351863 42.305664,9.80917812 C42.6723972,9.48418873 43.0807814,9.2570018 43.5298009,9.12659853 C43.9767887,8.99619527 44.4126018,8.93201241 44.8331766,8.93201241 C45.4162924,8.93201241 45.9323601,9.02472098 46.3803638,9.20810057 Z" id="Fill-6" fill="#050D29"></path>
                            <path d="M51.8659194,10.6869551 C51.4991863,10.6869551 51.1995013,10.7715135 50.9668645,10.9385927 C50.7342277,11.1066906 50.5584802,11.3155396 50.440638,11.5641208 C50.363431,11.7169371 50.3187322,11.8595657 50.3024781,11.9950629 C50.286224,12.13056 50.2730176,12.2905078 50.2618429,12.4749061 L53.4537418,12.4749061 C53.443583,12.2905078 53.4293607,12.13056 53.4131066,11.9950629 C53.3978683,11.8595657 53.3511378,11.7169371 53.2759626,11.5641208 C53.1571045,11.3155396 52.981357,11.1066906 52.7487202,10.9385927 C52.5170993,10.7715135 52.2224937,10.6869551 51.8659194,10.6869551 M51.8659194,8.9316049 C52.4490352,8.9316049 52.9701823,9.03246367 53.4293607,9.23214367 C53.888539,9.43386122 54.2745739,9.71504327 54.5884812,10.0777273 C54.9013726,10.4414302 55.1401047,10.8744098 55.3016298,11.3776849 C55.4631549,11.8819788 55.5444254,12.4310988 55.5444254,13.0270824 L55.5444254,13.9215673 L50.2618429,13.9215673 C50.2618429,14.4737437 50.4182886,14.92608 50.7321959,15.2775576 C51.0440715,15.6300539 51.5042657,15.8052833 52.108715,15.8052833 C52.5729728,15.8052833 52.9417377,15.7380441 53.2109462,15.6025469 C53.4811706,15.4670498 53.7463156,15.2694073 54.0043495,15.0096196 L55.3016298,16.2616947 C55.0852471,16.4786939 54.8688644,16.6702237 54.6534976,16.8373029 C54.4371149,17.0054008 54.2024463,17.1470106 53.948476,17.2600947 C53.6945057,17.3731788 53.4161542,17.4577371 53.1144375,17.5117322 C52.8117049,17.5667461 52.4713846,17.5932343 52.0934768,17.5932343 C51.5855362,17.5932343 51.098929,17.5290514 50.6346713,17.3986482 C50.1693977,17.2682449 49.7539023,17.0380016 49.3871691,16.7079184 C49.0194201,16.3778351 48.7278622,15.9326302 48.5114795,15.37536 C48.2950968,14.8180898 48.1874134,14.1100408 48.1874134,13.2552882 C48.1874134,12.561502 48.2768109,11.9461616 48.455606,11.4102857 C48.6333852,10.8744098 48.8843079,10.4210547 49.208374,10.0532767 C49.5324401,9.68549878 49.918475,9.40533551 50.3664787,9.21686204 C50.8154982,9.02635102 51.3153118,8.9316049 51.8659194,8.9316049" id="Fill-8" fill="#050D29"></path>
                            <path d="M59.7578946,13.9213636 C58.9258878,13.9213636 58.5093765,14.2453342 58.5093765,14.8963318 C58.5093765,15.1887203 58.6119805,15.4220199 58.8171885,15.5952118 C59.0223965,15.7673848 59.3474785,15.8539807 59.7893869,15.8539807 C60.0494525,15.8539807 60.275994,15.8305489 60.4700273,15.7816477 C60.6650765,15.7327464 60.8540304,15.6216999 61.037905,15.4485081 C61.1567631,15.3405179 61.2400653,15.2019644 61.2888276,15.0338664 C61.3375899,14.8667873 61.3619711,14.6467318 61.3619711,14.3757375 L61.3619711,13.9213636 L59.7578946,13.9213636 Z M59.8706574,8.93241992 C62.269153,8.93241992 63.4678929,9.92878237 63.4678929,11.9215073 L63.4678929,17.4962469 L61.4107334,17.4962469 L61.4107334,16.764766 C61.1293343,17.0459481 60.8357446,17.2527595 60.5269167,17.382144 C60.2191047,17.5115285 59.8218951,17.5777489 59.3363038,17.5777489 C58.3966137,17.5777489 57.6773697,17.3281489 57.1816197,16.8289489 C56.9540623,16.5915742 56.7813625,16.3103922 56.6625044,15.984384 C56.5436463,15.6593946 56.4837093,15.3079171 56.4837093,14.9279138 C56.4837093,14.5927367 56.5436463,14.2758975 56.6625044,13.978415 C56.7813625,13.6799138 56.9591417,13.420126 57.1968579,13.198033 C57.4345741,12.9759399 57.7373067,12.798673 58.1050558,12.6692885 C58.4717889,12.539904 58.9035384,12.4747024 59.4003044,12.4747024 L61.3619711,12.4747024 L61.3619711,12.0519105 C61.3619711,11.5863301 61.2400653,11.2480967 60.9972697,11.0361913 C60.7534582,10.8253048 60.3511692,10.7193522 59.7893869,10.7193522 C59.4114791,10.7193522 59.103667,10.7764036 58.8659508,10.8894877 C58.6292505,11.0046093 58.3966137,11.1900264 58.1700722,11.450833 L56.8402836,10.134575 C57.2506996,9.67918237 57.683465,9.36539951 58.1365481,9.1911889 C58.5916629,9.01901584 59.1686834,8.93241992 59.8706574,8.93241992 L59.8706574,8.93241992 Z" id="Fill-10" fill="#050D29"></path>
                            <path d="M69.4960308,8.93201241 C70.349371,8.93201241 71.0137574,9.18161241 71.4891898,9.67877486 C71.8356053,10.0261773 72.0641786,10.3970116 72.1789732,10.7922965 C72.291736,11.1886002 72.3486253,11.6195422 72.3486253,12.0851226 L72.3486253,17.4958393 L70.2416876,17.4958393 L70.2416876,12.3775112 C70.2416876,12.0851226 70.2010523,11.8406165 70.1197818,11.6460304 C70.0395272,11.4514442 69.9338756,11.293534 69.8048587,11.1743373 C69.6748259,11.0551406 69.5254913,10.9685447 69.3578709,10.9145496 C69.1912664,10.8605544 69.0205983,10.8330475 68.8478985,10.8330475 C68.6751987,10.8330475 68.5045306,10.8605544 68.3369102,10.9145496 C68.1692898,10.9685447 68.0189394,11.0551406 67.8838272,11.1743373 C67.748715,11.293534 67.6410316,11.4514442 67.5597611,11.6460304 C67.4795064,11.8406165 67.4388712,12.0851226 67.4388712,12.3775112 L67.4388712,17.4958393 L65.3319335,17.4958393 L65.3319335,9.02981486 L67.3901089,9.02981486 L67.3901089,9.80917812 C67.6704921,9.51678955 67.9945582,9.29775282 68.3623073,9.15206792 C68.7290404,9.00536424 69.1069482,8.93201241 69.4960308,8.93201241" id="Fill-12" fill="#050D29"></path>
                            <path d="M76.626095,12.6369933 L76.626095,15.4814145 L78.9920824,15.4814145 C79.5000231,15.4814145 79.8779309,15.3459174 80.1258059,15.0749231 C80.3746968,14.8039288 80.4996502,14.462639 80.4996502,14.0510537 C80.4996502,13.6496562 80.3746968,13.314479 80.1258059,13.042466 C79.8779309,12.7724904 79.5000231,12.6369933 78.9920824,12.6369933 L76.626095,12.6369933 Z M76.626095,7.94145698 L76.626095,10.6218553 L78.8468114,10.6218553 C79.3324027,10.6218553 79.6991358,10.4996023 79.9490426,10.2561149 C80.1969176,10.0126276 80.3208551,9.68560065 80.3208551,9.27299657 C80.3208551,8.8726178 80.1969176,8.54966596 79.9490426,8.30617861 C79.6991358,8.06269127 79.3324027,7.94145698 78.8468114,7.94145698 L76.626095,7.94145698 Z M78.9920824,5.92530024 C80.1369806,5.92530024 81.0197814,6.22074514 81.6415008,6.81061616 C82.2632201,7.40150596 82.5730639,8.1900382 82.5730639,9.1762129 C82.5730639,9.50120229 82.5273492,9.79359086 82.4359199,10.0533786 C82.3434747,10.3131664 82.2256325,10.5434096 82.0793456,10.7441084 C81.9340746,10.9448072 81.776613,11.1129051 81.6089926,11.2484023 C81.4413722,11.3838994 81.2879741,11.4888333 81.1467666,11.5642227 C81.3194664,11.6508186 81.5043568,11.7628839 81.6983901,11.8973623 C81.8934393,12.0328594 82.0651233,12.2040137 82.2164896,12.4087876 C82.3678559,12.615599 82.494841,12.8621427 82.597445,13.1494374 C82.700049,13.4357133 82.751859,13.7749656 82.751859,14.1651566 C82.751859,14.7061264 82.6624614,15.1829133 82.4846822,15.5944986 C82.3058871,16.0071027 82.0600438,16.3524676 81.7471524,16.6346684 C81.4332451,16.9168692 81.0604167,17.1297933 80.6286671,17.276497 C80.1969176,17.4221819 79.7214852,17.4965525 79.2023699,17.4965525 L74.3738862,17.4965525 L74.3738862,5.92530024 L78.9920824,5.92530024 Z" id="Fill-14" fill="#050D29"></path>
                            <path d="M87.1430057,13.9213636 C86.310999,13.9213636 85.8944877,14.2453342 85.8944877,14.8963318 C85.8944877,15.1887203 85.9981076,15.4220199 86.2022997,15.5952118 C86.4075077,15.7673848 86.7325897,15.8539807 87.1755139,15.8539807 C87.4345637,15.8539807 87.6621211,15.8305489 87.8561544,15.7816477 C88.0512036,15.7327464 88.2391416,15.6216999 88.4230161,15.4485081 C88.5418742,15.3405179 88.6251765,15.2019644 88.6739388,15.0338664 C88.7227011,14.8667873 88.7470822,14.6467318 88.7470822,14.3757375 L88.7470822,13.9213636 L87.1430057,13.9213636 Z M87.2557686,8.93241992 C89.6552801,8.93241992 90.8530041,9.92878237 90.8530041,11.9215073 L90.8530041,17.4962469 L88.7958445,17.4962469 L88.7958445,16.764766 C88.5154613,17.0459481 88.2208558,17.2527595 87.9130437,17.382144 C87.6042158,17.5115285 87.2070063,17.5777489 86.721415,17.5777489 C85.7817248,17.5777489 85.0624809,17.3281489 84.5667309,16.8289489 C84.3391735,16.5915742 84.1664736,16.3103922 84.0476155,15.984384 C83.9287574,15.6593946 83.8688204,15.3079171 83.8688204,14.9279138 C83.8688204,14.5927367 83.9287574,14.2758975 84.0476155,13.978415 C84.1664736,13.6799138 84.3442529,13.420126 84.5819691,13.198033 C84.8196853,12.9759399 85.1224179,12.798673 85.4901669,12.6692885 C85.8569001,12.539904 86.2896655,12.4747024 86.7864314,12.4747024 L88.7470822,12.4747024 L88.7470822,12.0519105 C88.7470822,11.5863301 88.6251765,11.2480967 88.3823809,11.0361913 C88.1385694,10.8253048 87.7372963,10.7193522 87.1755139,10.7193522 C86.7965902,10.7193522 86.4887782,10.7764036 86.251062,10.8894877 C86.0143617,11.0046093 85.7817248,11.1900264 85.5551833,11.450833 L84.2264106,10.134575 C84.6358108,9.67918237 85.0685762,9.36539951 85.5216592,9.1911889 C85.976774,9.01901584 86.5537946,8.93241992 87.2557686,8.93241992 L87.2557686,8.93241992 Z" id="Fill-16" fill="#050D29"></path>
                            <path d="M95.5855885,8.93201241 C96.2550543,8.93201241 96.8574719,9.00230792 97.3918254,9.14289894 C97.9271949,9.28450873 98.3995796,9.54429649 98.8099957,9.92328098 L97.5127153,11.2395389 C97.2648403,11.0235585 96.9702347,10.8737985 96.6299145,10.7922965 C96.2895943,10.7118132 95.9309882,10.6710622 95.5530803,10.6710622 C95.1314896,10.6710622 94.8257094,10.7515455 94.6367555,10.9145496 C94.4478015,11.0765349 94.3533246,11.2670459 94.3533246,11.4830263 C94.3533246,11.7000255 94.4213886,11.8681234 94.5554849,11.9873202 C94.6905972,12.1065169 94.9151069,12.1819063 95.2279983,12.2145071 L96.5577869,12.3449104 C97.3999525,12.4315063 98.028783,12.6862002 98.4452943,13.108992 C98.8618056,13.5317838 99.0690454,14.1053544 99.0690454,14.8307226 C99.0690454,15.2973218 98.9776161,15.7027944 98.7937416,16.0491781 C98.6098671,16.3965806 98.3569126,16.6828565 98.0318306,16.9110622 C97.7077645,17.1392679 97.3278249,17.3094034 96.8889642,17.4224875 C96.4521353,17.5365904 95.9848299,17.5936418 95.4880639,17.5936418 C95.1528231,17.5936418 94.828757,17.5793789 94.5158656,17.5528908 C94.2029742,17.5264026 93.8971939,17.4693512 93.6005566,17.3827553 C93.3029034,17.2961593 93.0113454,17.1739063 92.7258828,17.0170149 C92.4383884,16.8591047 92.1610528,16.6451618 91.8898125,16.3751863 L93.2683634,14.9937267 C93.4410632,15.1669185 93.6239218,15.305472 93.818971,15.4073496 C94.0130044,15.5112647 94.2100853,15.5917479 94.4102139,15.6518557 C94.6103425,15.7109447 94.8043759,15.7486393 94.9933298,15.7649398 C95.1832996,15.7822589 95.3580311,15.7893904 95.5205721,15.7893904 C95.7034308,15.7893904 95.8852735,15.7741087 96.0630527,15.7415079 C96.2418478,15.7078883 96.4013412,15.6579683 96.5405169,15.586654 C96.6817244,15.5163585 96.7944873,15.4267063 96.8808372,15.3187161 C96.9671871,15.2107259 97.01087,15.07421 97.01087,14.9122247 C97.01087,14.6952255 96.9489012,14.5189773 96.8249637,14.3844989 C96.7010262,14.2490018 96.4653417,14.1654622 96.1199421,14.1318426 L94.7911694,14.0024581 C94.0241791,13.92605 93.4217615,13.7070132 92.9839166,13.3443291 C92.5470877,12.9816451 92.3276573,12.4090932 92.3276573,11.6287112 C92.3276573,11.1855438 92.4170549,10.7953528 92.59585,10.4591569 C92.7736292,10.1239798 93.0113454,9.84279771 93.3089986,9.614592 C93.605636,9.38638629 93.9510356,9.21625078 94.3451975,9.10316669 C94.7393595,8.98906384 95.1528231,8.93201241 95.5855885,8.93201241" id="Fill-18" fill="#050D29"></path>
                            <path d="M103.687851,10.6869551 C103.320102,10.6869551 103.020417,10.7715135 102.78778,10.9385927 C102.556159,11.1066906 102.380412,11.3155396 102.261554,11.5641208 C102.185363,11.7169371 102.140664,11.8595657 102.123394,11.9950629 C102.10714,12.13056 102.093933,12.2905078 102.083775,12.4749061 L105.274658,12.4749061 C105.264499,12.2905078 105.251292,12.13056 105.235038,11.9950629 C105.218784,11.8595657 105.17307,11.7169371 105.097894,11.5641208 C104.979036,11.3155396 104.803289,11.1066906 104.570652,10.9385927 C104.339031,10.7715135 104.044425,10.6869551 103.687851,10.6869551 M103.687851,8.9316049 C104.270967,8.9316049 104.792114,9.03246367 105.251292,9.23214367 C105.710471,9.43386122 106.096506,9.71504327 106.410413,10.0777273 C106.722288,10.4414302 106.961021,10.8744098 107.122546,11.3776849 C107.285087,11.8819788 107.365341,12.4310988 107.365341,13.0270824 L107.365341,13.9215673 L102.083775,13.9215673 C102.083775,14.4737437 102.239204,14.92608 102.553112,15.2775576 C102.866003,15.6300539 103.326197,15.8052833 103.930647,15.8052833 C104.394904,15.8052833 104.762654,15.7380441 105.031862,15.6025469 C105.302086,15.4670498 105.567231,15.2694073 105.826281,15.0096196 L107.122546,16.2616947 C106.906163,16.4786939 106.690796,16.6702237 106.474413,16.8373029 C106.258031,17.0054008 106.023362,17.1470106 105.770408,17.2600947 C105.516437,17.3731788 105.23707,17.4577371 104.935353,17.5117322 C104.632621,17.5667461 104.2923,17.5932343 103.914393,17.5932343 C103.406452,17.5932343 102.919845,17.5290514 102.455587,17.3986482 C101.991329,17.2682449 101.575834,17.0380016 101.209101,16.7079184 C100.840336,16.3778351 100.548778,15.9326302 100.333411,15.37536 C100.117029,14.8180898 100.009345,14.1100408 100.009345,13.2552882 C100.009345,12.561502 100.098743,11.9461616 100.276522,11.4102857 C100.454301,10.8744098 100.705224,10.4210547 101.030306,10.0532767 C101.354372,9.68549878 101.740407,9.40533551 102.18841,9.21686204 C102.636414,9.02635102 103.136228,8.9316049 103.687851,8.9316049" id="Fill-20" fill="#050D29"></path>
                            <mask id="mask-2" fill="white">
                                <use xlink:href="#path-1"></use>
                            </mask>
                            <g id="Clip-23"></g>
                            <path d="M111.965353,7.73861878 L121.726956,7.73861878 L121.726956,5.93436735 L111.965353,5.93436735 L111.965353,7.73861878 Z M117.104697,11.5518955 C116.88425,11.9369927 116.639423,12.3404278 116.370214,12.7642384 C116.102022,13.188049 115.832813,13.587409 115.564621,13.9633371 C115.296428,14.3382465 115.044489,14.6724049 114.808805,14.9658122 C114.57312,15.2602384 114.383151,15.4741812 114.239911,15.6086596 C114.585311,15.5801339 114.960171,15.5505894 115.36246,15.5220637 C115.766781,15.493538 116.18634,15.4629747 116.622153,15.4283363 C117.058982,15.3947167 117.498858,15.3610971 117.939751,15.3274776 C118.381659,15.2928392 118.809345,15.2622759 119.221793,15.2337502 C118.991188,14.8680098 118.756519,14.5022694 118.516772,14.136529 C118.276008,13.7697698 118.03118,13.4050482 117.782289,13.0393078 L119.308143,12.1438041 C119.827258,12.8742661 120.349421,13.6546482 120.87768,14.4829127 C121.404922,15.3101584 121.943339,16.1913992 122.489883,17.1245976 L120.992474,18.2218188 C120.867521,18.0007445 120.745615,17.7868016 120.625741,17.5799902 C120.505867,17.3731788 120.382945,17.163311 120.257992,16.9514057 C119.970498,16.9707624 119.632209,16.9921567 119.243127,17.0166073 C118.85506,17.0400392 118.436517,17.0695837 117.990545,17.1032033 C117.544573,17.1368229 117.083363,17.1704424 116.608946,17.204062 C116.133514,17.2387004 115.667225,17.2713012 115.21211,17.3059396 C114.754963,17.3385404 114.321182,17.3731788 113.908734,17.4067984 C113.49527,17.440418 113.131585,17.4709812 112.81463,17.5005257 C112.61247,17.5198824 112.432659,17.5372016 112.274181,17.5504457 C112.11672,17.5657273 111.955194,17.5871216 111.791638,17.6166661 L111.274554,15.7675886 C111.398492,15.7197061 111.506175,15.6718237 111.597604,15.6239412 C111.689034,15.57504 111.770304,15.5220637 111.842432,15.4639935 C111.914559,15.406942 111.986687,15.3417404 112.058814,15.2694073 C112.129926,15.1980931 112.218308,15.1186286 112.324975,15.0320327 C112.478373,14.8873665 112.661232,14.6927804 112.872535,14.4462367 C113.082823,14.2007118 113.304285,13.9225861 113.533874,13.6088033 C113.764479,13.297058 113.997116,12.9639184 114.2328,12.6134596 C114.467469,12.261982 114.685883,11.9074482 114.887028,11.5518955 L110.726994,11.5518955 L110.726994,9.74662531 L122.9643,9.74662531 L122.9643,11.5518955 L117.104697,11.5518955 Z" id="Fill-22" fill="#050D29" mask="url(#mask-2)"></path>
                            <path d="M132.611616,11.190434 C132.765014,11.0070544 132.942793,10.7747736 133.143938,10.4905352 C133.347114,10.2062968 133.55029,9.90779559 133.756514,9.59503151 C133.962738,9.28226743 134.159819,8.96644702 134.346741,8.64960784 C134.534679,8.3307311 134.690109,8.04751151 134.815063,7.79689273 L136.254566,8.72092212 C136.139772,8.95320294 135.990437,9.21910335 135.807579,9.52269845 C135.625736,9.82629355 135.430687,10.1370201 135.225479,10.4538593 C135.018239,10.7717172 134.812015,11.0783687 134.605791,11.371776 C134.399567,11.6651833 134.209597,11.9127458 134.036897,12.1144633 L132.611616,11.190434 Z M127.14008,7.85598171 C127.333097,8.07603722 127.534242,8.326656 127.745545,8.60580049 C127.956848,8.88494498 128.165104,9.17223967 128.371328,9.46564702 C128.577552,9.75905437 128.770569,10.042274 128.948348,10.3173433 C129.125112,10.591394 129.271398,10.8338625 129.386193,11.0457678 L127.97615,12.1144633 C127.860339,11.902558 127.7171,11.6580519 127.5444,11.3789074 C127.370685,11.0987442 127.183762,10.8104307 126.982618,10.5119295 C126.780458,10.2134282 126.574234,9.9200209 126.363946,9.63170743 C126.152643,9.34237518 125.954546,9.08768131 125.772703,8.86558824 L127.14008,7.85598171 Z M137.290765,14.0633809 L131.935039,14.0633809 L131.935039,18.1507082 L130.106453,18.1507082 L130.106453,14.0633809 L124.721266,14.0633809 L124.721266,12.2448666 L130.106453,12.2448666 L130.106453,7.56563069 L125.527876,7.56563069 L125.527876,5.7766609 L136.513616,5.7766609 L136.513616,7.56563069 L131.935039,7.56563069 L131.935039,12.2448666 L137.290765,12.2448666 L137.290765,14.0633809 Z" id="Fill-24" fill="#050D29" mask="url(#mask-2)"></path>
                            <path d="M142.129916,16.2729012 L148.234346,16.2729012 L148.234346,13.818671 L142.129916,13.818671 L142.129916,16.2729012 Z M140.300313,18.0343641 L150.04871,18.0343641 L150.04871,12.0572082 L140.300313,12.0572082 L140.300313,18.0343641 Z M147.441959,6.52627592 C147.682723,6.74836898 147.970217,7.02445714 148.306474,7.35657796 C148.641714,7.68971755 148.98813,8.04017633 149.342673,8.41101061 C149.698231,8.7818449 150.045662,9.15166041 150.386998,9.52249469 C150.727319,9.89332898 151.02294,10.2285061 151.272847,10.5259886 L150.091377,11.7393502 C149.889217,11.4989192 149.645405,11.2106057 149.356895,10.873391 C149.059242,10.88256 148.666096,10.8947853 148.176441,10.9090482 C147.686786,10.923311 147.154464,10.9406302 146.57846,10.9599869 C146.002455,10.9783249 145.402069,10.9987004 144.778318,11.0170384 C144.154567,11.0363951 143.557229,11.0577894 142.985288,11.08224 C142.414362,11.1066906 141.893215,11.1311412 141.422862,11.1545731 C140.952509,11.1780049 140.578665,11.200418 140.300313,11.2187559 C140.204821,11.2289437 140.108312,11.2360751 140.012819,11.241169 C139.91631,11.2462629 139.815738,11.2584882 139.710086,11.2768261 L139.249892,9.45831184 C139.585133,9.39107265 139.824881,9.32790857 139.970152,9.26983837 C140.113391,9.21278694 140.257646,9.1312849 140.401902,9.02431347 C140.592887,8.8898351 140.842794,8.67487347 141.150606,8.38146612 C141.457402,8.08805878 141.776389,7.76103184 142.107566,7.39936653 C142.438743,7.03973878 142.760778,6.66381061 143.071637,6.27361959 C143.384529,5.88342857 143.640531,5.52583837 143.842691,5.19779265 L145.541245,5.97817469 C145.301497,6.29501388 145.042447,6.62815347 144.764096,6.97351837 C144.485744,7.32092082 144.21044,7.65100408 143.936152,7.96274939 C143.661864,8.27653224 143.407894,8.55262041 143.173226,8.7940702 C142.938557,9.03450122 142.743508,9.20769306 142.59011,9.31262694 C142.944652,9.30447673 143.338814,9.2891951 143.770564,9.26983837 C144.203329,9.25150041 144.648285,9.23418122 145.109495,9.21991837 C145.569689,9.20463673 146.031915,9.19037388 146.49211,9.1771298 C146.95332,9.16184816 147.393196,9.14452898 147.815803,9.12619102 C147.51815,8.80731429 147.237767,8.51186939 146.973637,8.23781878 C146.709508,7.96274939 146.477887,7.73556245 146.275727,7.55218286 L147.441959,6.52627592 Z" id="Fill-25" fill="#050D29" mask="url(#mask-2)"></path>
                        </g>
                    </g>
                </g>
                <g id="01-导航/01标题栏/02产品名称/开源标签中文备份" transform="translate(163.384615, 3.933132)">
                    <g id="形状结合" fill="url(#linearGradient-3)">
                        <path d="M2.03356072,0 L0,16.54 L41.0421151,16.54 C42.0490721,16.54 42.8990027,15.7913715 43.0261158,14.7924698 L44.6218668,2.25246978 C44.761302,1.15673642 43.9860692,0.155434452 42.8903358,0.0159992417 C42.8066011,0.00534376759 42.7222759,-9.81523854e-16 42.637866,0 L2.03356072,0 L2.03356072,0 Z"></path>
                    </g>
                    <g id="Express" transform="translate(5.706615, 2.032000)" fill="#FFFFFF" fill-rule="nonzero">
                        <polygon id="路径" points="1.87330769 0 5.61992308 0 5.36926923 1.33 3.02103846 1.33 2.48015385 4.242 4.49857692 4.242 4.24792308 5.558 2.2295 5.558 1.64903846 8.638 3.99726923 8.638 3.74661538 9.968 0 9.968"></polygon>
                        <polygon id="路径" points="6.55657692 6.174 5.79142308 2.59 7.17661538 2.59 7.58557692 4.928 8.81246154 2.59 10.2636154 2.59 8.0605 6.3 8.97076923 9.968 7.58557692 9.968 7.12384615 7.588 5.85738462 9.968 4.39303846 9.968"></polygon>
                        <path d="M11.1343077,2.59 L12.4007692,2.59 L12.3084231,3.122 C12.3611923,3.04733333 12.4359487,2.96566667 12.5326923,2.877 C12.6294359,2.78833333 12.7129872,2.72066667 12.7833462,2.674 C12.8800897,2.618 12.9878269,2.57133333 13.1065577,2.534 C13.2252885,2.49666667 13.3462179,2.478 13.4693462,2.478 C13.6980128,2.478 13.9046923,2.52 14.0893846,2.604 C14.2740769,2.688 14.4235897,2.83733333 14.5379231,3.052 C14.6170769,3.192 14.6720449,3.339 14.7028269,3.493 C14.733609,3.647 14.749,3.822 14.749,4.018 C14.749,4.298 14.7226154,4.62233333 14.6698462,4.991 C14.6170769,5.35966667 14.5423205,5.78666667 14.4455769,6.272 C14.3400385,6.82266667 14.2454936,7.28233333 14.1619423,7.651 C14.078391,8.01966667 13.9970385,8.32533333 13.9178846,8.568 C13.8387308,8.81066667 13.7595769,9.00433333 13.6804231,9.149 C13.6012692,9.29366667 13.5133205,9.41733333 13.4165769,9.52 C13.2494744,9.688 13.0691795,9.82333333 12.8756923,9.926 C12.6822051,10.0286667 12.4403462,10.08 12.1501154,10.08 C11.9918077,10.08 11.8554872,10.0566667 11.7411538,10.01 C11.6268205,9.96333333 11.5388718,9.91666667 11.4773077,9.87 C11.3365897,9.74866667 11.2310513,9.62266667 11.1606923,9.492 L10.5802308,12.558 L9.261,12.558 L11.1343077,2.59 Z M11.9390385,8.834 C12.1237308,8.834 12.2908333,8.75466667 12.4403462,8.596 C12.5810641,8.456 12.7019936,8.17833333 12.8031346,7.763 C12.9042756,7.34766667 13.0120128,6.85066667 13.1263462,6.272 C13.2230897,5.768 13.2934487,5.369 13.3374231,5.075 C13.3813974,4.781 13.4033846,4.55 13.4033846,4.382 C13.4033846,4.158 13.3594103,3.99933333 13.2714615,3.906 C13.1659231,3.78466667 13.0427949,3.724 12.9020769,3.724 C12.7173846,3.724 12.5546795,3.78933333 12.4139615,3.92 C12.3260128,4.01333333 12.2534551,4.11833333 12.1962885,4.235 C12.1391218,4.35166667 12.0929487,4.50333333 12.0577692,4.69 L11.4641154,7.868 C11.4377308,8.02666667 11.4245385,8.15266667 11.4245385,8.246 C11.4245385,8.43266667 11.4729103,8.582 11.5696538,8.694 C11.6488077,8.78733333 11.7719359,8.834 11.9390385,8.834 Z" id="形状"></path>
                        <path d="M16.2265385,2.59 L17.493,2.59 L17.3478846,3.374 C17.5149872,3.11266667 17.734859,2.90266667 18.0075,2.744 C18.1746026,2.64133333 18.3505,2.57133333 18.5351923,2.534 C18.7198846,2.49666667 18.9177692,2.478 19.1288462,2.478 L18.865,3.836 L18.4164615,3.836 C18.108641,3.836 17.8250064,3.955 17.5655577,4.193 C17.306109,4.431 17.1368077,4.76 17.0576538,5.18 L16.1605769,9.968 L14.8413462,9.968 L16.2265385,2.59 Z" id="路径"></path>
                        <path d="M20.3953077,10.08 C19.7005128,10.08 19.2167949,9.82333333 18.9441538,9.31 C18.865,9.16066667 18.8100321,9.002 18.77925,8.834 C18.7484679,8.666 18.7330769,8.47466667 18.7330769,8.26 C18.7330769,8.04533333 18.7550641,7.777 18.7990385,7.455 C18.8430128,7.133 18.9089744,6.73866667 18.9969231,6.272 C19.0848718,5.81466667 19.1684231,5.42033333 19.2475769,5.089 C19.3267308,4.75766667 19.4058846,4.47066667 19.4850385,4.228 C19.5641923,3.98533333 19.6477436,3.78 19.7356923,3.612 C19.823641,3.444 19.9203846,3.29466667 20.0259231,3.164 C20.2106154,2.94 20.4326859,2.76966667 20.6921346,2.653 C20.9515833,2.53633333 21.2791923,2.478 21.6749615,2.478 C22.0267564,2.478 22.310391,2.53866667 22.5258654,2.66 C22.7413397,2.78133333 22.9062436,2.93066667 23.0205769,3.108 C23.1964744,3.37866667 23.2844231,3.76133333 23.2844231,4.256 C23.2844231,4.58266667 23.2558397,4.94433333 23.1986731,5.341 C23.1415064,5.73766667 23.0645513,6.188 22.9678077,6.692 L20.237,6.692 C20.166641,7.03733333 20.1138718,7.34066667 20.0786923,7.602 C20.0435128,7.86333333 20.0259231,8.064 20.0259231,8.204 C20.0259231,8.40933333 20.0742949,8.568 20.1710385,8.68 C20.2501923,8.78266667 20.3733205,8.834 20.5404231,8.834 C20.6283718,8.834 20.7141218,8.82 20.7976731,8.792 C20.8812244,8.764 20.9581795,8.71266667 21.0285385,8.638 C21.1868462,8.47933333 21.3099744,8.20866667 21.3979231,7.826 L22.7171538,7.826 C22.6292051,8.218 22.5324615,8.53066667 22.4269231,8.764 C22.3213846,8.99733333 22.1850641,9.212 22.0179615,9.408 C21.8332692,9.62266667 21.6111987,9.78833333 21.35175,9.905 C21.0923013,10.0216667 20.7734872,10.08 20.3953077,10.08 Z M21.8464615,5.628 C21.9607949,5.07733333 22.0179615,4.65733333 22.0179615,4.368 C22.0179615,4.16266667 21.9783846,4.004 21.8992308,3.892 C21.8200769,3.78 21.6881538,3.724 21.5034615,3.724 C21.2747949,3.724 21.0901026,3.822 20.9493846,4.018 C20.8438462,4.158 20.7536987,4.354 20.6789423,4.606 C20.6041859,4.858 20.5228333,5.19866667 20.4348846,5.628 L21.8464615,5.628 Z" id="形状"></path>
                        <path d="M25.2632692,10.08 C24.9290641,10.08 24.6476282,10.0333333 24.4189615,9.94 C24.1902949,9.84666667 23.9880128,9.702 23.8121154,9.506 C23.6889872,9.35666667 23.596641,9.184 23.5350769,8.988 C23.4735128,8.792 23.4427308,8.58666667 23.4427308,8.372 C23.4427308,8.204 23.4603205,8.02666667 23.4955,7.84 L24.8015385,7.84 C24.7839487,7.896 24.7751538,7.952 24.7751538,8.008 L24.7751538,8.162 C24.7751538,8.34866667 24.8191282,8.50266667 24.9070769,8.624 C24.9510513,8.68 25.0148141,8.729 25.0983654,8.771 C25.1819167,8.813 25.2852564,8.834 25.4083846,8.834 C25.6370513,8.834 25.826141,8.75 25.9756538,8.582 C26.0723974,8.47 26.1405577,8.34633333 26.1801346,8.211 C26.2197115,8.07566667 26.2395,7.92866667 26.2395,7.77 C26.2395,7.602 26.2021218,7.44566667 26.1273654,7.301 C26.052609,7.15633333 25.9008974,7.01866667 25.6722308,6.888 L25.039,6.524 C24.7047949,6.33733333 24.4695321,6.111 24.3332115,5.845 C24.196891,5.579 24.1287308,5.28266667 24.1287308,4.956 C24.1287308,4.60133333 24.1880962,4.25133333 24.3068269,3.906 C24.4255577,3.56066667 24.6212436,3.262 24.8938846,3.01 C25.2544744,2.65533333 25.7469872,2.478 26.3714231,2.478 C26.7056282,2.478 26.9914615,2.53166667 27.2289231,2.639 C27.4663846,2.74633333 27.6554744,2.89333333 27.7961923,3.08 C27.8929359,3.22 27.969891,3.374 28.0270577,3.542 C28.0842244,3.71 28.1128077,3.90133333 28.1128077,4.116 C28.1128077,4.20933333 28.1062115,4.298 28.0930192,4.382 C28.0798269,4.466 28.0644359,4.55933333 28.0468462,4.662 L26.7935769,4.662 C26.8111667,4.59666667 26.8199615,4.54066667 26.8199615,4.494 L26.8199615,4.326 C26.8199615,4.16733333 26.7759872,4.02733333 26.6880385,3.906 C26.5825,3.78466667 26.4285897,3.724 26.2263077,3.724 C26.1295641,3.724 26.0350192,3.74266667 25.9426731,3.78 C25.8503269,3.81733333 25.7777692,3.864 25.725,3.92 C25.5403077,4.116 25.4479615,4.37733333 25.4479615,4.704 C25.4479615,5.00266667 25.6106667,5.24533333 25.9360769,5.432 L26.5561154,5.796 C26.9255,6.01066667 27.1871474,6.265 27.3410577,6.559 C27.4949679,6.853 27.5719231,7.182 27.5719231,7.546 C27.5719231,7.97533333 27.4971667,8.36266667 27.3476538,8.708 C27.198141,9.05333333 27.0178462,9.324 26.8067692,9.52 C26.4022051,9.89333333 25.8877051,10.08 25.2632692,10.08 Z" id="路径"></path>
                        <path d="M29.9993077,10.08 C29.6651026,10.08 29.3836667,10.0333333 29.155,9.94 C28.9263333,9.84666667 28.7240513,9.702 28.5481538,9.506 C28.4250256,9.35666667 28.3326795,9.184 28.2711154,8.988 C28.2095513,8.792 28.1787692,8.58666667 28.1787692,8.372 C28.1787692,8.204 28.196359,8.02666667 28.2315385,7.84 L29.5375769,7.84 C29.5199872,7.896 29.5111923,7.952 29.5111923,8.008 L29.5111923,8.162 C29.5111923,8.34866667 29.5551667,8.50266667 29.6431154,8.624 C29.6870897,8.68 29.7508526,8.729 29.8344038,8.771 C29.9179551,8.813 30.0212949,8.834 30.1444231,8.834 C30.3730897,8.834 30.5621795,8.75 30.7116923,8.582 C30.8084359,8.47 30.8765962,8.34633333 30.9161731,8.211 C30.95575,8.07566667 30.9755385,7.92866667 30.9755385,7.77 C30.9755385,7.602 30.9381603,7.44566667 30.8634038,7.301 C30.7886474,7.15633333 30.6369359,7.01866667 30.4082692,6.888 L29.7750385,6.524 C29.4408333,6.33733333 29.2055705,6.111 29.06925,5.845 C28.9329295,5.579 28.8647692,5.28266667 28.8647692,4.956 C28.8647692,4.60133333 28.9241346,4.25133333 29.0428654,3.906 C29.1615962,3.56066667 29.3572821,3.262 29.6299231,3.01 C29.9905128,2.65533333 30.4830256,2.478 31.1074615,2.478 C31.4416667,2.478 31.7275,2.53166667 31.9649615,2.639 C32.2024231,2.74633333 32.3915128,2.89333333 32.5322308,3.08 C32.6289744,3.22 32.7059295,3.374 32.7630962,3.542 C32.8202628,3.71 32.8488462,3.90133333 32.8488462,4.116 C32.8488462,4.20933333 32.84225,4.298 32.8290577,4.382 C32.8158654,4.466 32.8004744,4.55933333 32.7828846,4.662 L31.5296154,4.662 C31.5472051,4.59666667 31.556,4.54066667 31.556,4.494 L31.556,4.326 C31.556,4.16733333 31.5120256,4.02733333 31.4240769,3.906 C31.3185385,3.78466667 31.1646282,3.724 30.9623462,3.724 C30.8656026,3.724 30.7710577,3.74266667 30.6787115,3.78 C30.5863654,3.81733333 30.5138077,3.864 30.4610385,3.92 C30.2763462,4.116 30.184,4.37733333 30.184,4.704 C30.184,5.00266667 30.3467051,5.24533333 30.6721154,5.432 L31.2921538,5.796 C31.6615385,6.01066667 31.9231859,6.265 32.0770962,6.559 C32.2310064,6.853 32.3079615,7.182 32.3079615,7.546 C32.3079615,7.97533333 32.2332051,8.36266667 32.0836923,8.708 C31.9341795,9.05333333 31.7538846,9.324 31.5428077,9.52 C31.1382436,9.89333333 30.6237436,10.08 29.9993077,10.08 Z" id="路径"></path>
                    </g>
                </g>
            </g>
        </g>
    </g>
</svg>