<?xml version="1.0" encoding="UTF-8"?>
<!--
  - Copyright (c) 2023 OceanBase
  - OCP Express is licensed under Mulan PSL v2.
  - You can use this software according to the terms and conditions of the Mulan PSL v2.
  - You may obtain a copy of Mulan PSL v2 at:
  -          http://license.coscl.org.cn/MulanPSL2
  - THIS SOFTWARE IS PROVIDED ON AN "AS IS" BASIS, WITHOUT WARRANTIES OF ANY KIND,
  - EITHER EXPRESS OR IMPLIED, INCLUDING BUT NOT LIMITED TO NON-INFRINGEMENT,
  - MERCHANTABILITY OR FIT FOR A PARTICULAR PURPOSE.
  - See the Mulan PSL v2 for more details.
  -->

<svg width="238px" height="66px" viewBox="0 0 238 66" version="1.1" xmlns="http://www.w3.org/2000/svg" xmlns:xlink="http://www.w3.org/1999/xlink">
    <title>01-General Component 通用组件/01-General 通用/02-Icon 图标/05-Product 产品/Logo/登录/英文/OCP</title>
    <defs>
        <linearGradient x1="100%" y1="0%" x2="1.97876229%" y2="0%" id="linearGradient-1">
            <stop stop-color="#008F57" offset="0%"></stop>
            <stop stop-color="#2A66FF" offset="100%"></stop>
        </linearGradient>
    </defs>
    <g id="页面-2" stroke="none" stroke-width="1" fill="none" fill-rule="evenodd">
        <g id="0.3侧边导航+顶部导航-交互说明" transform="translate(-648.000000, -874.000000)">
            <g id="编组-52" transform="translate(625.000000, 843.000000)">
                <g id="01-General-Component-通用组件/01-General-通用/02-Icon-图标/05-Product-产品/Logo/登录/英文/OCP" transform="translate(10.000000, 16.000000)">
                    <g id="组件/01-产品Icon/白色/OAT">
                        <polygon id="Fill-19" fill="#006DFF" points="48.3319954 66.89472 25.6249783 53.7685029 13.8784183 60.6294857 48.3319954 80.5453714 82.7905097 60.6536229 71.0137783 53.8096457"></polygon>
                        <path d="M48.23616,42.296448 L35.4517029,34.9060937 L48.2465829,27.5195794 L61.0304914,34.9099337 L48.23616,42.296448 Z M82.7023543,34.919808 L48.24384,15.0143451 L13.77984,34.8830537 L48.2383543,54.8016823 L82.7023543,34.919808 Z" id="Fill-20" fill="#006DFF"></path>
                        <polygon id="Fill-21" fill="#040D2B" points="35.4307474 34.9117989 24.606336 28.6586331 13.7802789 34.9002789 24.6046903 41.1572846"></polygon>
                    </g>
                    <path d="M104.809598,30.2261781 C104.45609,30.2261781 104.142342,30.2893573 103.867631,30.4150057 C103.593644,30.5406542 103.365201,30.7046361 103.182302,30.9083711 C103.060128,31.0404085 102.95675,31.1866434 102.871445,31.3484956 C102.78614,31.5103478 102.718909,31.7226014 102.670473,31.9859663 C102.621314,32.2493311 102.58806,32.5815541 102.569264,32.9826353 C102.551191,33.3837165 102.541793,33.8898597 102.541793,34.4996451 C102.541793,35.1101403 102.551191,35.6162835 102.569264,36.0173647 C102.58806,36.4184459 102.621314,36.7478294 102.670473,37.0048053 C102.718909,37.2624911 102.78614,37.4711953 102.871445,37.6337574 C102.95675,37.7948998 103.060128,37.9418446 103.182302,38.0731721 C103.365201,38.2769071 103.593644,38.4444384 103.867631,38.5764757 C104.142342,38.7078032 104.45609,38.7738219 104.809598,38.7738219 C105.163107,38.7738219 105.476855,38.7078032 105.751565,38.5764757 C106.025553,38.4444384 106.253996,38.2769071 106.436895,38.0731721 C106.559069,37.9418446 106.662447,37.7948998 106.747752,37.6337574 C106.833056,37.4711953 106.900288,37.2624911 106.949447,37.0048053 C106.997883,36.7478294 107.031137,36.4184459 107.049933,36.0173647 C107.068006,35.6162835 107.077404,35.1101403 107.077404,34.4996451 C107.077404,33.8898597 107.068006,33.3837165 107.049933,32.9826353 C107.031137,32.5815541 106.997883,32.2493311 106.949447,31.9859663 C106.900288,31.7226014 106.833056,31.5103478 106.747752,31.3484956 C106.662447,31.1866434 106.559069,31.0404085 106.436895,30.9083711 C106.253996,30.7046361 106.025553,30.5406542 105.751565,30.4150057 C105.476855,30.2893573 105.163107,30.2261781 104.809598,30.2261781 M104.809598,28 C105.565775,28 106.223633,28.11642 106.784621,28.34997 C107.344885,28.58281 107.85093,28.915033 108.302033,29.346639 C108.631686,29.6575657 108.883985,29.9869492 109.061101,30.3340796 C109.238217,30.6812101 109.365451,31.0609949 109.444973,31.4741441 C109.524494,31.8872932 109.57293,32.3423251 109.591726,32.83853 C109.609799,33.3361546 109.619197,33.8898597 109.619197,34.4996451 C109.619197,35.1101403 109.609799,35.6645552 109.591726,36.1607601 C109.57293,36.6576749 109.524494,37.1127068 109.444973,37.5251461 C109.365451,37.9382952 109.238217,38.3187899 109.061101,38.6659204 C108.883985,39.0130508 108.631686,39.3417245 108.302033,39.653361 C107.85093,40.0842571 107.344885,40.4164801 106.784621,40.65003 C106.223633,40.8828701 105.565775,41 104.809598,41 C104.053422,41 103.395563,40.8828701 102.834576,40.65003 C102.273589,40.4164801 101.767544,40.0842571 101.317163,39.653361 C100.987511,39.3303664 100.734488,38.9953039 100.558096,38.6481734 C100.38098,38.301043 100.253023,37.9205482 100.174224,37.5073991 C100.094703,37.0949599 100.046267,36.6427674 100.027471,36.1515317 C100.009398,35.6610058 100,35.1101403 100,34.4996451 C100,33.8898597 100.009398,33.3389942 100.027471,32.8477584 C100.046267,32.3572326 100.094703,31.9050401 100.174224,31.491891 C100.253023,31.0794518 100.38098,30.6996669 100.558096,30.3518266 C100.734488,30.0046961 100.987511,29.6696336 101.317163,29.346639 C101.767544,28.915033 102.273589,28.58281 102.834576,28.34997 C103.395563,28.11642 104.053422,28 104.809598,28 M115.433873,31.4293507 C116.092455,31.4293507 116.674407,31.5315732 117.180452,31.7345984 C117.685774,31.9383334 118.152059,32.2549391 118.579306,32.6865451 L116.952009,34.2660241 C116.707661,34.0033692 116.473435,33.8145416 116.247883,33.7009611 C116.021609,33.5873805 115.750513,33.5298804 115.433873,33.5298804 C115.14109,33.5298804 114.885176,33.5817015 114.66613,33.6832141 C114.446362,33.7847267 114.251173,33.9373505 114.080564,34.1410856 C113.897665,34.3682466 113.763924,34.6436794 113.678619,34.9666739 C113.593314,35.2903784 113.550662,35.7028177 113.550662,36.2054115 C113.550662,36.7087151 113.593314,37.1239939 113.678619,37.4533774 C113.763924,37.7834708 113.897665,38.061743 114.080564,38.2881942 C114.251173,38.4919292 114.446362,38.644553 114.66613,38.7460656 C114.885176,38.8482881 115.14109,38.8993993 115.433873,38.8993993 C115.750513,38.8993993 116.021609,38.8390597 116.247883,38.7198001 C116.473435,38.6005406 116.707661,38.4138426 116.952009,38.1632556 L118.579306,39.7249877 C118.152059,40.1558838 117.685774,40.4767488 117.180452,40.685453 C116.674407,40.8955769 116.092455,40.999929 115.433873,40.999929 C114.958191,40.999929 114.467327,40.9282313 113.962005,40.7848359 C113.455959,40.6414405 112.995458,40.3865942 112.581224,40.0210069 C112.16699,39.6561295 111.828663,39.1656037 111.566242,38.5487195 C111.303821,37.9325452 111.172972,37.1516791 111.172972,36.2054115 C111.172972,35.2605635 111.303821,34.4789876 111.566242,33.8621034 C111.828663,33.2459291 112.16699,32.7582428 112.581224,32.3990444 C112.995458,32.039846 113.455959,31.7878392 113.962005,31.6444438 C114.467327,31.5010484 114.958191,31.4293507 115.433873,31.4293507 M123.370036,33.3687381 C122.955802,33.3687381 122.617474,33.4617321 122.355054,33.6470103 C122.092633,33.8329984 121.895276,34.062999 121.760812,34.3384317 C121.675507,34.505963 121.623457,34.6649757 121.605384,34.8140501 C121.587311,34.9638344 121.571407,35.1405941 121.55984,35.3443292 L125.162159,35.3443292 C125.149869,35.1405941 125.134688,34.9638344 125.116615,34.8140501 C125.097819,34.6649757 125.045769,34.505963 124.961187,34.3384317 C124.826723,34.062999 124.628643,33.8329984 124.366945,33.6470103 C124.104524,33.4617321 123.772703,33.3687381 123.370036,33.3687381 M123.370036,31.4293507 C124.028618,31.4293507 124.616353,31.5400917 125.134688,31.7615737 C125.653023,31.9830558 126.088222,32.2939824 126.442453,32.6950636 C126.795239,33.0968547 127.064166,33.5753126 127.247065,34.1311473 C127.429964,34.6884017 127.521053,35.2960574 127.521053,35.9548244 L127.521053,36.9415552 L121.55984,36.9415552 C121.55984,37.5527603 121.736233,38.0525146 122.089741,38.4415279 C122.44325,38.8305411 122.961585,39.0250478 123.644746,39.0250478 C124.168142,39.0250478 124.583099,38.9505106 124.888172,38.8000164 C125.192522,38.650942 125.491088,38.4322995 125.783872,38.1447988 L127.247065,39.5276416 C127.002718,39.7668705 126.759093,39.979834 126.515468,40.1651122 C126.271121,40.3511003 126.006532,40.5065636 125.719532,40.6322121 C125.433255,40.7571507 125.119507,40.8501447 124.778287,40.9104844 C124.437068,40.9701141 124.052474,40.999929 123.62595,40.999929 C123.052673,40.999929 122.503976,40.9282313 121.98058,40.7848359 C121.455739,40.6414405 120.986563,40.3865942 120.572329,40.0210069 C120.158095,39.6561295 119.828442,39.1656037 119.584818,38.5487195 C119.341193,37.9325452 119.219019,37.1516791 119.219019,36.2054115 C119.219019,35.4401627 119.319505,34.7600994 119.521201,34.1673511 C119.722173,33.5753126 120.005558,33.0755583 120.371356,32.6687981 C120.737155,32.261328 121.172354,31.9532409 121.678399,31.7438268 C122.184444,31.5344127 122.748323,31.4293507 123.370036,31.4293507 M132.275275,36.9418391 C131.3362,36.9418391 130.867024,37.3010375 130.867024,38.0194343 C130.867024,38.3424289 130.982691,38.6001147 131.214749,38.7917818 C131.446084,38.9834489 131.811882,39.0785726 132.312144,39.0785726 C132.604205,39.0785726 132.860842,39.0515972 133.079887,38.9983564 C133.299655,38.9444056 133.512917,38.8208868 133.719673,38.6299296 C133.854136,38.5099601 133.948839,38.3580462 134.003781,38.1713482 C134.058,37.9867799 134.085471,37.7440015 134.085471,37.4444329 L134.085471,36.9418391 L132.275275,36.9418391 Z M132.403232,31.4296347 C135.109851,31.4296347 136.463161,32.5313657 136.463161,34.733408 L136.463161,40.8923115 L134.140413,40.8923115 L134.140413,40.08447 C133.823774,40.3953967 133.49123,40.6232676 133.144227,40.766663 C132.796502,40.9100584 132.34829,40.9817561 131.800316,40.9817561 C130.739066,40.9817561 129.928671,40.7070333 129.367684,40.1561677 C129.11177,39.8928029 128.916581,39.5811664 128.78284,39.2226779 C128.648377,38.8634795 128.581868,38.4744662 128.581868,38.0556381 C128.581868,37.6843718 128.648377,37.3344018 128.78284,37.0050183 C128.916581,36.6756348 129.117553,36.3881341 129.38648,36.1425162 C129.653961,35.8976083 129.99518,35.7031016 130.410137,35.5589963 C130.824371,35.4156009 131.312343,35.3439032 131.873331,35.3439032 L134.085471,35.3439032 L134.085471,34.8768034 C134.085471,34.3621416 133.948839,33.9880358 133.674129,33.7544859 C133.400141,33.5216458 132.945424,33.4045159 132.312144,33.4045159 C131.884897,33.4045159 131.537895,33.4669852 131.269691,33.5933435 C131.001487,33.718992 130.739066,33.9255665 130.483152,34.2123573 L128.983812,32.7578169 C129.447205,32.2552231 129.934455,31.9080926 130.447006,31.7164255 C130.958835,31.5254682 131.61091,31.4296347 132.403232,31.4296347 L132.403232,31.4296347 Z M143.265348,31.4293507 C144.22828,31.4293507 144.97795,31.7047835 145.514358,32.2549391 C145.904736,32.6389832 146.163542,33.048583 146.291499,33.4851581 C146.419456,33.9224431 146.483796,34.3980615 146.483796,34.9127232 L146.483796,40.8920275 L144.106829,40.8920275 L144.106829,35.2364277 C144.106829,34.9127232 144.060562,34.6436794 143.969474,34.4278764 C143.877663,34.2127833 143.759104,34.039573 143.613074,33.9075356 C143.466321,33.7754983 143.298603,33.6796647 143.10992,33.6200349 C142.920515,33.5604052 142.72894,33.5298804 142.533752,33.5298804 C142.338563,33.5298804 142.146988,33.5604052 141.958306,33.6200349 C141.7689,33.6796647 141.598291,33.7754983 141.445754,33.9075356 C141.293218,34.039573 141.171767,34.2127833 141.079956,34.4278764 C140.988868,34.6436794 140.943324,34.9127232 140.943324,35.2364277 L140.943324,40.8920275 L138.565634,40.8920275 L138.565634,31.5372522 L140.888382,31.5372522 L140.888382,32.3990444 C141.205021,32.0760498 141.57082,31.8332714 141.985054,31.6721291 C142.399288,31.5102769 142.826535,31.4293507 143.265348,31.4293507 M151.311251,35.5233605 L151.311251,38.6659914 L153.981001,38.6659914 C154.554278,38.6659914 154.980078,38.5162071 155.261295,38.2166385 C155.541066,37.9177797 155.681313,37.5408344 155.681313,37.0850926 C155.681313,36.6428384 155.541066,36.2715721 155.261295,35.9727134 C154.980078,35.6731448 154.554278,35.5233605 153.981001,35.5233605 L151.311251,35.5233605 Z M151.311251,30.3341506 L151.311251,33.2971823 L153.816174,33.2971823 C154.364872,33.2971823 154.779106,33.1623055 155.0596,32.8932616 C155.340093,32.6235079 155.48034,32.26147 155.48034,31.806438 C155.48034,31.363474 155.340093,31.007825 155.0596,30.7380713 C154.779106,30.4683176 154.364872,30.3341506 153.816174,30.3341506 L151.311251,30.3341506 Z M153.981001,28.1072626 C155.272862,28.1072626 156.269771,28.4330967 156.971005,29.0861847 C157.671516,29.7385628 158.022133,30.6095834 158.022133,31.6985366 C158.022133,32.0577349 157.970083,32.3807295 157.866705,32.6682302 C157.763327,32.9557309 157.628864,33.2105772 157.464761,33.4313493 C157.299934,33.6535412 157.122819,33.8381095 156.934136,33.9878938 C156.745453,34.1376782 156.571229,34.2548081 156.412909,34.3378638 C156.608098,34.4336974 156.815577,34.5572162 157.034622,34.7062906 C157.25439,34.8560749 157.448856,35.0449025 157.620189,35.2720636 C157.790798,35.4992246 157.933937,35.7718178 158.049604,36.0884235 C158.165272,36.406449 158.223105,36.7805548 158.223105,37.2114509 C158.223105,37.8098782 158.122619,38.3366079 157.921647,38.7916398 C157.720675,39.2466718 157.443073,39.630006 157.089564,39.9409327 C156.736055,40.2518593 156.315315,40.4882488 155.828066,40.650101 C155.340093,40.8112434 154.803686,40.8921695 154.218842,40.8921695 L148.769458,40.8921695 L148.769458,28.1072626 L153.981001,28.1072626 Z M163.178662,36.9418391 C162.239586,36.9418391 161.77041,37.3010375 161.77041,38.0194343 C161.77041,38.3424289 161.886078,38.6001147 162.118136,38.7917818 C162.34947,38.9834489 162.715269,39.0785726 163.215531,39.0785726 C163.507591,39.0785726 163.764228,39.0515972 163.983274,38.9983564 C164.203042,38.9444056 164.416304,38.8208868 164.623059,38.6299296 C164.757523,38.5099601 164.852226,38.3580462 164.907168,38.1713482 C164.961387,37.9867799 164.988858,37.7440015 164.988858,37.4444329 L164.988858,36.9418391 L163.178662,36.9418391 Z M163.306619,31.4296347 C166.013238,31.4296347 167.366547,32.5313657 167.366547,34.733408 L167.366547,40.8923115 L165.0438,40.8923115 L165.0438,40.08447 C164.72716,40.3953967 164.394616,40.6232676 164.047614,40.766663 C163.699888,40.9100584 163.251677,40.9817561 162.702979,40.9817561 C161.642453,40.9817561 160.832058,40.7070333 160.27107,40.1561677 C160.015156,39.8928029 159.819967,39.5811664 159.686227,39.2226779 C159.551763,38.8634795 159.485254,38.4744662 159.485254,38.0556381 C159.485254,37.6843718 159.551763,37.3344018 159.686227,37.0050183 C159.819967,36.6756348 160.02094,36.3881341 160.289866,36.1425162 C160.557347,35.8976083 160.898567,35.7031016 161.313524,35.5589963 C161.727758,35.4156009 162.21573,35.3439032 162.776717,35.3439032 L164.988858,35.3439032 L164.988858,34.8768034 C164.988858,34.3621416 164.852226,33.9880358 164.577515,33.7544859 C164.303528,33.5216458 163.84881,33.4045159 163.215531,33.4045159 C162.788284,33.4045159 162.441282,33.4669852 162.173078,33.5933435 C161.904874,33.718992 161.642453,33.9255665 161.386539,34.2123573 L159.887199,32.7578169 C160.350592,32.2552231 160.837841,31.9080926 161.350393,31.7164255 C161.862221,31.5254682 162.514297,31.4296347 163.306619,31.4296347 L163.306619,31.4296347 Z M172.706047,31.4293507 C173.461501,31.4293507 174.14177,31.5074373 174.744687,31.6629007 C175.348326,31.818364 175.88112,32.1051548 176.345235,32.5246928 L174.882042,33.9792333 C174.601548,33.7400044 174.269727,33.5753126 173.885856,33.4851581 C173.501261,33.3950035 173.095702,33.3509911 172.669178,33.3509911 C172.194219,33.3509911 171.849385,33.4404358 171.636123,33.6200349 C171.422861,33.7989243 171.316592,34.0090482 171.316592,34.2482772 C171.316592,34.4875061 171.392499,34.6734942 171.545035,34.8048217 C171.696849,34.9368591 171.949871,35.0206247 172.30338,35.0561186 L173.803443,35.2002239 C174.754085,35.2960574 175.463994,35.5771692 175.933893,36.0442691 C176.403069,36.5106591 176.637296,37.1452902 176.637296,37.9474526 C176.637296,38.4621143 176.533918,38.9114673 176.32644,39.2940916 C176.118961,39.6774259 175.832684,39.9947414 175.467608,40.2460383 C175.10181,40.4973352 174.671672,40.685453 174.177916,40.8111014 C173.684161,40.9374597 173.157151,40.999929 172.596163,40.999929 C172.218075,40.999929 171.852277,40.9850216 171.499491,40.9552067 C171.145259,40.9253918 170.801149,40.8629225 170.465713,40.7663791 C170.130277,40.6705455 169.801348,40.5356687 169.478202,40.3624584 C169.155056,40.1892481 168.841308,39.9528586 168.536958,39.65329 L170.091239,38.1270518 C170.285705,38.3187189 170.493184,38.4713428 170.712952,38.5849233 C170.931997,38.6985038 171.154657,38.7886583 171.380209,38.8539671 C171.605761,38.9199858 171.825529,38.9618686 172.038791,38.9803255 C172.25133,38.9980724 172.450133,39.0065909 172.633032,39.0065909 C172.839788,39.0065909 173.044375,38.988844 173.245347,38.9526402 C173.446319,38.9171463 173.626327,38.860356 173.784647,38.7822694 C173.942967,38.7048927 174.070924,38.6062196 174.168518,38.4855403 C174.266113,38.3662808 174.315271,38.2164965 174.315271,38.0376072 C174.315271,37.7976683 174.245148,37.6038716 174.104901,37.4533774 C173.964654,37.304303 173.699342,37.2113089 173.309687,37.1751051 L171.810347,37.0317097 C170.944287,36.9479441 170.264741,36.7051657 169.770985,36.3047944 C169.27723,35.9037132 169.030713,35.2719216 169.030713,34.4101294 C169.030713,33.9196036 169.131199,33.4879976 169.332172,33.1167313 C169.533144,32.7461748 169.801348,32.4345383 170.136784,32.1832414 C170.472219,31.9319445 170.861874,31.7438268 171.307194,31.6181783 C171.751791,31.49182 172.218075,31.4293507 172.706047,31.4293507 M181.848983,33.3687381 C181.434749,33.3687381 181.096422,33.4617321 180.834001,33.6470103 C180.571581,33.8329984 180.374223,34.062999 180.23976,34.3384317 C180.154455,34.505963 180.102404,34.6649757 180.084331,34.8140501 C180.066258,34.9638344 180.050354,35.1405941 180.038787,35.3443292 L183.641106,35.3443292 C183.628817,35.1405941 183.613635,34.9638344 183.595562,34.8140501 C183.576766,34.6649757 183.524716,34.505963 183.440134,34.3384317 C183.305671,34.062999 183.10759,33.8329984 182.845892,33.6470103 C182.583472,33.4617321 182.251651,33.3687381 181.848983,33.3687381 M181.848983,31.4293507 C182.507565,31.4293507 183.0953,31.5400917 183.613635,31.7615737 C184.13197,31.9830558 184.567169,32.2939824 184.921401,32.6950636 C185.274187,33.0968547 185.543113,33.5753126 185.726013,34.1311473 C185.908912,34.6884017 186,35.2960574 186,35.9548244 L186,36.9415552 L180.038787,36.9415552 C180.038787,37.5527603 180.21518,38.0525146 180.568689,38.4415279 C180.922198,38.8305411 181.440533,39.0250478 182.123694,39.0250478 C182.647089,39.0250478 183.062046,38.9505106 183.367119,38.8000164 C183.671469,38.650942 183.970036,38.4322995 184.262819,38.1447988 L185.726013,39.5276416 C185.481665,39.7668705 185.23804,39.979834 184.994416,40.1651122 C184.750068,40.3511003 184.485479,40.5065636 184.198479,40.6322121 C183.912202,40.7571507 183.598454,40.8501447 183.257235,40.9104844 C182.916016,40.9701141 182.531421,40.999929 182.104898,40.999929 C181.531621,40.999929 180.982923,40.9282313 180.459528,40.7848359 C179.934687,40.6414405 179.46551,40.3865942 179.051276,40.0210069 C178.637042,39.6561295 178.30739,39.1656037 178.063765,38.5487195 C177.82014,37.9325452 177.697967,37.1516791 177.697967,36.2054115 C177.697967,35.4401627 177.798453,34.7600994 178.000148,34.1673511 C178.20112,33.5753126 178.484506,33.0755583 178.850304,32.6687981 C179.216102,32.261328 179.651301,31.9532409 180.157346,31.7438268 C180.663392,31.5344127 181.227271,31.4293507 181.848983,31.4293507" id="OB" fill="#040D2B"></path>
                    <path d="M105.68,68.144 C106.496,68.144 107.26,68.032 107.972,67.808 C108.684,67.584 109.324,67.24 109.892,66.776 C110.46,66.312 110.936,65.732 111.32,65.036 C111.704,64.34 111.976,63.52 112.136,62.576 L112.136,62.576 L107.864,62.576 C107.736,63.056 107.512,63.48 107.192,63.848 C106.872,64.216 106.368,64.4 105.68,64.4 C105.296,64.4 104.964,64.332 104.684,64.196 C104.404,64.06 104.184,63.888 104.024,63.68 C103.928,63.552 103.84,63.408 103.76,63.248 C103.68,63.088 103.612,62.856 103.556,62.552 C103.5,62.248 103.456,61.852 103.424,61.364 C103.392,60.876 103.376,60.24 103.376,59.456 L103.37698,59.1290612 C103.380898,58.4933061 103.396571,57.9662857 103.424,57.548 C103.456,57.06 103.5,56.664 103.556,56.36 C103.612,56.056 103.68,55.824 103.76,55.664 C103.84,55.504 103.928,55.36 104.024,55.232 C104.184,55.024 104.404,54.852 104.684,54.716 C104.964,54.58 105.296,54.512 105.68,54.512 C106.368,54.512 106.872,54.696 107.192,55.064 C107.512,55.432 107.736,55.856 107.864,56.336 L107.864,56.336 L112.136,56.336 C111.976,55.392 111.704,54.572 111.32,53.876 C110.936,53.18 110.46,52.6 109.892,52.136 C109.324,51.672 108.684,51.328 107.972,51.104 C107.26,50.88 106.496,50.768 105.68,50.768 C104.624,50.768 103.72,50.928 102.968,51.248 C102.216,51.568 101.536,52.032 100.928,52.64 C100.496,53.072 100.16,53.536 99.92,54.032 C99.68,54.528 99.504,55.06 99.392,55.628 C99.28,56.196 99.216,56.796 99.2,57.428 C99.184,58.06 99.176,58.736 99.176,59.456 C99.176,60.176 99.184,60.852 99.2,61.484 C99.216,62.116 99.28,62.716 99.392,63.284 C99.504,63.852 99.68,64.384 99.92,64.88 C100.16,65.376 100.496,65.84 100.928,66.272 C101.536,66.88 102.216,67.344 102.968,67.664 C103.72,67.984 104.624,68.144 105.68,68.144 Z M119.08,68 L119.08,64.688 L117.712,64.688 C117.184,64.688 116.92,64.424 116.92,63.896 L116.92,63.896 L116.92,50.912 L112.984,50.912 L112.984,64.184 C112.984,64.632 113.06,65.08 113.212,65.528 C113.364,65.976 113.6,66.384 113.92,66.752 C114.24,67.12 114.652,67.42 115.156,67.652 C115.66,67.884 116.272,68 116.992,68 L116.992,68 L119.08,68 Z M125.16,68.144 C126.2,68.144 127.056,67.972 127.728,67.628 C128.4,67.284 128.928,66.904 129.312,66.488 C129.584,66.2 129.812,65.896 129.996,65.576 C130.18,65.256 130.324,64.904 130.428,64.52 C130.532,64.136 130.608,63.704 130.656,63.224 C130.704,62.744 130.728,62.184 130.728,61.544 C130.728,60.92 130.704,60.364 130.656,59.876 C130.608,59.388 130.532,58.952 130.428,58.568 C130.324,58.184 130.18,57.832 129.996,57.512 C129.812,57.192 129.584,56.888 129.312,56.6 C129.12,56.392 128.892,56.192 128.628,56 C128.364,55.808 128.064,55.632 127.728,55.472 C127.392,55.312 127.012,55.184 126.588,55.088 C126.164,54.992 125.688,54.944 125.16,54.944 C124.632,54.944 124.156,54.992 123.732,55.088 C123.308,55.184 122.928,55.312 122.592,55.472 C122.256,55.632 121.956,55.808 121.692,56 C121.428,56.192 121.2,56.392 121.008,56.6 C120.736,56.888 120.508,57.192 120.324,57.512 C120.14,57.832 119.996,58.184 119.892,58.568 C119.788,58.952 119.712,59.388 119.664,59.876 C119.616,60.364 119.592,60.92 119.592,61.544 C119.592,62.184 119.616,62.744 119.664,63.224 C119.712,63.704 119.788,64.136 119.892,64.52 C119.996,64.904 120.14,65.256 120.324,65.576 C120.508,65.896 120.736,66.2 121.008,66.488 C121.392,66.904 121.92,67.284 122.592,67.628 C123.264,67.972 124.12,68.144 125.16,68.144 Z M125.16,64.592 C124.696,64.592 124.344,64.472 124.104,64.232 C123.848,63.976 123.688,63.624 123.624,63.176 C123.56,62.728 123.528,62.184 123.528,61.544 C123.528,60.904 123.56,60.36 123.624,59.912 C123.688,59.464 123.848,59.112 124.104,58.856 C124.344,58.616 124.696,58.496 125.16,58.496 C125.624,58.496 125.976,58.616 126.216,58.856 C126.472,59.112 126.632,59.464 126.696,59.912 C126.76,60.36 126.792,60.904 126.792,61.544 C126.792,62.184 126.76,62.728 126.696,63.176 C126.632,63.624 126.472,63.976 126.216,64.232 C125.976,64.472 125.624,64.592 125.16,64.592 Z M136.328,68.144 C136.84,68.144 137.368,68.044 137.912,67.844 C138.456,67.644 138.928,67.344 139.328,66.944 L139.328,66.944 L139.328,68 L143.168,68 L143.168,55.088 L139.232,55.088 L139.232,62.816 C139.232,63.184 139.176,63.484 139.064,63.716 C138.952,63.948 138.812,64.128 138.644,64.256 C138.476,64.384 138.3,64.472 138.116,64.52 C137.932,64.568 137.776,64.592 137.648,64.592 C137.52,64.592 137.364,64.568 137.18,64.52 C136.996,64.472 136.82,64.384 136.652,64.256 C136.484,64.128 136.344,63.948 136.232,63.716 C136.12,63.484 136.064,63.184 136.064,62.816 L136.064,62.816 L136.064,55.088 L132.128,55.088 L132.128,63.344 C132.128,64.032 132.204,64.68 132.356,65.288 C132.508,65.896 132.864,66.48 133.424,67.04 C133.776,67.392 134.196,67.664 134.684,67.856 C135.172,68.048 135.72,68.144 136.328,68.144 Z M149.032,68.144 C149.704,68.144 150.268,68.044 150.724,67.844 C151.18,67.644 151.608,67.344 152.008,66.944 L152.008,66.944 L152.008,68 L155.824,68 L155.824,50.912 L151.888,50.912 L151.888,56.024 C151.52,55.656 151.108,55.384 150.652,55.208 C150.196,55.032 149.648,54.944 149.008,54.944 C148.384,54.944 147.804,55.044 147.268,55.244 C146.732,55.444 146.28,55.736 145.912,56.12 C145.608,56.44 145.376,56.796 145.216,57.188 C145.056,57.58 144.936,58.004 144.856,58.46 C144.776,58.916 144.728,59.404 144.712,59.924 C144.696,60.444 144.688,60.984 144.688,61.544 C144.688,62.104 144.696,62.644 144.712,63.164 C144.728,63.684 144.776,64.172 144.856,64.628 C144.936,65.084 145.056,65.512 145.216,65.912 C145.376,66.312 145.608,66.664 145.912,66.968 C146.28,67.352 146.736,67.644 147.28,67.844 C147.824,68.044 148.408,68.144 149.032,68.144 Z M150.256,64.592 C149.888,64.592 149.596,64.52 149.38,64.376 C149.164,64.232 149,64.028 148.888,63.764 C148.776,63.5 148.704,63.18 148.672,62.804 C148.64,62.428 148.624,62.008 148.624,61.544 C148.624,61.08 148.64,60.66 148.672,60.284 C148.704,59.908 148.776,59.588 148.888,59.324 C149,59.06 149.164,58.856 149.38,58.712 C149.596,58.568 149.888,58.496 150.256,58.496 C150.624,58.496 150.916,58.568 151.132,58.712 C151.348,58.856 151.512,59.06 151.624,59.324 C151.736,59.588 151.808,59.908 151.84,60.284 C151.872,60.66 151.888,61.08 151.888,61.544 C151.888,62.008 151.872,62.428 151.84,62.804 C151.808,63.18 151.736,63.5 151.624,63.764 C151.512,64.028 151.348,64.232 151.132,64.376 C150.916,64.52 150.624,64.592 150.256,64.592 Z M166.568,68 L166.568,61.904 L169.136,61.904 C170.08,61.904 170.916,61.748 171.644,61.436 C172.372,61.124 172.98,60.712 173.468,60.2 C173.956,59.688 174.328,59.104 174.584,58.448 C174.84,57.792 174.968,57.112 174.968,56.408 C174.968,55.704 174.84,55.024 174.584,54.368 C174.328,53.712 173.956,53.128 173.468,52.616 C172.98,52.104 172.372,51.692 171.644,51.38 C170.916,51.068 170.08,50.912 169.136,50.912 L169.136,50.912 L162.368,50.912 L162.368,68 L166.568,68 Z M168.944,58.16 L166.568,58.16 L166.568,54.656 L168.944,54.656 C169.52,54.656 169.968,54.832 170.288,55.184 C170.608,55.536 170.768,55.944 170.768,56.408 C170.768,56.872 170.608,57.28 170.288,57.632 C169.968,57.984 169.52,58.16 168.944,58.16 L168.944,58.16 Z M182.152,68 L182.152,64.688 L180.784,64.688 C180.256,64.688 179.992,64.424 179.992,63.896 L179.992,63.896 L179.992,50.912 L176.056,50.912 L176.056,64.184 C176.056,64.632 176.132,65.08 176.284,65.528 C176.436,65.976 176.672,66.384 176.992,66.752 C177.312,67.12 177.724,67.42 178.228,67.652 C178.732,67.884 179.344,68 180.064,68 L180.064,68 L182.152,68 Z M186.744,68.12 C187.432,68.12 187.984,68.024 188.4,67.832 C188.816,67.64 189.224,67.344 189.624,66.944 L189.624,66.944 L189.624,68 L193.464,68 L193.464,59.624 C193.464,58.04 192.98,56.864 192.012,56.096 C191.044,55.328 189.632,54.944 187.776,54.944 C187.232,54.944 186.744,54.976 186.312,55.04 C185.88,55.104 185.48,55.204 185.112,55.34 C184.744,55.476 184.4,55.656 184.08,55.88 C183.76,56.104 183.432,56.384 183.096,56.72 L183.096,56.72 L185.544,59.168 C185.864,58.848 186.172,58.616 186.468,58.472 C186.764,58.328 187.136,58.256 187.584,58.256 C188.272,58.256 188.768,58.376 189.072,58.616 C189.376,58.856 189.528,59.272 189.528,59.864 L189.528,59.864 L189.528,60.2 L186.984,60.2 C186.2,60.2 185.524,60.304 184.956,60.512 C184.388,60.72 183.924,60.996 183.564,61.34 C183.204,61.684 182.94,62.084 182.772,62.54 C182.604,62.996 182.52,63.464 182.52,63.944 C182.52,64.552 182.616,65.116 182.808,65.636 C183,66.156 183.28,66.6 183.648,66.968 C184.016,67.336 184.46,67.62 184.98,67.82 C185.5,68.02 186.088,68.12 186.744,68.12 Z M187.704,64.928 C187.224,64.928 186.868,64.828 186.636,64.628 C186.404,64.428 186.288,64.176 186.288,63.872 C186.288,63.552 186.4,63.296 186.624,63.104 C186.848,62.912 187.192,62.816 187.656,62.816 L187.656,62.816 L189.528,62.816 L189.528,63.152 C189.528,63.488 189.5,63.756 189.444,63.956 C189.388,64.156 189.28,64.328 189.12,64.472 C188.912,64.648 188.704,64.768 188.496,64.832 C188.288,64.896 188.024,64.928 187.704,64.928 Z M201.488,68 L201.488,64.688 L200.24,64.688 C199.712,64.688 199.448,64.424 199.448,63.896 L199.448,63.896 L199.448,58.616 L201.488,58.616 L201.488,55.592 L199.448,55.592 L199.448,51.896 L195.512,51.896 L195.512,55.592 L194.336,55.592 L194.336,58.616 L195.512,58.616 L195.512,64.184 C195.512,64.632 195.588,65.08 195.74,65.528 C195.892,65.976 196.128,66.384 196.448,66.752 C196.768,67.12 197.18,67.42 197.684,67.652 C198.188,67.884 198.8,68 199.52,68 L199.52,68 L201.488,68 Z M207.28,68 L207.28,58.616 L209.44,58.616 L209.44,55.592 L207.28,55.592 L207.28,54.752 C207.28,54.224 207.544,53.96 208.072,53.96 L208.072,53.96 L209.44,53.96 L209.44,50.648 L207.352,50.648 C206.632,50.648 206.02,50.764 205.516,50.996 C205.012,51.228 204.6,51.528 204.28,51.896 C203.96,52.264 203.724,52.672 203.572,53.12 C203.42,53.568 203.344,54.016 203.344,54.464 L203.344,54.464 L203.344,55.592 L202.168,55.592 L202.168,58.616 L203.344,58.616 L203.344,68 L207.28,68 Z M215.28,68.144 C216.32,68.144 217.176,67.972 217.848,67.628 C218.52,67.284 219.048,66.904 219.432,66.488 C219.704,66.2 219.932,65.896 220.116,65.576 C220.3,65.256 220.444,64.904 220.548,64.52 C220.652,64.136 220.728,63.704 220.776,63.224 C220.824,62.744 220.848,62.184 220.848,61.544 C220.848,60.92 220.824,60.364 220.776,59.876 C220.728,59.388 220.652,58.952 220.548,58.568 C220.444,58.184 220.3,57.832 220.116,57.512 C219.932,57.192 219.704,56.888 219.432,56.6 C219.24,56.392 219.012,56.192 218.748,56 C218.484,55.808 218.184,55.632 217.848,55.472 C217.512,55.312 217.132,55.184 216.708,55.088 C216.284,54.992 215.808,54.944 215.28,54.944 C214.752,54.944 214.276,54.992 213.852,55.088 C213.428,55.184 213.048,55.312 212.712,55.472 C212.376,55.632 212.076,55.808 211.812,56 C211.548,56.192 211.32,56.392 211.128,56.6 C210.856,56.888 210.628,57.192 210.444,57.512 C210.26,57.832 210.116,58.184 210.012,58.568 C209.908,58.952 209.832,59.388 209.784,59.876 C209.736,60.364 209.712,60.92 209.712,61.544 C209.712,62.184 209.736,62.744 209.784,63.224 C209.832,63.704 209.908,64.136 210.012,64.52 C210.116,64.904 210.26,65.256 210.444,65.576 C210.628,65.896 210.856,66.2 211.128,66.488 C211.512,66.904 212.04,67.284 212.712,67.628 C213.384,67.972 214.24,68.144 215.28,68.144 Z M215.28,64.592 C214.816,64.592 214.464,64.472 214.224,64.232 C213.968,63.976 213.808,63.624 213.744,63.176 C213.68,62.728 213.648,62.184 213.648,61.544 C213.648,60.904 213.68,60.36 213.744,59.912 C213.808,59.464 213.968,59.112 214.224,58.856 C214.464,58.616 214.816,58.496 215.28,58.496 C215.744,58.496 216.096,58.616 216.336,58.856 C216.592,59.112 216.752,59.464 216.816,59.912 C216.88,60.36 216.912,60.904 216.912,61.544 C216.912,62.184 216.88,62.728 216.816,63.176 C216.752,63.624 216.592,63.976 216.336,64.232 C216.096,64.472 215.744,64.592 215.28,64.592 Z M226.304,68 L226.304,60.272 C226.304,59.904 226.36,59.604 226.472,59.372 C226.584,59.14 226.724,58.96 226.892,58.832 C227.06,58.704 227.236,58.616 227.42,58.568 C227.604,58.52 227.76,58.496 227.888,58.496 C228.224,58.496 228.496,58.56 228.704,58.688 C228.912,58.816 229.112,58.976 229.304,59.168 L229.304,59.168 L232.28,56.144 C231.832,55.696 231.376,55.384 230.912,55.208 C230.448,55.032 229.896,54.944 229.256,54.944 C228.584,54.944 227.98,55.072 227.444,55.328 C226.908,55.584 226.496,55.856 226.208,56.144 L226.208,56.144 L226.208,55.088 L222.368,55.088 L222.368,68 L226.304,68 Z M236.704,68 L236.704,60.272 C236.704,59.904 236.76,59.604 236.872,59.372 C236.984,59.14 237.124,58.96 237.292,58.832 C237.46,58.704 237.636,58.616 237.82,58.568 C238.004,58.52 238.16,58.496 238.288,58.496 C238.416,58.496 238.572,58.52 238.756,58.568 C238.94,58.616 239.116,58.704 239.284,58.832 C239.452,58.96 239.592,59.14 239.704,59.372 C239.816,59.604 239.872,59.904 239.872,60.272 L239.872,60.272 L239.872,68 L243.808,68 L243.808,60.272 C243.808,59.904 243.864,59.604 243.976,59.372 C244.088,59.14 244.228,58.96 244.396,58.832 C244.564,58.704 244.74,58.616 244.924,58.568 C245.108,58.52 245.264,58.496 245.392,58.496 C245.52,58.496 245.676,58.52 245.86,58.568 C246.044,58.616 246.22,58.704 246.388,58.832 C246.556,58.96 246.696,59.14 246.808,59.372 C246.92,59.604 246.976,59.904 246.976,60.272 L246.976,60.272 L246.976,68 L250.912,68 L250.912,59.744 C250.912,59.056 250.816,58.408 250.624,57.8 C250.432,57.192 250.056,56.608 249.496,56.048 C249.144,55.696 248.692,55.424 248.14,55.232 C247.588,55.04 247.008,54.944 246.4,54.944 C245.648,54.944 244.992,55.048 244.432,55.256 C243.872,55.464 243.312,55.816 242.752,56.312 C242.336,55.832 241.868,55.484 241.348,55.268 C240.828,55.052 240.248,54.944 239.608,54.944 C239.096,54.944 238.568,55.044 238.024,55.244 C237.48,55.444 237.008,55.744 236.608,56.144 L236.608,56.144 L236.608,55.088 L232.768,55.088 L232.768,68 L236.704,68 Z" id="CloudPlatform" fill="#040D2B" fill-rule="nonzero"></path>
                    <g id="01-导航/01标题栏/02产品名称/开源标签中文备份" transform="translate(192.884615, 26.000000)">
                        <g id="形状结合" transform="translate(0.000000, 0.000000)" fill="url(#linearGradient-1)">
                            <path d="M2.03356072,0 L0,16.54 L41.0421151,16.54 C42.0490721,16.54 42.8990027,15.7913715 43.0261158,14.7924698 L44.6218668,2.25246978 C44.761302,1.15673642 43.9860692,0.155434452 42.8903358,0.0159992417 C42.8066011,0.00534376759 42.7222759,-9.81523854e-16 42.637866,0 L2.03356072,0 L2.03356072,0 Z"></path>
                        </g>
                        <g id="Express" transform="translate(5.706615, 2.032000)" fill="#FFFFFF" fill-rule="nonzero">
                            <polygon id="路径" points="1.87330769 0 5.61992308 0 5.36926923 1.33 3.02103846 1.33 2.48015385 4.242 4.49857692 4.242 4.24792308 5.558 2.2295 5.558 1.64903846 8.638 3.99726923 8.638 3.74661538 9.968 0 9.968"></polygon>
                            <polygon id="路径" points="6.55657692 6.174 5.79142308 2.59 7.17661538 2.59 7.58557692 4.928 8.81246154 2.59 10.2636154 2.59 8.0605 6.3 8.97076923 9.968 7.58557692 9.968 7.12384615 7.588 5.85738462 9.968 4.39303846 9.968"></polygon>
                            <path d="M11.1343077,2.59 L12.4007692,2.59 L12.3084231,3.122 C12.3611923,3.04733333 12.4359487,2.96566667 12.5326923,2.877 C12.6294359,2.78833333 12.7129872,2.72066667 12.7833462,2.674 C12.8800897,2.618 12.9878269,2.57133333 13.1065577,2.534 C13.2252885,2.49666667 13.3462179,2.478 13.4693462,2.478 C13.6980128,2.478 13.9046923,2.52 14.0893846,2.604 C14.2740769,2.688 14.4235897,2.83733333 14.5379231,3.052 C14.6170769,3.192 14.6720449,3.339 14.7028269,3.493 C14.733609,3.647 14.749,3.822 14.749,4.018 C14.749,4.298 14.7226154,4.62233333 14.6698462,4.991 C14.6170769,5.35966667 14.5423205,5.78666667 14.4455769,6.272 C14.3400385,6.82266667 14.2454936,7.28233333 14.1619423,7.651 C14.078391,8.01966667 13.9970385,8.32533333 13.9178846,8.568 C13.8387308,8.81066667 13.7595769,9.00433333 13.6804231,9.149 C13.6012692,9.29366667 13.5133205,9.41733333 13.4165769,9.52 C13.2494744,9.688 13.0691795,9.82333333 12.8756923,9.926 C12.6822051,10.0286667 12.4403462,10.08 12.1501154,10.08 C11.9918077,10.08 11.8554872,10.0566667 11.7411538,10.01 C11.6268205,9.96333333 11.5388718,9.91666667 11.4773077,9.87 C11.3365897,9.74866667 11.2310513,9.62266667 11.1606923,9.492 L10.5802308,12.558 L9.261,12.558 L11.1343077,2.59 Z M11.9390385,8.834 C12.1237308,8.834 12.2908333,8.75466667 12.4403462,8.596 C12.5810641,8.456 12.7019936,8.17833333 12.8031346,7.763 C12.9042756,7.34766667 13.0120128,6.85066667 13.1263462,6.272 C13.2230897,5.768 13.2934487,5.369 13.3374231,5.075 C13.3813974,4.781 13.4033846,4.55 13.4033846,4.382 C13.4033846,4.158 13.3594103,3.99933333 13.2714615,3.906 C13.1659231,3.78466667 13.0427949,3.724 12.9020769,3.724 C12.7173846,3.724 12.5546795,3.78933333 12.4139615,3.92 C12.3260128,4.01333333 12.2534551,4.11833333 12.1962885,4.235 C12.1391218,4.35166667 12.0929487,4.50333333 12.0577692,4.69 L11.4641154,7.868 C11.4377308,8.02666667 11.4245385,8.15266667 11.4245385,8.246 C11.4245385,8.43266667 11.4729103,8.582 11.5696538,8.694 C11.6488077,8.78733333 11.7719359,8.834 11.9390385,8.834 Z" id="形状"></path>
                            <path d="M16.2265385,2.59 L17.493,2.59 L17.3478846,3.374 C17.5149872,3.11266667 17.734859,2.90266667 18.0075,2.744 C18.1746026,2.64133333 18.3505,2.57133333 18.5351923,2.534 C18.7198846,2.49666667 18.9177692,2.478 19.1288462,2.478 L18.865,3.836 L18.4164615,3.836 C18.108641,3.836 17.8250064,3.955 17.5655577,4.193 C17.306109,4.431 17.1368077,4.76 17.0576538,5.18 L16.1605769,9.968 L14.8413462,9.968 L16.2265385,2.59 Z" id="路径"></path>
                            <path d="M20.3953077,10.08 C19.7005128,10.08 19.2167949,9.82333333 18.9441538,9.31 C18.865,9.16066667 18.8100321,9.002 18.77925,8.834 C18.7484679,8.666 18.7330769,8.47466667 18.7330769,8.26 C18.7330769,8.04533333 18.7550641,7.777 18.7990385,7.455 C18.8430128,7.133 18.9089744,6.73866667 18.9969231,6.272 C19.0848718,5.81466667 19.1684231,5.42033333 19.2475769,5.089 C19.3267308,4.75766667 19.4058846,4.47066667 19.4850385,4.228 C19.5641923,3.98533333 19.6477436,3.78 19.7356923,3.612 C19.823641,3.444 19.9203846,3.29466667 20.0259231,3.164 C20.2106154,2.94 20.4326859,2.76966667 20.6921346,2.653 C20.9515833,2.53633333 21.2791923,2.478 21.6749615,2.478 C22.0267564,2.478 22.310391,2.53866667 22.5258654,2.66 C22.7413397,2.78133333 22.9062436,2.93066667 23.0205769,3.108 C23.1964744,3.37866667 23.2844231,3.76133333 23.2844231,4.256 C23.2844231,4.58266667 23.2558397,4.94433333 23.1986731,5.341 C23.1415064,5.73766667 23.0645513,6.188 22.9678077,6.692 L20.237,6.692 C20.166641,7.03733333 20.1138718,7.34066667 20.0786923,7.602 C20.0435128,7.86333333 20.0259231,8.064 20.0259231,8.204 C20.0259231,8.40933333 20.0742949,8.568 20.1710385,8.68 C20.2501923,8.78266667 20.3733205,8.834 20.5404231,8.834 C20.6283718,8.834 20.7141218,8.82 20.7976731,8.792 C20.8812244,8.764 20.9581795,8.71266667 21.0285385,8.638 C21.1868462,8.47933333 21.3099744,8.20866667 21.3979231,7.826 L22.7171538,7.826 C22.6292051,8.218 22.5324615,8.53066667 22.4269231,8.764 C22.3213846,8.99733333 22.1850641,9.212 22.0179615,9.408 C21.8332692,9.62266667 21.6111987,9.78833333 21.35175,9.905 C21.0923013,10.0216667 20.7734872,10.08 20.3953077,10.08 Z M21.8464615,5.628 C21.9607949,5.07733333 22.0179615,4.65733333 22.0179615,4.368 C22.0179615,4.16266667 21.9783846,4.004 21.8992308,3.892 C21.8200769,3.78 21.6881538,3.724 21.5034615,3.724 C21.2747949,3.724 21.0901026,3.822 20.9493846,4.018 C20.8438462,4.158 20.7536987,4.354 20.6789423,4.606 C20.6041859,4.858 20.5228333,5.19866667 20.4348846,5.628 L21.8464615,5.628 Z" id="形状"></path>
                            <path d="M25.2632692,10.08 C24.9290641,10.08 24.6476282,10.0333333 24.4189615,9.94 C24.1902949,9.84666667 23.9880128,9.702 23.8121154,9.506 C23.6889872,9.35666667 23.596641,9.184 23.5350769,8.988 C23.4735128,8.792 23.4427308,8.58666667 23.4427308,8.372 C23.4427308,8.204 23.4603205,8.02666667 23.4955,7.84 L24.8015385,7.84 C24.7839487,7.896 24.7751538,7.952 24.7751538,8.008 L24.7751538,8.162 C24.7751538,8.34866667 24.8191282,8.50266667 24.9070769,8.624 C24.9510513,8.68 25.0148141,8.729 25.0983654,8.771 C25.1819167,8.813 25.2852564,8.834 25.4083846,8.834 C25.6370513,8.834 25.826141,8.75 25.9756538,8.582 C26.0723974,8.47 26.1405577,8.34633333 26.1801346,8.211 C26.2197115,8.07566667 26.2395,7.92866667 26.2395,7.77 C26.2395,7.602 26.2021218,7.44566667 26.1273654,7.301 C26.052609,7.15633333 25.9008974,7.01866667 25.6722308,6.888 L25.039,6.524 C24.7047949,6.33733333 24.4695321,6.111 24.3332115,5.845 C24.196891,5.579 24.1287308,5.28266667 24.1287308,4.956 C24.1287308,4.60133333 24.1880962,4.25133333 24.3068269,3.906 C24.4255577,3.56066667 24.6212436,3.262 24.8938846,3.01 C25.2544744,2.65533333 25.7469872,2.478 26.3714231,2.478 C26.7056282,2.478 26.9914615,2.53166667 27.2289231,2.639 C27.4663846,2.74633333 27.6554744,2.89333333 27.7961923,3.08 C27.8929359,3.22 27.969891,3.374 28.0270577,3.542 C28.0842244,3.71 28.1128077,3.90133333 28.1128077,4.116 C28.1128077,4.20933333 28.1062115,4.298 28.0930192,4.382 C28.0798269,4.466 28.0644359,4.55933333 28.0468462,4.662 L26.7935769,4.662 C26.8111667,4.59666667 26.8199615,4.54066667 26.8199615,4.494 L26.8199615,4.326 C26.8199615,4.16733333 26.7759872,4.02733333 26.6880385,3.906 C26.5825,3.78466667 26.4285897,3.724 26.2263077,3.724 C26.1295641,3.724 26.0350192,3.74266667 25.9426731,3.78 C25.8503269,3.81733333 25.7777692,3.864 25.725,3.92 C25.5403077,4.116 25.4479615,4.37733333 25.4479615,4.704 C25.4479615,5.00266667 25.6106667,5.24533333 25.9360769,5.432 L26.5561154,5.796 C26.9255,6.01066667 27.1871474,6.265 27.3410577,6.559 C27.4949679,6.853 27.5719231,7.182 27.5719231,7.546 C27.5719231,7.97533333 27.4971667,8.36266667 27.3476538,8.708 C27.198141,9.05333333 27.0178462,9.324 26.8067692,9.52 C26.4022051,9.89333333 25.8877051,10.08 25.2632692,10.08 Z" id="路径"></path>
                            <path d="M29.9993077,10.08 C29.6651026,10.08 29.3836667,10.0333333 29.155,9.94 C28.9263333,9.84666667 28.7240513,9.702 28.5481538,9.506 C28.4250256,9.35666667 28.3326795,9.184 28.2711154,8.988 C28.2095513,8.792 28.1787692,8.58666667 28.1787692,8.372 C28.1787692,8.204 28.196359,8.02666667 28.2315385,7.84 L29.5375769,7.84 C29.5199872,7.896 29.5111923,7.952 29.5111923,8.008 L29.5111923,8.162 C29.5111923,8.34866667 29.5551667,8.50266667 29.6431154,8.624 C29.6870897,8.68 29.7508526,8.729 29.8344038,8.771 C29.9179551,8.813 30.0212949,8.834 30.1444231,8.834 C30.3730897,8.834 30.5621795,8.75 30.7116923,8.582 C30.8084359,8.47 30.8765962,8.34633333 30.9161731,8.211 C30.95575,8.07566667 30.9755385,7.92866667 30.9755385,7.77 C30.9755385,7.602 30.9381603,7.44566667 30.8634038,7.301 C30.7886474,7.15633333 30.6369359,7.01866667 30.4082692,6.888 L29.7750385,6.524 C29.4408333,6.33733333 29.2055705,6.111 29.06925,5.845 C28.9329295,5.579 28.8647692,5.28266667 28.8647692,4.956 C28.8647692,4.60133333 28.9241346,4.25133333 29.0428654,3.906 C29.1615962,3.56066667 29.3572821,3.262 29.6299231,3.01 C29.9905128,2.65533333 30.4830256,2.478 31.1074615,2.478 C31.4416667,2.478 31.7275,2.53166667 31.9649615,2.639 C32.2024231,2.74633333 32.3915128,2.89333333 32.5322308,3.08 C32.6289744,3.22 32.7059295,3.374 32.7630962,3.542 C32.8202628,3.71 32.8488462,3.90133333 32.8488462,4.116 C32.8488462,4.20933333 32.84225,4.298 32.8290577,4.382 C32.8158654,4.466 32.8004744,4.55933333 32.7828846,4.662 L31.5296154,4.662 C31.5472051,4.59666667 31.556,4.54066667 31.556,4.494 L31.556,4.326 C31.556,4.16733333 31.5120256,4.02733333 31.4240769,3.906 C31.3185385,3.78466667 31.1646282,3.724 30.9623462,3.724 C30.8656026,3.724 30.7710577,3.74266667 30.6787115,3.78 C30.5863654,3.81733333 30.5138077,3.864 30.4610385,3.92 C30.2763462,4.116 30.184,4.37733333 30.184,4.704 C30.184,5.00266667 30.3467051,5.24533333 30.6721154,5.432 L31.2921538,5.796 C31.6615385,6.01066667 31.9231859,6.265 32.0770962,6.559 C32.2310064,6.853 32.3079615,7.182 32.3079615,7.546 C32.3079615,7.97533333 32.2332051,8.36266667 32.0836923,8.708 C31.9341795,9.05333333 31.7538846,9.324 31.5428077,9.52 C31.1382436,9.89333333 30.6237436,10.08 29.9993077,10.08 Z" id="路径"></path>
                        </g>
                    </g>
                </g>
            </g>
        </g>
    </g>
</svg>