<?xml version="1.0" encoding="UTF-8"?>
<!--
  - Copyright (c) 2023 OceanBase
  - OCP Express is licensed under Mulan PSL v2.
  - You can use this software according to the terms and conditions of the Mulan PSL v2.
  - You may obtain a copy of Mulan PSL v2 at:
  -          http://license.coscl.org.cn/MulanPSL2
  - THIS SOFTWARE IS PROVIDED ON AN "AS IS" BASIS, WITHOUT WARRANTIES OF ANY KIND,
  - EITHER EXPRESS OR IMPLIED, INCLUDING BUT NOT LIMITED TO NON-INFRINGEMENT,
  - MERCHANTABILITY OR FIT FOR A PARTICULAR PURPOSE.
  - See the Mulan PSL v2 for more details.
  -->

<svg width="175px" height="175px" viewBox="0 0 175 175" version="1.1" xmlns="http://www.w3.org/2000/svg" xmlns:xlink="http://www.w3.org/1999/xlink">
    <defs>
        <polygon id="path-1" points="0.0004 0 175 0 175 174.9997 0.0004 174.9997"></polygon>
    </defs>
    <g id="Page-1" stroke="none" stroke-width="1" fill="none" fill-rule="evenodd">
        <g id="产品-icon-更新-中文" transform="translate(-1892.000000, -458.000000)">
            <g id="编组" transform="translate(1892.000000, 458.000000)">
                <g>
                    <mask id="mask-2" fill="white">
                        <use xlink:href="#path-1"></use>
                    </mask>
                    <g id="Clip-2"></g>
                    <path d="M162.9954,174.9997 L12.0044,174.9997 C5.3744,174.9997 0.0004,169.6257 0.0004,162.9947 L0.0004,12.0047 C0.0004,5.3747 5.3744,-0.0003 12.0044,-0.0003 L162.9954,-0.0003 C169.6254,-0.0003 175.0004,5.3747 175.0004,12.0047 L175.0004,162.9947 C175.0004,169.6257 169.6254,174.9997 162.9954,174.9997" id="Fill-1" fill="#FFFFFF" mask="url(#mask-2)"></path>
                </g>
                <polygon id="Fill-3" fill="#006DFF" points="87.8962 122.3855 46.5032 98.4575 25.0902 110.9645 87.8962 147.2695 150.7112 111.0085 129.2432 98.5325"></polygon>
                <path d="M87.7217,77.5446 L64.4167,64.0726 L87.7407,50.6076 L111.0447,64.0796 L87.7217,77.5446 Z M150.5507,64.0986 L87.7357,27.8126 L24.9107,64.0316 L87.7257,100.3416 L150.5507,64.0986 Z" id="Fill-5" fill="#006DFF"></path>
                <polygon id="Fill-7" fill="#040D2B" points="64.3784 64.0837 44.6464 52.6847 24.9114 64.0627 44.6434 75.4687"></polygon>
            </g>
        </g>
    </g>
</svg>