<?xml version="1.0" encoding="UTF-8"?>
<svg width="237.13216px" height="65.5310263px" viewBox="0 0 237.13216 65.5310263" version="1.1" xmlns="http://www.w3.org/2000/svg" xmlns:xlink="http://www.w3.org/1999/xlink">
    <title>ocp_express_logo_en</title>
    <defs>
        <linearGradient x1="100%" y1="0%" x2="1.97876229%" y2="0%" id="linearGradient-1">
            <stop stop-color="#008F57" offset="0%"></stop>
            <stop stop-color="#2A66FF" offset="100%"></stop>
        </linearGradient>
    </defs>
    <g id="页面-1" stroke="none" stroke-width="1" fill="none" fill-rule="evenodd">
        <g id="ocp_express_logo_en" fill-rule="nonzero">
            <g id="组件/01-产品Icon/白色/OAT" transform="translate(0, -0)">
                <polygon id="Fill-19" fill="#006DFF" points="34.5521554 51.8803749 11.8451383 38.7541578 0.0985783 45.6151406 34.5521554 65.5310263 69.0106697 45.6392778 57.2339383 38.7953006"></polygon>
                <path d="M34.45632,27.2821029 L21.6718629,19.8917486 L34.4667429,12.5052343 L47.2506514,19.8955886 L34.45632,27.2821029 Z M68.9225143,19.9054629 L34.464,7.10542736e-15 L0,19.8687086 L34.4585143,39.7873372 L68.9225143,19.9054629 Z" id="Fill-20" fill="#006DFF"></path>
                <polygon id="Fill-21" fill="#FFFFFF" points="21.6509074 19.8974538 10.826496 13.644288 0.0004389 19.8859338 10.8248503 26.1429395"></polygon>
            </g>
            <path d="M91.029758,15.211833 C90.67625,15.211833 90.362502,15.2750122 90.087791,15.4006606 C89.813804,15.5263091 89.585361,15.690291 89.402462,15.894026 C89.280288,16.0260634 89.17691,16.1722983 89.091605,16.3341505 C89.0063,16.4960027 88.939069,16.7082563 88.890633,16.9716212 C88.841474,17.234986 88.80822,17.567209 88.789424,17.9682902 C88.771351,18.3693714 88.761953,18.8755146 88.761953,19.4853 C88.761953,20.0957952 88.771351,20.6019384 88.789424,21.0030196 C88.80822,21.4041008 88.841474,21.7334843 88.890633,21.9904602 C88.939069,22.248146 89.0063,22.4568502 89.091605,22.6194123 C89.17691,22.7805547 89.280288,22.9274995 89.402462,23.058827 C89.585361,23.262562 89.813804,23.4300933 90.087791,23.5621306 C90.362502,23.6934581 90.67625,23.7594768 91.029758,23.7594768 C91.383267,23.7594768 91.697015,23.6934581 91.971725,23.5621306 C92.245713,23.4300933 92.474156,23.262562 92.657055,23.058827 C92.779229,22.9274995 92.882607,22.7805547 92.967912,22.6194123 C93.053216,22.4568502 93.120448,22.248146 93.169607,21.9904602 C93.218043,21.7334843 93.251297,21.4041008 93.270093,21.0030196 C93.288166,20.6019384 93.297564,20.0957952 93.297564,19.4853 C93.297564,18.8755146 93.288166,18.3693714 93.270093,17.9682902 C93.251297,17.567209 93.218043,17.234986 93.169607,16.9716212 C93.120448,16.7082563 93.053216,16.4960027 92.967912,16.3341505 C92.882607,16.1722983 92.779229,16.0260634 92.657055,15.894026 C92.474156,15.690291 92.245713,15.5263091 91.971725,15.4006606 C91.697015,15.2750122 91.383267,15.211833 91.029758,15.211833 M91.029758,12.9856549 C91.785935,12.9856549 92.443793,13.1020749 93.004781,13.3356249 C93.565045,13.5684649 94.07109,13.9006879 94.522193,14.3322939 C94.851846,14.6432206 95.104145,14.9726041 95.281261,15.3197345 C95.458377,15.666865 95.585611,16.0466498 95.665133,16.459799 C95.744654,16.8729481 95.79309,17.32798 95.811886,17.8241849 C95.829959,18.3218095 95.839357,18.8755146 95.839357,19.4853 C95.839357,20.0957952 95.829959,20.6502101 95.811886,21.146415 C95.79309,21.6433298 95.744654,22.0983617 95.665133,22.510801 C95.585611,22.9239501 95.458377,23.3044448 95.281261,23.6515753 C95.104145,23.9987057 94.851846,24.3273794 94.522193,24.6390159 C94.07109,25.069912 93.565045,25.402135 93.004781,25.6356849 C92.443793,25.868525 91.785935,25.9856549 91.029758,25.9856549 C90.273582,25.9856549 89.615723,25.868525 89.054736,25.6356849 C88.493749,25.402135 87.987704,25.069912 87.537323,24.6390159 C87.207671,24.3160213 86.954648,23.9809588 86.778256,23.6338283 C86.60114,23.2866979 86.473183,22.9062031 86.394384,22.493054 C86.314863,22.0806148 86.266427,21.6284223 86.247631,21.1371866 C86.229558,20.6466607 86.22016,20.0957952 86.22016,19.4853 C86.22016,18.8755146 86.229558,18.3246491 86.247631,17.8334133 C86.266427,17.3428875 86.314863,16.890695 86.394384,16.4775459 C86.473183,16.0651067 86.60114,15.6853218 86.778256,15.3374815 C86.954648,14.990351 87.207671,14.6552885 87.537323,14.3322939 C87.987704,13.9006879 88.493749,13.5684649 89.054736,13.3356249 C89.615723,13.1020749 90.273582,12.9856549 91.029758,12.9856549 M101.654033,16.4150056 C102.312615,16.4150056 102.894567,16.5172281 103.400612,16.7202533 C103.905934,16.9239883 104.372219,17.240594 104.799466,17.6722 L103.172169,19.251679 C102.927821,18.9890241 102.693595,18.8001965 102.468043,18.686616 C102.241769,18.5730354 101.970673,18.5155353 101.654033,18.5155353 C101.36125,18.5155353 101.105336,18.5673564 100.88629,18.668869 C100.666522,18.7703816 100.471333,18.9230054 100.300724,19.1267405 C100.117825,19.3539015 99.984084,19.6293343 99.898779,19.9523288 C99.813474,20.2760333 99.770822,20.6884726 99.770822,21.1910664 C99.770822,21.69437 99.813474,22.1096488 99.898779,22.4390323 C99.984084,22.7691257 100.117825,23.0473979 100.300724,23.2738491 C100.471333,23.4775841 100.666522,23.6302079 100.88629,23.7317205 C101.105336,23.833943 101.36125,23.8850542 101.654033,23.8850542 C101.970673,23.8850542 102.241769,23.8247146 102.468043,23.705455 C102.693595,23.5861955 102.927821,23.3994975 103.172169,23.1489105 L104.799466,24.7106426 C104.372219,25.1415387 103.905934,25.4624037 103.400612,25.6711079 C102.894567,25.8812318 102.312615,25.9855839 101.654033,25.9855839 C101.178351,25.9855839 100.687487,25.9138862 100.182165,25.7704908 C99.676119,25.6270954 99.215618,25.3722491 98.801384,25.0066618 C98.38715,24.6417844 98.048823,24.1512586 97.786402,23.5343744 C97.523981,22.9182001 97.393132,22.137334 97.393132,21.1910664 C97.393132,20.2462184 97.523981,19.4646425 97.786402,18.8477583 C98.048823,18.231584 98.38715,17.7438977 98.801384,17.3846993 C99.215618,17.0255009 99.676119,16.7734941 100.182165,16.6300987 C100.687487,16.4867033 101.178351,16.4150056 101.654033,16.4150056 M109.590196,18.354393 C109.175962,18.354393 108.837634,18.447387 108.575214,18.6326652 C108.312793,18.8186533 108.115436,19.0486539 107.980972,19.3240866 C107.895667,19.4916179 107.843617,19.6506306 107.825544,19.799705 C107.807471,19.9494893 107.791567,20.126249 107.78,20.3299841 L111.382319,20.3299841 C111.370029,20.126249 111.354848,19.9494893 111.336775,19.799705 C111.317979,19.6506306 111.265929,19.4916179 111.181347,19.3240866 C111.046883,19.0486539 110.848803,18.8186533 110.587105,18.6326652 C110.324684,18.447387 109.992863,18.354393 109.590196,18.354393 M109.590196,16.4150056 C110.248778,16.4150056 110.836513,16.5257466 111.354848,16.7472286 C111.873183,16.9687107 112.308382,17.2796373 112.662613,17.6807185 C113.015399,18.0825096 113.284326,18.5609675 113.467225,19.1168022 C113.650124,19.6740566 113.741213,20.2817123 113.741213,20.9404793 L113.741213,21.9272101 L107.78,21.9272101 C107.78,22.5384152 107.956393,23.0381695 108.309901,23.4271828 C108.66341,23.816196 109.181745,24.0107027 109.864906,24.0107027 C110.388302,24.0107027 110.803259,23.9361655 111.108332,23.7856713 C111.412682,23.6365969 111.711248,23.4179544 112.004032,23.1304537 L113.467225,24.5132965 C113.222878,24.7525254 112.979253,24.9654889 112.735628,25.1507671 C112.491281,25.3367552 112.226692,25.4922185 111.939692,25.617867 C111.653415,25.7428056 111.339667,25.8357996 110.998447,25.8961393 C110.657228,25.955769 110.272634,25.9855839 109.84611,25.9855839 C109.272833,25.9855839 108.724136,25.9138862 108.20074,25.7704908 C107.675899,25.6270954 107.206723,25.3722491 106.792489,25.0066618 C106.378255,24.6417844 106.048602,24.1512586 105.804978,23.5343744 C105.561353,22.9182001 105.439179,22.137334 105.439179,21.1910664 C105.439179,20.4258176 105.539665,19.7457543 105.741361,19.153006 C105.942333,18.5609675 106.225718,18.0612132 106.591516,17.654453 C106.957315,17.2469829 107.392514,16.9388958 107.898559,16.7294817 C108.404604,16.5200676 108.968483,16.4150056 109.590196,16.4150056 M118.495435,21.927494 C117.55636,21.927494 117.087184,22.2866924 117.087184,23.0050892 C117.087184,23.3280838 117.202851,23.5857696 117.434909,23.7774367 C117.666244,23.9691038 118.032042,24.0642275 118.532304,24.0642275 C118.824365,24.0642275 119.081002,24.0372521 119.300047,23.9840113 C119.519815,23.9300605 119.733077,23.8065417 119.939833,23.6155845 C120.074296,23.495615 120.168999,23.3437011 120.223941,23.1570031 C120.27816,22.9724348 120.305631,22.7296564 120.305631,22.4300878 L120.305631,21.927494 L118.495435,21.927494 Z M118.623392,16.4152896 C121.330011,16.4152896 122.683321,17.5170206 122.683321,19.7190629 L122.683321,25.8779664 L120.360573,25.8779664 L120.360573,25.0701249 C120.043934,25.3810516 119.71139,25.6089225 119.364387,25.7523179 C119.016662,25.8957133 118.56845,25.967411 118.020476,25.967411 C116.959226,25.967411 116.148831,25.6926882 115.587844,25.1418226 C115.33193,24.8784578 115.136741,24.5668213 115.003,24.2083328 C114.868537,23.8491344 114.802028,23.4601211 114.802028,23.041293 C114.802028,22.6700267 114.868537,22.3200567 115.003,21.9906732 C115.136741,21.6612897 115.337713,21.373789 115.60664,21.1281711 C115.874121,20.8832632 116.21534,20.6887565 116.630297,20.5446512 C117.044531,20.4012558 117.532503,20.3295581 118.093491,20.3295581 L120.305631,20.3295581 L120.305631,19.8624583 C120.305631,19.3477965 120.168999,18.9736907 119.894289,18.7401408 C119.620301,18.5073007 119.165584,18.3901708 118.532304,18.3901708 C118.105057,18.3901708 117.758055,18.4526401 117.489851,18.5789984 C117.221647,18.7046469 116.959226,18.9112214 116.703312,19.1980122 L115.203972,17.7434718 C115.667365,17.240878 116.154615,16.8937475 116.667166,16.7020804 C117.178995,16.5111231 117.83107,16.4152896 118.623392,16.4152896 L118.623392,16.4152896 Z M129.485508,16.4150056 C130.44844,16.4150056 131.19811,16.6904384 131.734518,17.240594 C132.124896,17.6246381 132.383702,18.0342379 132.511659,18.470813 C132.639616,18.908098 132.703956,19.3837164 132.703956,19.8983781 L132.703956,25.8776824 L130.326989,25.8776824 L130.326989,20.2220826 C130.326989,19.8983781 130.280722,19.6293343 130.189634,19.4135313 C130.097823,19.1984382 129.979264,19.0252279 129.833234,18.8931905 C129.686481,18.7611532 129.518763,18.6653196 129.33008,18.6056898 C129.140675,18.5460601 128.9491,18.5155353 128.753912,18.5155353 C128.558723,18.5155353 128.367148,18.5460601 128.178466,18.6056898 C127.98906,18.6653196 127.818451,18.7611532 127.665914,18.8931905 C127.513378,19.0252279 127.391927,19.1984382 127.300116,19.4135313 C127.209028,19.6293343 127.163484,19.8983781 127.163484,20.2220826 L127.163484,25.8776824 L124.785794,25.8776824 L124.785794,16.5229071 L127.108542,16.5229071 L127.108542,17.3846993 C127.425181,17.0617047 127.79098,16.8189263 128.205214,16.657784 C128.619448,16.4959318 129.046695,16.4150056 129.485508,16.4150056 M137.531411,20.5090154 L137.531411,23.6516463 L140.201161,23.6516463 C140.774438,23.6516463 141.200238,23.501862 141.481455,23.2022934 C141.761226,22.9034346 141.901473,22.5264893 141.901473,22.0707475 C141.901473,21.6284933 141.761226,21.257227 141.481455,20.9583683 C141.200238,20.6587997 140.774438,20.5090154 140.201161,20.5090154 L137.531411,20.5090154 Z M137.531411,15.3198055 L137.531411,18.2828372 L140.036334,18.2828372 C140.585032,18.2828372 140.999266,18.1479604 141.27976,17.8789165 C141.560253,17.6091628 141.7005,17.2471249 141.7005,16.7920929 C141.7005,16.3491289 141.560253,15.9934799 141.27976,15.7237262 C140.999266,15.4539725 140.585032,15.3198055 140.036334,15.3198055 L137.531411,15.3198055 Z M140.201161,13.0929175 C141.493022,13.0929175 142.489931,13.4187516 143.191165,14.0718396 C143.891676,14.7242177 144.242293,15.5952383 144.242293,16.6841915 C144.242293,17.0433898 144.190243,17.3663844 144.086865,17.6538851 C143.983487,17.9413858 143.849024,18.1962321 143.684921,18.4170042 C143.520094,18.6391961 143.342979,18.8237644 143.154296,18.9735487 C142.965613,19.1233331 142.791389,19.240463 142.633069,19.3235187 C142.828258,19.4193523 143.035737,19.5428711 143.254782,19.6919455 C143.47455,19.8417298 143.669016,20.0305574 143.840349,20.2577185 C144.010958,20.4848795 144.154097,20.7574727 144.269764,21.0740784 C144.385432,21.3921039 144.443265,21.7662097 144.443265,22.1971058 C144.443265,22.7955331 144.342779,23.3222628 144.141807,23.7772947 C143.940835,24.2323267 143.663233,24.6156609 143.309724,24.9265876 C142.956215,25.2375142 142.535475,25.4739037 142.048226,25.6357559 C141.560253,25.7968983 141.023846,25.8778244 140.439002,25.8778244 L134.989618,25.8778244 L134.989618,13.0929175 L140.201161,13.0929175 Z M149.398822,21.927494 C148.459746,21.927494 147.99057,22.2866924 147.99057,23.0050892 C147.99057,23.3280838 148.106238,23.5857696 148.338296,23.7774367 C148.56963,23.9691038 148.935429,24.0642275 149.435691,24.0642275 C149.727751,24.0642275 149.984388,24.0372521 150.203434,23.9840113 C150.423202,23.9300605 150.636464,23.8065417 150.843219,23.6155845 C150.977683,23.495615 151.072386,23.3437011 151.127328,23.1570031 C151.181547,22.9724348 151.209018,22.7296564 151.209018,22.4300878 L151.209018,21.927494 L149.398822,21.927494 Z M149.526779,16.4152896 C152.233398,16.4152896 153.586707,17.5170206 153.586707,19.7190629 L153.586707,25.8779664 L151.26396,25.8779664 L151.26396,25.0701249 C150.94732,25.3810516 150.614776,25.6089225 150.267774,25.7523179 C149.920048,25.8957133 149.471837,25.967411 148.923139,25.967411 C147.862613,25.967411 147.052218,25.6926882 146.49123,25.1418226 C146.235316,24.8784578 146.040127,24.5668213 145.906387,24.2083328 C145.771923,23.8491344 145.705414,23.4601211 145.705414,23.041293 C145.705414,22.6700267 145.771923,22.3200567 145.906387,21.9906732 C146.040127,21.6612897 146.2411,21.373789 146.510026,21.1281711 C146.777507,20.8832632 147.118727,20.6887565 147.533684,20.5446512 C147.947918,20.4012558 148.43589,20.3295581 148.996877,20.3295581 L151.209018,20.3295581 L151.209018,19.8624583 C151.209018,19.3477965 151.072386,18.9736907 150.797675,18.7401408 C150.523688,18.5073007 150.06897,18.3901708 149.435691,18.3901708 C149.008444,18.3901708 148.661442,18.4526401 148.393238,18.5789984 C148.125034,18.7046469 147.862613,18.9112214 147.606699,19.1980122 L146.107359,17.7434718 C146.570752,17.240878 147.058001,16.8937475 147.570553,16.7020804 C148.082381,16.5111231 148.734457,16.4152896 149.526779,16.4152896 L149.526779,16.4152896 Z M158.926207,16.4150056 C159.681661,16.4150056 160.36193,16.4930922 160.964847,16.6485556 C161.568486,16.8040189 162.10128,17.0908097 162.565395,17.5103477 L161.102202,18.9648882 C160.821708,18.7256593 160.489887,18.5609675 160.106016,18.470813 C159.721421,18.3806584 159.315862,18.336646 158.889338,18.336646 C158.414379,18.336646 158.069545,18.4260907 157.856283,18.6056898 C157.643021,18.7845792 157.536752,18.9947031 157.536752,19.2339321 C157.536752,19.473161 157.612659,19.6591491 157.765195,19.7904766 C157.917009,19.922514 158.170031,20.0062796 158.52354,20.0417735 L160.023603,20.1858788 C160.974245,20.2817123 161.684154,20.5628241 162.154053,21.029924 C162.623229,21.496314 162.857456,22.1309451 162.857456,22.9331075 C162.857456,23.4477692 162.754078,23.8971222 162.5466,24.2797465 C162.339121,24.6630808 162.052844,24.9803963 161.687768,25.2316932 C161.32197,25.4829901 160.891832,25.6711079 160.398076,25.7967563 C159.904321,25.9231146 159.377311,25.9855839 158.816323,25.9855839 C158.438235,25.9855839 158.072437,25.9706765 157.719651,25.9408616 C157.365419,25.9110467 157.021309,25.8485774 156.685873,25.752034 C156.350437,25.6562004 156.021508,25.5213236 155.698362,25.3481133 C155.375216,25.174903 155.061468,24.9385135 154.757118,24.6389449 L156.311399,23.1127067 C156.505865,23.3043738 156.713344,23.4569977 156.933112,23.5705782 C157.152157,23.6841587 157.374817,23.7743132 157.600369,23.839622 C157.825921,23.9056407 158.045689,23.9475235 158.258951,23.9659804 C158.47149,23.9837273 158.670293,23.9922458 158.853192,23.9922458 C159.059948,23.9922458 159.264535,23.9744989 159.465507,23.9382951 C159.666479,23.9028012 159.846487,23.8460109 160.004807,23.7679243 C160.163127,23.6905476 160.291084,23.5918745 160.388678,23.4711952 C160.486273,23.3519357 160.535431,23.2021514 160.535431,23.0232621 C160.535431,22.7833232 160.465308,22.5895265 160.325061,22.4390323 C160.184814,22.2899579 159.919502,22.1969638 159.529847,22.16076 L158.030507,22.0173646 C157.164447,21.933599 156.484901,21.6908206 155.991145,21.2904493 C155.49739,20.8893681 155.250873,20.2575765 155.250873,19.3957843 C155.250873,18.9052585 155.351359,18.4736525 155.552332,18.1023862 C155.753304,17.7318297 156.021508,17.4201932 156.356944,17.1688963 C156.692379,16.9175994 157.082034,16.7294817 157.527354,16.6038332 C157.971951,16.4774749 158.438235,16.4150056 158.926207,16.4150056 M168.069143,18.354393 C167.654909,18.354393 167.316582,18.447387 167.054161,18.6326652 C166.791741,18.8186533 166.594383,19.0486539 166.45992,19.3240866 C166.374615,19.4916179 166.322564,19.6506306 166.304491,19.799705 C166.286418,19.9494893 166.270514,20.126249 166.258947,20.3299841 L169.861266,20.3299841 C169.848977,20.126249 169.833795,19.9494893 169.815722,19.799705 C169.796926,19.6506306 169.744876,19.4916179 169.660294,19.3240866 C169.525831,19.0486539 169.32775,18.8186533 169.066052,18.6326652 C168.803632,18.447387 168.471811,18.354393 168.069143,18.354393 M168.069143,16.4150056 C168.727725,16.4150056 169.31546,16.5257466 169.833795,16.7472286 C170.35213,16.9687107 170.787329,17.2796373 171.141561,17.6807185 C171.494347,18.0825096 171.763273,18.5609675 171.946173,19.1168022 C172.129072,19.6740566 172.22016,20.2817123 172.22016,20.9404793 L172.22016,21.9272101 L166.258947,21.9272101 C166.258947,22.5384152 166.43534,23.0381695 166.788849,23.4271828 C167.142358,23.816196 167.660693,24.0107027 168.343854,24.0107027 C168.867249,24.0107027 169.282206,23.9361655 169.587279,23.7856713 C169.891629,23.6365969 170.190196,23.4179544 170.482979,23.1304537 L171.946173,24.5132965 C171.701825,24.7525254 171.4582,24.9654889 171.214576,25.1507671 C170.970228,25.3367552 170.705639,25.4922185 170.418639,25.617867 C170.132362,25.7428056 169.818614,25.8357996 169.477395,25.8961393 C169.136176,25.955769 168.751581,25.9855839 168.325058,25.9855839 C167.751781,25.9855839 167.203083,25.9138862 166.679688,25.7704908 C166.154847,25.6270954 165.68567,25.3722491 165.271436,25.0066618 C164.857202,24.6417844 164.52755,24.1512586 164.283925,23.5343744 C164.0403,22.9182001 163.918127,22.137334 163.918127,21.1910664 C163.918127,20.4258176 164.018613,19.7457543 164.220308,19.153006 C164.42128,18.5609675 164.704666,18.0612132 165.070464,17.654453 C165.436262,17.2469829 165.871461,16.9388958 166.377506,16.7294817 C166.883552,16.5200676 167.447431,16.4150056 168.069143,16.4150056" id="OB" fill="#FFFFFF"></path>
            <path d="M91.90016,53.1296549 C92.71616,53.1296549 93.48016,53.0176549 94.19216,52.7936549 C94.90416,52.5696549 95.54416,52.2256549 96.11216,51.7616549 C96.68016,51.2976549 97.15616,50.7176549 97.54016,50.0216549 C97.92416,49.3256549 98.19616,48.5056549 98.35616,47.5616549 L98.35616,47.5616549 L94.08416,47.5616549 C93.95616,48.0416549 93.73216,48.4656549 93.41216,48.8336549 C93.09216,49.2016549 92.58816,49.3856549 91.90016,49.3856549 C91.51616,49.3856549 91.18416,49.3176549 90.90416,49.1816549 C90.62416,49.0456549 90.40416,48.8736549 90.24416,48.6656549 C90.14816,48.5376549 90.06016,48.3936549 89.98016,48.2336549 C89.90016,48.0736549 89.83216,47.8416549 89.77616,47.5376549 C89.72016,47.2336549 89.67616,46.8376549 89.64416,46.3496549 C89.61216,45.8616549 89.59616,45.2256549 89.59616,44.4416549 L89.59714,44.1147161 C89.601058,43.478961 89.616731,42.9519406 89.64416,42.5336549 C89.67616,42.0456549 89.72016,41.6496549 89.77616,41.3456549 C89.83216,41.0416549 89.90016,40.8096549 89.98016,40.6496549 C90.06016,40.4896549 90.14816,40.3456549 90.24416,40.2176549 C90.40416,40.0096549 90.62416,39.8376549 90.90416,39.7016549 C91.18416,39.5656549 91.51616,39.4976549 91.90016,39.4976549 C92.58816,39.4976549 93.09216,39.6816549 93.41216,40.0496549 C93.73216,40.4176549 93.95616,40.8416549 94.08416,41.3216549 L94.08416,41.3216549 L98.35616,41.3216549 C98.19616,40.3776549 97.92416,39.5576549 97.54016,38.8616549 C97.15616,38.1656549 96.68016,37.5856549 96.11216,37.1216549 C95.54416,36.6576549 94.90416,36.3136549 94.19216,36.0896549 C93.48016,35.8656549 92.71616,35.7536549 91.90016,35.7536549 C90.84416,35.7536549 89.94016,35.9136549 89.18816,36.2336549 C88.43616,36.5536549 87.75616,37.0176549 87.14816,37.6256549 C86.71616,38.0576549 86.38016,38.5216549 86.14016,39.0176549 C85.90016,39.5136549 85.72416,40.0456549 85.61216,40.6136549 C85.50016,41.1816549 85.43616,41.7816549 85.42016,42.4136549 C85.40416,43.0456549 85.39616,43.7216549 85.39616,44.4416549 C85.39616,45.1616549 85.40416,45.8376549 85.42016,46.4696549 C85.43616,47.1016549 85.50016,47.7016549 85.61216,48.2696549 C85.72416,48.8376549 85.90016,49.3696549 86.14016,49.8656549 C86.38016,50.3616549 86.71616,50.8256549 87.14816,51.2576549 C87.75616,51.8656549 88.43616,52.3296549 89.18816,52.6496549 C89.94016,52.9696549 90.84416,53.1296549 91.90016,53.1296549 Z M105.30016,52.9856549 L105.30016,49.6736549 L103.93216,49.6736549 C103.40416,49.6736549 103.14016,49.4096549 103.14016,48.8816549 L103.14016,48.8816549 L103.14016,35.8976549 L99.20416,35.8976549 L99.20416,49.1696549 C99.20416,49.6176549 99.28016,50.0656549 99.43216,50.5136549 C99.58416,50.9616549 99.82016,51.3696549 100.14016,51.7376549 C100.46016,52.1056549 100.87216,52.4056549 101.37616,52.6376549 C101.88016,52.8696549 102.49216,52.9856549 103.21216,52.9856549 L103.21216,52.9856549 L105.30016,52.9856549 Z M111.38016,53.1296549 C112.42016,53.1296549 113.27616,52.9576549 113.94816,52.6136549 C114.62016,52.2696549 115.14816,51.8896549 115.53216,51.4736549 C115.80416,51.1856549 116.03216,50.8816549 116.21616,50.5616549 C116.40016,50.2416549 116.54416,49.8896549 116.64816,49.5056549 C116.75216,49.1216549 116.82816,48.6896549 116.87616,48.2096549 C116.92416,47.7296549 116.94816,47.1696549 116.94816,46.5296549 C116.94816,45.9056549 116.92416,45.3496549 116.87616,44.8616549 C116.82816,44.3736549 116.75216,43.9376549 116.64816,43.5536549 C116.54416,43.1696549 116.40016,42.8176549 116.21616,42.4976549 C116.03216,42.1776549 115.80416,41.8736549 115.53216,41.5856549 C115.34016,41.3776549 115.11216,41.1776549 114.84816,40.9856549 C114.58416,40.7936549 114.28416,40.6176549 113.94816,40.4576549 C113.61216,40.2976549 113.23216,40.1696549 112.80816,40.0736549 C112.38416,39.9776549 111.90816,39.9296549 111.38016,39.9296549 C110.85216,39.9296549 110.37616,39.9776549 109.95216,40.0736549 C109.52816,40.1696549 109.14816,40.2976549 108.81216,40.4576549 C108.47616,40.6176549 108.17616,40.7936549 107.91216,40.9856549 C107.64816,41.1776549 107.42016,41.3776549 107.22816,41.5856549 C106.95616,41.8736549 106.72816,42.1776549 106.54416,42.4976549 C106.36016,42.8176549 106.21616,43.1696549 106.11216,43.5536549 C106.00816,43.9376549 105.93216,44.3736549 105.88416,44.8616549 C105.83616,45.3496549 105.81216,45.9056549 105.81216,46.5296549 C105.81216,47.1696549 105.83616,47.7296549 105.88416,48.2096549 C105.93216,48.6896549 106.00816,49.1216549 106.11216,49.5056549 C106.21616,49.8896549 106.36016,50.2416549 106.54416,50.5616549 C106.72816,50.8816549 106.95616,51.1856549 107.22816,51.4736549 C107.61216,51.8896549 108.14016,52.2696549 108.81216,52.6136549 C109.48416,52.9576549 110.34016,53.1296549 111.38016,53.1296549 Z M111.38016,49.5776549 C110.91616,49.5776549 110.56416,49.4576549 110.32416,49.2176549 C110.06816,48.9616549 109.90816,48.6096549 109.84416,48.1616549 C109.78016,47.7136549 109.74816,47.1696549 109.74816,46.5296549 C109.74816,45.8896549 109.78016,45.3456549 109.84416,44.8976549 C109.90816,44.4496549 110.06816,44.0976549 110.32416,43.8416549 C110.56416,43.6016549 110.91616,43.4816549 111.38016,43.4816549 C111.84416,43.4816549 112.19616,43.6016549 112.43616,43.8416549 C112.69216,44.0976549 112.85216,44.4496549 112.91616,44.8976549 C112.98016,45.3456549 113.01216,45.8896549 113.01216,46.5296549 C113.01216,47.1696549 112.98016,47.7136549 112.91616,48.1616549 C112.85216,48.6096549 112.69216,48.9616549 112.43616,49.2176549 C112.19616,49.4576549 111.84416,49.5776549 111.38016,49.5776549 Z M122.54816,53.1296549 C123.06016,53.1296549 123.58816,53.0296549 124.13216,52.8296549 C124.67616,52.6296549 125.14816,52.3296549 125.54816,51.9296549 L125.54816,51.9296549 L125.54816,52.9856549 L129.38816,52.9856549 L129.38816,40.0736549 L125.45216,40.0736549 L125.45216,47.8016549 C125.45216,48.1696549 125.39616,48.4696549 125.28416,48.7016549 C125.17216,48.9336549 125.03216,49.1136549 124.86416,49.2416549 C124.69616,49.3696549 124.52016,49.4576549 124.33616,49.5056549 C124.15216,49.5536549 123.99616,49.5776549 123.86816,49.5776549 C123.74016,49.5776549 123.58416,49.5536549 123.40016,49.5056549 C123.21616,49.4576549 123.04016,49.3696549 122.87216,49.2416549 C122.70416,49.1136549 122.56416,48.9336549 122.45216,48.7016549 C122.34016,48.4696549 122.28416,48.1696549 122.28416,47.8016549 L122.28416,47.8016549 L122.28416,40.0736549 L118.34816,40.0736549 L118.34816,48.3296549 C118.34816,49.0176549 118.42416,49.6656549 118.57616,50.2736549 C118.72816,50.8816549 119.08416,51.4656549 119.64416,52.0256549 C119.99616,52.3776549 120.41616,52.6496549 120.90416,52.8416549 C121.39216,53.0336549 121.94016,53.1296549 122.54816,53.1296549 Z M135.25216,53.1296549 C135.92416,53.1296549 136.48816,53.0296549 136.94416,52.8296549 C137.40016,52.6296549 137.82816,52.3296549 138.22816,51.9296549 L138.22816,51.9296549 L138.22816,52.9856549 L142.04416,52.9856549 L142.04416,35.8976549 L138.10816,35.8976549 L138.10816,41.0096549 C137.74016,40.6416549 137.32816,40.3696549 136.87216,40.1936549 C136.41616,40.0176549 135.86816,39.9296549 135.22816,39.9296549 C134.60416,39.9296549 134.02416,40.0296549 133.48816,40.2296549 C132.95216,40.4296549 132.50016,40.7216549 132.13216,41.1056549 C131.82816,41.4256549 131.59616,41.7816549 131.43616,42.1736549 C131.27616,42.5656549 131.15616,42.9896549 131.07616,43.4456549 C130.99616,43.9016549 130.94816,44.3896549 130.93216,44.9096549 C130.91616,45.4296549 130.90816,45.9696549 130.90816,46.5296549 C130.90816,47.0896549 130.91616,47.6296549 130.93216,48.1496549 C130.94816,48.6696549 130.99616,49.1576549 131.07616,49.6136549 C131.15616,50.0696549 131.27616,50.4976549 131.43616,50.8976549 C131.59616,51.2976549 131.82816,51.6496549 132.13216,51.9536549 C132.50016,52.3376549 132.95616,52.6296549 133.50016,52.8296549 C134.04416,53.0296549 134.62816,53.1296549 135.25216,53.1296549 Z M136.47616,49.5776549 C136.10816,49.5776549 135.81616,49.5056549 135.60016,49.3616549 C135.38416,49.2176549 135.22016,49.0136549 135.10816,48.7496549 C134.99616,48.4856549 134.92416,48.1656549 134.89216,47.7896549 C134.86016,47.4136549 134.84416,46.9936549 134.84416,46.5296549 C134.84416,46.0656549 134.86016,45.6456549 134.89216,45.2696549 C134.92416,44.8936549 134.99616,44.5736549 135.10816,44.3096549 C135.22016,44.0456549 135.38416,43.8416549 135.60016,43.6976549 C135.81616,43.5536549 136.10816,43.4816549 136.47616,43.4816549 C136.84416,43.4816549 137.13616,43.5536549 137.35216,43.6976549 C137.56816,43.8416549 137.73216,44.0456549 137.84416,44.3096549 C137.95616,44.5736549 138.02816,44.8936549 138.06016,45.2696549 C138.09216,45.6456549 138.10816,46.0656549 138.10816,46.5296549 C138.10816,46.9936549 138.09216,47.4136549 138.06016,47.7896549 C138.02816,48.1656549 137.95616,48.4856549 137.84416,48.7496549 C137.73216,49.0136549 137.56816,49.2176549 137.35216,49.3616549 C137.13616,49.5056549 136.84416,49.5776549 136.47616,49.5776549 Z M152.78816,52.9856549 L152.78816,46.8896549 L155.35616,46.8896549 C156.30016,46.8896549 157.13616,46.7336549 157.86416,46.4216549 C158.59216,46.1096549 159.20016,45.6976549 159.68816,45.1856549 C160.17616,44.6736549 160.54816,44.0896549 160.80416,43.4336549 C161.06016,42.7776549 161.18816,42.0976549 161.18816,41.3936549 C161.18816,40.6896549 161.06016,40.0096549 160.80416,39.3536549 C160.54816,38.6976549 160.17616,38.1136549 159.68816,37.6016549 C159.20016,37.0896549 158.59216,36.6776549 157.86416,36.3656549 C157.13616,36.0536549 156.30016,35.8976549 155.35616,35.8976549 L155.35616,35.8976549 L148.58816,35.8976549 L148.58816,52.9856549 L152.78816,52.9856549 Z M155.16416,43.1456549 L152.78816,43.1456549 L152.78816,39.6416549 L155.16416,39.6416549 C155.74016,39.6416549 156.18816,39.8176549 156.50816,40.1696549 C156.82816,40.5216549 156.98816,40.9296549 156.98816,41.3936549 C156.98816,41.8576549 156.82816,42.2656549 156.50816,42.6176549 C156.18816,42.9696549 155.74016,43.1456549 155.16416,43.1456549 L155.16416,43.1456549 Z M168.37216,52.9856549 L168.37216,49.6736549 L167.00416,49.6736549 C166.47616,49.6736549 166.21216,49.4096549 166.21216,48.8816549 L166.21216,48.8816549 L166.21216,35.8976549 L162.27616,35.8976549 L162.27616,49.1696549 C162.27616,49.6176549 162.35216,50.0656549 162.50416,50.5136549 C162.65616,50.9616549 162.89216,51.3696549 163.21216,51.7376549 C163.53216,52.1056549 163.94416,52.4056549 164.44816,52.6376549 C164.95216,52.8696549 165.56416,52.9856549 166.28416,52.9856549 L166.28416,52.9856549 L168.37216,52.9856549 Z M172.96416,53.1056549 C173.65216,53.1056549 174.20416,53.0096549 174.62016,52.8176549 C175.03616,52.6256549 175.44416,52.3296549 175.84416,51.9296549 L175.84416,51.9296549 L175.84416,52.9856549 L179.68416,52.9856549 L179.68416,44.6096549 C179.68416,43.0256549 179.20016,41.8496549 178.23216,41.0816549 C177.26416,40.3136549 175.85216,39.9296549 173.99616,39.9296549 C173.45216,39.9296549 172.96416,39.9616549 172.53216,40.0256549 C172.10016,40.0896549 171.70016,40.1896549 171.33216,40.3256549 C170.96416,40.4616549 170.62016,40.6416549 170.30016,40.8656549 C169.98016,41.0896549 169.65216,41.3696549 169.31616,41.7056549 L169.31616,41.7056549 L171.76416,44.1536549 C172.08416,43.8336549 172.39216,43.6016549 172.68816,43.4576549 C172.98416,43.3136549 173.35616,43.2416549 173.80416,43.2416549 C174.49216,43.2416549 174.98816,43.3616549 175.29216,43.6016549 C175.59616,43.8416549 175.74816,44.2576549 175.74816,44.8496549 L175.74816,44.8496549 L175.74816,45.1856549 L173.20416,45.1856549 C172.42016,45.1856549 171.74416,45.2896549 171.17616,45.4976549 C170.60816,45.7056549 170.14416,45.9816549 169.78416,46.3256549 C169.42416,46.6696549 169.16016,47.0696549 168.99216,47.5256549 C168.82416,47.9816549 168.74016,48.4496549 168.74016,48.9296549 C168.74016,49.5376549 168.83616,50.1016549 169.02816,50.6216549 C169.22016,51.1416549 169.50016,51.5856549 169.86816,51.9536549 C170.23616,52.3216549 170.68016,52.6056549 171.20016,52.8056549 C171.72016,53.0056549 172.30816,53.1056549 172.96416,53.1056549 Z M173.92416,49.9136549 C173.44416,49.9136549 173.08816,49.8136549 172.85616,49.6136549 C172.62416,49.4136549 172.50816,49.1616549 172.50816,48.8576549 C172.50816,48.5376549 172.62016,48.2816549 172.84416,48.0896549 C173.06816,47.8976549 173.41216,47.8016549 173.87616,47.8016549 L173.87616,47.8016549 L175.74816,47.8016549 L175.74816,48.1376549 C175.74816,48.4736549 175.72016,48.7416549 175.66416,48.9416549 C175.60816,49.1416549 175.50016,49.3136549 175.34016,49.4576549 C175.13216,49.6336549 174.92416,49.7536549 174.71616,49.8176549 C174.50816,49.8816549 174.24416,49.9136549 173.92416,49.9136549 Z M187.70816,52.9856549 L187.70816,49.6736549 L186.46016,49.6736549 C185.93216,49.6736549 185.66816,49.4096549 185.66816,48.8816549 L185.66816,48.8816549 L185.66816,43.6016549 L187.70816,43.6016549 L187.70816,40.5776549 L185.66816,40.5776549 L185.66816,36.8816549 L181.73216,36.8816549 L181.73216,40.5776549 L180.55616,40.5776549 L180.55616,43.6016549 L181.73216,43.6016549 L181.73216,49.1696549 C181.73216,49.6176549 181.80816,50.0656549 181.96016,50.5136549 C182.11216,50.9616549 182.34816,51.3696549 182.66816,51.7376549 C182.98816,52.1056549 183.40016,52.4056549 183.90416,52.6376549 C184.40816,52.8696549 185.02016,52.9856549 185.74016,52.9856549 L185.74016,52.9856549 L187.70816,52.9856549 Z M193.50016,52.9856549 L193.50016,43.6016549 L195.66016,43.6016549 L195.66016,40.5776549 L193.50016,40.5776549 L193.50016,39.7376549 C193.50016,39.2096549 193.76416,38.9456549 194.29216,38.9456549 L194.29216,38.9456549 L195.66016,38.9456549 L195.66016,35.6336549 L193.57216,35.6336549 C192.85216,35.6336549 192.24016,35.7496549 191.73616,35.9816549 C191.23216,36.2136549 190.82016,36.5136549 190.50016,36.8816549 C190.18016,37.2496549 189.94416,37.6576549 189.79216,38.1056549 C189.64016,38.5536549 189.56416,39.0016549 189.56416,39.4496549 L189.56416,39.4496549 L189.56416,40.5776549 L188.38816,40.5776549 L188.38816,43.6016549 L189.56416,43.6016549 L189.56416,52.9856549 L193.50016,52.9856549 Z M201.50016,53.1296549 C202.54016,53.1296549 203.39616,52.9576549 204.06816,52.6136549 C204.74016,52.2696549 205.26816,51.8896549 205.65216,51.4736549 C205.92416,51.1856549 206.15216,50.8816549 206.33616,50.5616549 C206.52016,50.2416549 206.66416,49.8896549 206.76816,49.5056549 C206.87216,49.1216549 206.94816,48.6896549 206.99616,48.2096549 C207.04416,47.7296549 207.06816,47.1696549 207.06816,46.5296549 C207.06816,45.9056549 207.04416,45.3496549 206.99616,44.8616549 C206.94816,44.3736549 206.87216,43.9376549 206.76816,43.5536549 C206.66416,43.1696549 206.52016,42.8176549 206.33616,42.4976549 C206.15216,42.1776549 205.92416,41.8736549 205.65216,41.5856549 C205.46016,41.3776549 205.23216,41.1776549 204.96816,40.9856549 C204.70416,40.7936549 204.40416,40.6176549 204.06816,40.4576549 C203.73216,40.2976549 203.35216,40.1696549 202.92816,40.0736549 C202.50416,39.9776549 202.02816,39.9296549 201.50016,39.9296549 C200.97216,39.9296549 200.49616,39.9776549 200.07216,40.0736549 C199.64816,40.1696549 199.26816,40.2976549 198.93216,40.4576549 C198.59616,40.6176549 198.29616,40.7936549 198.03216,40.9856549 C197.76816,41.1776549 197.54016,41.3776549 197.34816,41.5856549 C197.07616,41.8736549 196.84816,42.1776549 196.66416,42.4976549 C196.48016,42.8176549 196.33616,43.1696549 196.23216,43.5536549 C196.12816,43.9376549 196.05216,44.3736549 196.00416,44.8616549 C195.95616,45.3496549 195.93216,45.9056549 195.93216,46.5296549 C195.93216,47.1696549 195.95616,47.7296549 196.00416,48.2096549 C196.05216,48.6896549 196.12816,49.1216549 196.23216,49.5056549 C196.33616,49.8896549 196.48016,50.2416549 196.66416,50.5616549 C196.84816,50.8816549 197.07616,51.1856549 197.34816,51.4736549 C197.73216,51.8896549 198.26016,52.2696549 198.93216,52.6136549 C199.60416,52.9576549 200.46016,53.1296549 201.50016,53.1296549 Z M201.50016,49.5776549 C201.03616,49.5776549 200.68416,49.4576549 200.44416,49.2176549 C200.18816,48.9616549 200.02816,48.6096549 199.96416,48.1616549 C199.90016,47.7136549 199.86816,47.1696549 199.86816,46.5296549 C199.86816,45.8896549 199.90016,45.3456549 199.96416,44.8976549 C200.02816,44.4496549 200.18816,44.0976549 200.44416,43.8416549 C200.68416,43.6016549 201.03616,43.4816549 201.50016,43.4816549 C201.96416,43.4816549 202.31616,43.6016549 202.55616,43.8416549 C202.81216,44.0976549 202.97216,44.4496549 203.03616,44.8976549 C203.10016,45.3456549 203.13216,45.8896549 203.13216,46.5296549 C203.13216,47.1696549 203.10016,47.7136549 203.03616,48.1616549 C202.97216,48.6096549 202.81216,48.9616549 202.55616,49.2176549 C202.31616,49.4576549 201.96416,49.5776549 201.50016,49.5776549 Z M212.52416,52.9856549 L212.52416,45.2576549 C212.52416,44.8896549 212.58016,44.5896549 212.69216,44.3576549 C212.80416,44.1256549 212.94416,43.9456549 213.11216,43.8176549 C213.28016,43.6896549 213.45616,43.6016549 213.64016,43.5536549 C213.82416,43.5056549 213.98016,43.4816549 214.10816,43.4816549 C214.44416,43.4816549 214.71616,43.5456549 214.92416,43.6736549 C215.13216,43.8016549 215.33216,43.9616549 215.52416,44.1536549 L215.52416,44.1536549 L218.50016,41.1296549 C218.05216,40.6816549 217.59616,40.3696549 217.13216,40.1936549 C216.66816,40.0176549 216.11616,39.9296549 215.47616,39.9296549 C214.80416,39.9296549 214.20016,40.0576549 213.66416,40.3136549 C213.12816,40.5696549 212.71616,40.8416549 212.42816,41.1296549 L212.42816,41.1296549 L212.42816,40.0736549 L208.58816,40.0736549 L208.58816,52.9856549 L212.52416,52.9856549 Z M222.92416,52.9856549 L222.92416,45.2576549 C222.92416,44.8896549 222.98016,44.5896549 223.09216,44.3576549 C223.20416,44.1256549 223.34416,43.9456549 223.51216,43.8176549 C223.68016,43.6896549 223.85616,43.6016549 224.04016,43.5536549 C224.22416,43.5056549 224.38016,43.4816549 224.50816,43.4816549 C224.63616,43.4816549 224.79216,43.5056549 224.97616,43.5536549 C225.16016,43.6016549 225.33616,43.6896549 225.50416,43.8176549 C225.67216,43.9456549 225.81216,44.1256549 225.92416,44.3576549 C226.03616,44.5896549 226.09216,44.8896549 226.09216,45.2576549 L226.09216,45.2576549 L226.09216,52.9856549 L230.02816,52.9856549 L230.02816,45.2576549 C230.02816,44.8896549 230.08416,44.5896549 230.19616,44.3576549 C230.30816,44.1256549 230.44816,43.9456549 230.61616,43.8176549 C230.78416,43.6896549 230.96016,43.6016549 231.14416,43.5536549 C231.32816,43.5056549 231.48416,43.4816549 231.61216,43.4816549 C231.74016,43.4816549 231.89616,43.5056549 232.08016,43.5536549 C232.26416,43.6016549 232.44016,43.6896549 232.60816,43.8176549 C232.77616,43.9456549 232.91616,44.1256549 233.02816,44.3576549 C233.14016,44.5896549 233.19616,44.8896549 233.19616,45.2576549 L233.19616,45.2576549 L233.19616,52.9856549 L237.13216,52.9856549 L237.13216,44.7296549 C237.13216,44.0416549 237.03616,43.3936549 236.84416,42.7856549 C236.65216,42.1776549 236.27616,41.5936549 235.71616,41.0336549 C235.36416,40.6816549 234.91216,40.4096549 234.36016,40.2176549 C233.80816,40.0256549 233.22816,39.9296549 232.62016,39.9296549 C231.86816,39.9296549 231.21216,40.0336549 230.65216,40.2416549 C230.09216,40.4496549 229.53216,40.8016549 228.97216,41.2976549 C228.55616,40.8176549 228.08816,40.4696549 227.56816,40.2536549 C227.04816,40.0376549 226.46816,39.9296549 225.82816,39.9296549 C225.31616,39.9296549 224.78816,40.0296549 224.24416,40.2296549 C223.70016,40.4296549 223.22816,40.7296549 222.82816,41.1296549 L222.82816,41.1296549 L222.82816,40.0736549 L218.98816,40.0736549 L218.98816,52.9856549 L222.92416,52.9856549 Z" id="CloudPlatform" fill="#FFFFFF"></path>
            <g id="01-导航/01标题栏/02产品名称/开源标签中文备份" transform="translate(179.1048, 10.9857)">
                <g id="形状结合" fill="url(#linearGradient-1)">
                    <path d="M2.03356072,0 L0,16.54 L41.0421151,16.54 C42.0490721,16.54 42.8990027,15.7913715 43.0261158,14.7924698 L44.6218668,2.25246978 C44.761302,1.15673642 43.9860692,0.155434452 42.8903358,0.0159992417 C42.8066011,0.00534376759 42.7222759,0 42.637866,0 L2.03356072,0 L2.03356072,0 Z" id="路径"></path>
                </g>
                <g id="Express" transform="translate(5.7066, 2.032)" fill="#FFFFFF">
                    <polygon id="路径" points="1.87330769 0 5.61992308 0 5.36926923 1.33 3.02103846 1.33 2.48015385 4.242 4.49857692 4.242 4.24792308 5.558 2.2295 5.558 1.64903846 8.638 3.99726923 8.638 3.74661538 9.968 0 9.968"></polygon>
                    <polygon id="路径" points="6.55657692 6.174 5.79142308 2.59 7.17661538 2.59 7.58557692 4.928 8.81246154 2.59 10.2636154 2.59 8.0605 6.3 8.97076923 9.968 7.58557692 9.968 7.12384615 7.588 5.85738462 9.968 4.39303846 9.968"></polygon>
                    <path d="M11.1343077,2.59 L12.4007692,2.59 L12.3084231,3.122 C12.3611923,3.04733333 12.4359487,2.96566667 12.5326923,2.877 C12.6294359,2.78833333 12.7129872,2.72066667 12.7833462,2.674 C12.8800897,2.618 12.9878269,2.57133333 13.1065577,2.534 C13.2252885,2.49666667 13.3462179,2.478 13.4693462,2.478 C13.6980128,2.478 13.9046923,2.52 14.0893846,2.604 C14.2740769,2.688 14.4235897,2.83733333 14.5379231,3.052 C14.6170769,3.192 14.6720449,3.339 14.7028269,3.493 C14.733609,3.647 14.749,3.822 14.749,4.018 C14.749,4.298 14.7226154,4.62233333 14.6698462,4.991 C14.6170769,5.35966667 14.5423205,5.78666667 14.4455769,6.272 C14.3400385,6.82266667 14.2454936,7.28233333 14.1619423,7.651 C14.078391,8.01966667 13.9970385,8.32533333 13.9178846,8.568 C13.8387308,8.81066667 13.7595769,9.00433333 13.6804231,9.149 C13.6012692,9.29366667 13.5133205,9.41733333 13.4165769,9.52 C13.2494744,9.688 13.0691795,9.82333333 12.8756923,9.926 C12.6822051,10.0286667 12.4403462,10.08 12.1501154,10.08 C11.9918077,10.08 11.8554872,10.0566667 11.7411538,10.01 C11.6268205,9.96333333 11.5388718,9.91666667 11.4773077,9.87 C11.3365897,9.74866667 11.2310513,9.62266667 11.1606923,9.492 L10.5802308,12.558 L9.261,12.558 L11.1343077,2.59 Z M11.9390385,8.834 C12.1237308,8.834 12.2908333,8.75466667 12.4403462,8.596 C12.5810641,8.456 12.7019936,8.17833333 12.8031346,7.763 C12.9042756,7.34766667 13.0120128,6.85066667 13.1263462,6.272 C13.2230897,5.768 13.2934487,5.369 13.3374231,5.075 C13.3813974,4.781 13.4033846,4.55 13.4033846,4.382 C13.4033846,4.158 13.3594103,3.99933333 13.2714615,3.906 C13.1659231,3.78466667 13.0427949,3.724 12.9020769,3.724 C12.7173846,3.724 12.5546795,3.78933333 12.4139615,3.92 C12.3260128,4.01333333 12.2534551,4.11833333 12.1962885,4.235 C12.1391218,4.35166667 12.0929487,4.50333333 12.0577692,4.69 L11.4641154,7.868 C11.4377308,8.02666667 11.4245385,8.15266667 11.4245385,8.246 C11.4245385,8.43266667 11.4729103,8.582 11.5696538,8.694 C11.6488077,8.78733333 11.7719359,8.834 11.9390385,8.834 Z" id="形状"></path>
                    <path d="M16.2265385,2.59 L17.493,2.59 L17.3478846,3.374 C17.5149872,3.11266667 17.734859,2.90266667 18.0075,2.744 C18.1746026,2.64133333 18.3505,2.57133333 18.5351923,2.534 C18.7198846,2.49666667 18.9177692,2.478 19.1288462,2.478 L18.865,3.836 L18.4164615,3.836 C18.108641,3.836 17.8250064,3.955 17.5655577,4.193 C17.306109,4.431 17.1368077,4.76 17.0576538,5.18 L16.1605769,9.968 L14.8413462,9.968 L16.2265385,2.59 Z" id="路径"></path>
                    <path d="M20.3953077,10.08 C19.7005128,10.08 19.2167949,9.82333333 18.9441538,9.31 C18.865,9.16066667 18.8100321,9.002 18.77925,8.834 C18.7484679,8.666 18.7330769,8.47466667 18.7330769,8.26 C18.7330769,8.04533333 18.7550641,7.777 18.7990385,7.455 C18.8430128,7.133 18.9089744,6.73866667 18.9969231,6.272 C19.0848718,5.81466667 19.1684231,5.42033333 19.2475769,5.089 C19.3267308,4.75766667 19.4058846,4.47066667 19.4850385,4.228 C19.5641923,3.98533333 19.6477436,3.78 19.7356923,3.612 C19.823641,3.444 19.9203846,3.29466667 20.0259231,3.164 C20.2106154,2.94 20.4326859,2.76966667 20.6921346,2.653 C20.9515833,2.53633333 21.2791923,2.478 21.6749615,2.478 C22.0267564,2.478 22.310391,2.53866667 22.5258654,2.66 C22.7413397,2.78133333 22.9062436,2.93066667 23.0205769,3.108 C23.1964744,3.37866667 23.2844231,3.76133333 23.2844231,4.256 C23.2844231,4.58266667 23.2558397,4.94433333 23.1986731,5.341 C23.1415064,5.73766667 23.0645513,6.188 22.9678077,6.692 L20.237,6.692 C20.166641,7.03733333 20.1138718,7.34066667 20.0786923,7.602 C20.0435128,7.86333333 20.0259231,8.064 20.0259231,8.204 C20.0259231,8.40933333 20.0742949,8.568 20.1710385,8.68 C20.2501923,8.78266667 20.3733205,8.834 20.5404231,8.834 C20.6283718,8.834 20.7141218,8.82 20.7976731,8.792 C20.8812244,8.764 20.9581795,8.71266667 21.0285385,8.638 C21.1868462,8.47933333 21.3099744,8.20866667 21.3979231,7.826 L22.7171538,7.826 C22.6292051,8.218 22.5324615,8.53066667 22.4269231,8.764 C22.3213846,8.99733333 22.1850641,9.212 22.0179615,9.408 C21.8332692,9.62266667 21.6111987,9.78833333 21.35175,9.905 C21.0923013,10.0216667 20.7734872,10.08 20.3953077,10.08 Z M21.8464615,5.628 C21.9607949,5.07733333 22.0179615,4.65733333 22.0179615,4.368 C22.0179615,4.16266667 21.9783846,4.004 21.8992308,3.892 C21.8200769,3.78 21.6881538,3.724 21.5034615,3.724 C21.2747949,3.724 21.0901026,3.822 20.9493846,4.018 C20.8438462,4.158 20.7536987,4.354 20.6789423,4.606 C20.6041859,4.858 20.5228333,5.19866667 20.4348846,5.628 L21.8464615,5.628 Z" id="形状"></path>
                    <path d="M25.2632692,10.08 C24.9290641,10.08 24.6476282,10.0333333 24.4189615,9.94 C24.1902949,9.84666667 23.9880128,9.702 23.8121154,9.506 C23.6889872,9.35666667 23.596641,9.184 23.5350769,8.988 C23.4735128,8.792 23.4427308,8.58666667 23.4427308,8.372 C23.4427308,8.204 23.4603205,8.02666667 23.4955,7.84 L24.8015385,7.84 C24.7839487,7.896 24.7751538,7.952 24.7751538,8.008 L24.7751538,8.162 C24.7751538,8.34866667 24.8191282,8.50266667 24.9070769,8.624 C24.9510513,8.68 25.0148141,8.729 25.0983654,8.771 C25.1819167,8.813 25.2852564,8.834 25.4083846,8.834 C25.6370513,8.834 25.826141,8.75 25.9756538,8.582 C26.0723974,8.47 26.1405577,8.34633333 26.1801346,8.211 C26.2197115,8.07566667 26.2395,7.92866667 26.2395,7.77 C26.2395,7.602 26.2021218,7.44566667 26.1273654,7.301 C26.052609,7.15633333 25.9008974,7.01866667 25.6722308,6.888 L25.039,6.524 C24.7047949,6.33733333 24.4695321,6.111 24.3332115,5.845 C24.196891,5.579 24.1287308,5.28266667 24.1287308,4.956 C24.1287308,4.60133333 24.1880962,4.25133333 24.3068269,3.906 C24.4255577,3.56066667 24.6212436,3.262 24.8938846,3.01 C25.2544744,2.65533333 25.7469872,2.478 26.3714231,2.478 C26.7056282,2.478 26.9914615,2.53166667 27.2289231,2.639 C27.4663846,2.74633333 27.6554744,2.89333333 27.7961923,3.08 C27.8929359,3.22 27.969891,3.374 28.0270577,3.542 C28.0842244,3.71 28.1128077,3.90133333 28.1128077,4.116 C28.1128077,4.20933333 28.1062115,4.298 28.0930192,4.382 C28.0798269,4.466 28.0644359,4.55933333 28.0468462,4.662 L26.7935769,4.662 C26.8111667,4.59666667 26.8199615,4.54066667 26.8199615,4.494 L26.8199615,4.326 C26.8199615,4.16733333 26.7759872,4.02733333 26.6880385,3.906 C26.5825,3.78466667 26.4285897,3.724 26.2263077,3.724 C26.1295641,3.724 26.0350192,3.74266667 25.9426731,3.78 C25.8503269,3.81733333 25.7777692,3.864 25.725,3.92 C25.5403077,4.116 25.4479615,4.37733333 25.4479615,4.704 C25.4479615,5.00266667 25.6106667,5.24533333 25.9360769,5.432 L26.5561154,5.796 C26.9255,6.01066667 27.1871474,6.265 27.3410577,6.559 C27.4949679,6.853 27.5719231,7.182 27.5719231,7.546 C27.5719231,7.97533333 27.4971667,8.36266667 27.3476538,8.708 C27.198141,9.05333333 27.0178462,9.324 26.8067692,9.52 C26.4022051,9.89333333 25.8877051,10.08 25.2632692,10.08 Z" id="路径"></path>
                    <path d="M29.9993077,10.08 C29.6651026,10.08 29.3836667,10.0333333 29.155,9.94 C28.9263333,9.84666667 28.7240513,9.702 28.5481538,9.506 C28.4250256,9.35666667 28.3326795,9.184 28.2711154,8.988 C28.2095513,8.792 28.1787692,8.58666667 28.1787692,8.372 C28.1787692,8.204 28.196359,8.02666667 28.2315385,7.84 L29.5375769,7.84 C29.5199872,7.896 29.5111923,7.952 29.5111923,8.008 L29.5111923,8.162 C29.5111923,8.34866667 29.5551667,8.50266667 29.6431154,8.624 C29.6870897,8.68 29.7508526,8.729 29.8344038,8.771 C29.9179551,8.813 30.0212949,8.834 30.1444231,8.834 C30.3730897,8.834 30.5621795,8.75 30.7116923,8.582 C30.8084359,8.47 30.8765962,8.34633333 30.9161731,8.211 C30.95575,8.07566667 30.9755385,7.92866667 30.9755385,7.77 C30.9755385,7.602 30.9381603,7.44566667 30.8634038,7.301 C30.7886474,7.15633333 30.6369359,7.01866667 30.4082692,6.888 L29.7750385,6.524 C29.4408333,6.33733333 29.2055705,6.111 29.06925,5.845 C28.9329295,5.579 28.8647692,5.28266667 28.8647692,4.956 C28.8647692,4.60133333 28.9241346,4.25133333 29.0428654,3.906 C29.1615962,3.56066667 29.3572821,3.262 29.6299231,3.01 C29.9905128,2.65533333 30.4830256,2.478 31.1074615,2.478 C31.4416667,2.478 31.7275,2.53166667 31.9649615,2.639 C32.2024231,2.74633333 32.3915128,2.89333333 32.5322308,3.08 C32.6289744,3.22 32.7059295,3.374 32.7630962,3.542 C32.8202628,3.71 32.8488462,3.90133333 32.8488462,4.116 C32.8488462,4.20933333 32.84225,4.298 32.8290577,4.382 C32.8158654,4.466 32.8004744,4.55933333 32.7828846,4.662 L31.5296154,4.662 C31.5472051,4.59666667 31.556,4.54066667 31.556,4.494 L31.556,4.326 C31.556,4.16733333 31.5120256,4.02733333 31.4240769,3.906 C31.3185385,3.78466667 31.1646282,3.724 30.9623462,3.724 C30.8656026,3.724 30.7710577,3.74266667 30.6787115,3.78 C30.5863654,3.81733333 30.5138077,3.864 30.4610385,3.92 C30.2763462,4.116 30.184,4.37733333 30.184,4.704 C30.184,5.00266667 30.3467051,5.24533333 30.6721154,5.432 L31.2921538,5.796 C31.6615385,6.01066667 31.9231859,6.265 32.0770962,6.559 C32.2310064,6.853 32.3079615,7.182 32.3079615,7.546 C32.3079615,7.97533333 32.2332051,8.36266667 32.0836923,8.708 C31.9341795,9.05333333 31.7538846,9.324 31.5428077,9.52 C31.1382436,9.89333333 30.6237436,10.08 29.9993077,10.08 Z" id="路径"></path>
                </g>
            </g>
        </g>
    </g>
</svg>