<?xml version="1.0" encoding="UTF-8"?>
<!--
  - Copyright (c) 2023 OceanBase
  - OCP Express is licensed under Mulan PSL v2.
  - You can use this software according to the terms and conditions of the Mulan PSL v2.
  - You may obtain a copy of Mulan PSL v2 at:
  -          http://license.coscl.org.cn/MulanPSL2
  - THIS SOFTWARE IS PROVIDED ON AN "AS IS" BASIS, WITHOUT WARRANTIES OF ANY KIND,
  - EITHER EXPRESS OR IMPLIED, INCLUDING BUT NOT LIMITED TO NON-INFRINGEMENT,
  - MERCHANTABILITY OR FIT FOR A PARTICULAR PURPOSE.
  - See the Mulan PSL v2 for more details.
  -->

<svg width="118px" height="24px" viewBox="0 0 118 24" version="1.1" xmlns="http://www.w3.org/2000/svg" xmlns:xlink="http://www.w3.org/1999/xlink">
    <title>编组 5</title>
    <defs>
        <linearGradient x1="100%" y1="0%" x2="1.97876229%" y2="0%" id="linearGradient-1">
            <stop stop-color="#008F57" offset="0%"></stop>
            <stop stop-color="#2A66FF" offset="100%"></stop>
        </linearGradient>
    </defs>
    <g id="页面-2" stroke="none" stroke-width="1" fill="none" fill-rule="evenodd">
        <g id="3.1系统参数备份" transform="translate(-106.000000, -58.000000)">
            <g id="编组-5" transform="translate(106.000000, 57.933132)">
                <g id="01-导航/01标题栏/02产品名称/开源标签中文备份" transform="translate(73.384615, 3.000000)">
                    <g id="形状结合" fill="url(#linearGradient-1)">
                        <path d="M2.03356072,0 L0,16.54 L41.0421151,16.54 C42.0490721,16.54 42.8990027,15.7913715 43.0261158,14.7924698 L44.6218668,2.25246978 C44.761302,1.15673642 43.9860692,0.155434452 42.8903358,0.0159992417 C42.8066011,0.00534376759 42.7222759,-9.81523854e-16 42.637866,0 L2.03356072,0 L2.03356072,0 Z"></path>
                    </g>
                    <g id="Express" transform="translate(5.706615, 2.032000)" fill="#FFFFFF" fill-rule="nonzero">
                        <polygon id="路径" points="1.87330769 0 5.61992308 0 5.36926923 1.33 3.02103846 1.33 2.48015385 4.242 4.49857692 4.242 4.24792308 5.558 2.2295 5.558 1.64903846 8.638 3.99726923 8.638 3.74661538 9.968 0 9.968"></polygon>
                        <polygon id="路径" points="6.55657692 6.174 5.79142308 2.59 7.17661538 2.59 7.58557692 4.928 8.81246154 2.59 10.2636154 2.59 8.0605 6.3 8.97076923 9.968 7.58557692 9.968 7.12384615 7.588 5.85738462 9.968 4.39303846 9.968"></polygon>
                        <path d="M11.1343077,2.59 L12.4007692,2.59 L12.3084231,3.122 C12.3611923,3.04733333 12.4359487,2.96566667 12.5326923,2.877 C12.6294359,2.78833333 12.7129872,2.72066667 12.7833462,2.674 C12.8800897,2.618 12.9878269,2.57133333 13.1065577,2.534 C13.2252885,2.49666667 13.3462179,2.478 13.4693462,2.478 C13.6980128,2.478 13.9046923,2.52 14.0893846,2.604 C14.2740769,2.688 14.4235897,2.83733333 14.5379231,3.052 C14.6170769,3.192 14.6720449,3.339 14.7028269,3.493 C14.733609,3.647 14.749,3.822 14.749,4.018 C14.749,4.298 14.7226154,4.62233333 14.6698462,4.991 C14.6170769,5.35966667 14.5423205,5.78666667 14.4455769,6.272 C14.3400385,6.82266667 14.2454936,7.28233333 14.1619423,7.651 C14.078391,8.01966667 13.9970385,8.32533333 13.9178846,8.568 C13.8387308,8.81066667 13.7595769,9.00433333 13.6804231,9.149 C13.6012692,9.29366667 13.5133205,9.41733333 13.4165769,9.52 C13.2494744,9.688 13.0691795,9.82333333 12.8756923,9.926 C12.6822051,10.0286667 12.4403462,10.08 12.1501154,10.08 C11.9918077,10.08 11.8554872,10.0566667 11.7411538,10.01 C11.6268205,9.96333333 11.5388718,9.91666667 11.4773077,9.87 C11.3365897,9.74866667 11.2310513,9.62266667 11.1606923,9.492 L10.5802308,12.558 L9.261,12.558 L11.1343077,2.59 Z M11.9390385,8.834 C12.1237308,8.834 12.2908333,8.75466667 12.4403462,8.596 C12.5810641,8.456 12.7019936,8.17833333 12.8031346,7.763 C12.9042756,7.34766667 13.0120128,6.85066667 13.1263462,6.272 C13.2230897,5.768 13.2934487,5.369 13.3374231,5.075 C13.3813974,4.781 13.4033846,4.55 13.4033846,4.382 C13.4033846,4.158 13.3594103,3.99933333 13.2714615,3.906 C13.1659231,3.78466667 13.0427949,3.724 12.9020769,3.724 C12.7173846,3.724 12.5546795,3.78933333 12.4139615,3.92 C12.3260128,4.01333333 12.2534551,4.11833333 12.1962885,4.235 C12.1391218,4.35166667 12.0929487,4.50333333 12.0577692,4.69 L11.4641154,7.868 C11.4377308,8.02666667 11.4245385,8.15266667 11.4245385,8.246 C11.4245385,8.43266667 11.4729103,8.582 11.5696538,8.694 C11.6488077,8.78733333 11.7719359,8.834 11.9390385,8.834 Z" id="形状"></path>
                        <path d="M16.2265385,2.59 L17.493,2.59 L17.3478846,3.374 C17.5149872,3.11266667 17.734859,2.90266667 18.0075,2.744 C18.1746026,2.64133333 18.3505,2.57133333 18.5351923,2.534 C18.7198846,2.49666667 18.9177692,2.478 19.1288462,2.478 L18.865,3.836 L18.4164615,3.836 C18.108641,3.836 17.8250064,3.955 17.5655577,4.193 C17.306109,4.431 17.1368077,4.76 17.0576538,5.18 L16.1605769,9.968 L14.8413462,9.968 L16.2265385,2.59 Z" id="路径"></path>
                        <path d="M20.3953077,10.08 C19.7005128,10.08 19.2167949,9.82333333 18.9441538,9.31 C18.865,9.16066667 18.8100321,9.002 18.77925,8.834 C18.7484679,8.666 18.7330769,8.47466667 18.7330769,8.26 C18.7330769,8.04533333 18.7550641,7.777 18.7990385,7.455 C18.8430128,7.133 18.9089744,6.73866667 18.9969231,6.272 C19.0848718,5.81466667 19.1684231,5.42033333 19.2475769,5.089 C19.3267308,4.75766667 19.4058846,4.47066667 19.4850385,4.228 C19.5641923,3.98533333 19.6477436,3.78 19.7356923,3.612 C19.823641,3.444 19.9203846,3.29466667 20.0259231,3.164 C20.2106154,2.94 20.4326859,2.76966667 20.6921346,2.653 C20.9515833,2.53633333 21.2791923,2.478 21.6749615,2.478 C22.0267564,2.478 22.310391,2.53866667 22.5258654,2.66 C22.7413397,2.78133333 22.9062436,2.93066667 23.0205769,3.108 C23.1964744,3.37866667 23.2844231,3.76133333 23.2844231,4.256 C23.2844231,4.58266667 23.2558397,4.94433333 23.1986731,5.341 C23.1415064,5.73766667 23.0645513,6.188 22.9678077,6.692 L20.237,6.692 C20.166641,7.03733333 20.1138718,7.34066667 20.0786923,7.602 C20.0435128,7.86333333 20.0259231,8.064 20.0259231,8.204 C20.0259231,8.40933333 20.0742949,8.568 20.1710385,8.68 C20.2501923,8.78266667 20.3733205,8.834 20.5404231,8.834 C20.6283718,8.834 20.7141218,8.82 20.7976731,8.792 C20.8812244,8.764 20.9581795,8.71266667 21.0285385,8.638 C21.1868462,8.47933333 21.3099744,8.20866667 21.3979231,7.826 L22.7171538,7.826 C22.6292051,8.218 22.5324615,8.53066667 22.4269231,8.764 C22.3213846,8.99733333 22.1850641,9.212 22.0179615,9.408 C21.8332692,9.62266667 21.6111987,9.78833333 21.35175,9.905 C21.0923013,10.0216667 20.7734872,10.08 20.3953077,10.08 Z M21.8464615,5.628 C21.9607949,5.07733333 22.0179615,4.65733333 22.0179615,4.368 C22.0179615,4.16266667 21.9783846,4.004 21.8992308,3.892 C21.8200769,3.78 21.6881538,3.724 21.5034615,3.724 C21.2747949,3.724 21.0901026,3.822 20.9493846,4.018 C20.8438462,4.158 20.7536987,4.354 20.6789423,4.606 C20.6041859,4.858 20.5228333,5.19866667 20.4348846,5.628 L21.8464615,5.628 Z" id="形状"></path>
                        <path d="M25.2632692,10.08 C24.9290641,10.08 24.6476282,10.0333333 24.4189615,9.94 C24.1902949,9.84666667 23.9880128,9.702 23.8121154,9.506 C23.6889872,9.35666667 23.596641,9.184 23.5350769,8.988 C23.4735128,8.792 23.4427308,8.58666667 23.4427308,8.372 C23.4427308,8.204 23.4603205,8.02666667 23.4955,7.84 L24.8015385,7.84 C24.7839487,7.896 24.7751538,7.952 24.7751538,8.008 L24.7751538,8.162 C24.7751538,8.34866667 24.8191282,8.50266667 24.9070769,8.624 C24.9510513,8.68 25.0148141,8.729 25.0983654,8.771 C25.1819167,8.813 25.2852564,8.834 25.4083846,8.834 C25.6370513,8.834 25.826141,8.75 25.9756538,8.582 C26.0723974,8.47 26.1405577,8.34633333 26.1801346,8.211 C26.2197115,8.07566667 26.2395,7.92866667 26.2395,7.77 C26.2395,7.602 26.2021218,7.44566667 26.1273654,7.301 C26.052609,7.15633333 25.9008974,7.01866667 25.6722308,6.888 L25.039,6.524 C24.7047949,6.33733333 24.4695321,6.111 24.3332115,5.845 C24.196891,5.579 24.1287308,5.28266667 24.1287308,4.956 C24.1287308,4.60133333 24.1880962,4.25133333 24.3068269,3.906 C24.4255577,3.56066667 24.6212436,3.262 24.8938846,3.01 C25.2544744,2.65533333 25.7469872,2.478 26.3714231,2.478 C26.7056282,2.478 26.9914615,2.53166667 27.2289231,2.639 C27.4663846,2.74633333 27.6554744,2.89333333 27.7961923,3.08 C27.8929359,3.22 27.969891,3.374 28.0270577,3.542 C28.0842244,3.71 28.1128077,3.90133333 28.1128077,4.116 C28.1128077,4.20933333 28.1062115,4.298 28.0930192,4.382 C28.0798269,4.466 28.0644359,4.55933333 28.0468462,4.662 L26.7935769,4.662 C26.8111667,4.59666667 26.8199615,4.54066667 26.8199615,4.494 L26.8199615,4.326 C26.8199615,4.16733333 26.7759872,4.02733333 26.6880385,3.906 C26.5825,3.78466667 26.4285897,3.724 26.2263077,3.724 C26.1295641,3.724 26.0350192,3.74266667 25.9426731,3.78 C25.8503269,3.81733333 25.7777692,3.864 25.725,3.92 C25.5403077,4.116 25.4479615,4.37733333 25.4479615,4.704 C25.4479615,5.00266667 25.6106667,5.24533333 25.9360769,5.432 L26.5561154,5.796 C26.9255,6.01066667 27.1871474,6.265 27.3410577,6.559 C27.4949679,6.853 27.5719231,7.182 27.5719231,7.546 C27.5719231,7.97533333 27.4971667,8.36266667 27.3476538,8.708 C27.198141,9.05333333 27.0178462,9.324 26.8067692,9.52 C26.4022051,9.89333333 25.8877051,10.08 25.2632692,10.08 Z" id="路径"></path>
                        <path d="M29.9993077,10.08 C29.6651026,10.08 29.3836667,10.0333333 29.155,9.94 C28.9263333,9.84666667 28.7240513,9.702 28.5481538,9.506 C28.4250256,9.35666667 28.3326795,9.184 28.2711154,8.988 C28.2095513,8.792 28.1787692,8.58666667 28.1787692,8.372 C28.1787692,8.204 28.196359,8.02666667 28.2315385,7.84 L29.5375769,7.84 C29.5199872,7.896 29.5111923,7.952 29.5111923,8.008 L29.5111923,8.162 C29.5111923,8.34866667 29.5551667,8.50266667 29.6431154,8.624 C29.6870897,8.68 29.7508526,8.729 29.8344038,8.771 C29.9179551,8.813 30.0212949,8.834 30.1444231,8.834 C30.3730897,8.834 30.5621795,8.75 30.7116923,8.582 C30.8084359,8.47 30.8765962,8.34633333 30.9161731,8.211 C30.95575,8.07566667 30.9755385,7.92866667 30.9755385,7.77 C30.9755385,7.602 30.9381603,7.44566667 30.8634038,7.301 C30.7886474,7.15633333 30.6369359,7.01866667 30.4082692,6.888 L29.7750385,6.524 C29.4408333,6.33733333 29.2055705,6.111 29.06925,5.845 C28.9329295,5.579 28.8647692,5.28266667 28.8647692,4.956 C28.8647692,4.60133333 28.9241346,4.25133333 29.0428654,3.906 C29.1615962,3.56066667 29.3572821,3.262 29.6299231,3.01 C29.9905128,2.65533333 30.4830256,2.478 31.1074615,2.478 C31.4416667,2.478 31.7275,2.53166667 31.9649615,2.639 C32.2024231,2.74633333 32.3915128,2.89333333 32.5322308,3.08 C32.6289744,3.22 32.7059295,3.374 32.7630962,3.542 C32.8202628,3.71 32.8488462,3.90133333 32.8488462,4.116 C32.8488462,4.20933333 32.84225,4.298 32.8290577,4.382 C32.8158654,4.466 32.8004744,4.55933333 32.7828846,4.662 L31.5296154,4.662 C31.5472051,4.59666667 31.556,4.54066667 31.556,4.494 L31.556,4.326 C31.556,4.16733333 31.5120256,4.02733333 31.4240769,3.906 C31.3185385,3.78466667 31.1646282,3.724 30.9623462,3.724 C30.8656026,3.724 30.7710577,3.74266667 30.6787115,3.78 C30.5863654,3.81733333 30.5138077,3.864 30.4610385,3.92 C30.2763462,4.116 30.184,4.37733333 30.184,4.704 C30.184,5.00266667 30.3467051,5.24533333 30.6721154,5.432 L31.2921538,5.796 C31.6615385,6.01066667 31.9231859,6.265 32.0770962,6.559 C32.2310064,6.853 32.3079615,7.182 32.3079615,7.546 C32.3079615,7.97533333 32.2332051,8.36266667 32.0836923,8.708 C31.9341795,9.05333333 31.7538846,9.324 31.5428077,9.52 C31.1382436,9.89333333 30.6237436,10.08 29.9993077,10.08 Z" id="路径"></path>
                    </g>
                </g>
                <g id="ocp_express_simple_logo_en" transform="translate(0.000000, 0.066868)" fill-rule="nonzero">
                    <polygon id="Fill-23" fill="#006DFF" points="12.5523428 18.6840293 4.30339047 13.9569073 0.036019048 16.4277366 12.5523428 23.5999317 25.0701428 16.4362244 20.7921428 13.9715415"></polygon>
                    <path d="M12.5174457,9.82536585 L7.87335047,7.16370732 L12.5212838,4.50380488 L17.165379,7.16517073 L12.5174457,9.82536585 Z M25.0381981,7.16868293 L12.5203981,0 L0.000236191,7.1555122 L12.5183314,14.328878 L25.0381981,7.16868293 Z" id="Fill-25" fill="#006DFF"></path>
                    <polygon id="Fill-27" fill="#040D2B" points="7.86543809 7.16593171 3.9331619 4.91402927 1.77635684e-15 7.16183415 3.93257142 9.4152"></polygon>
                    <path d="M36.483339,14.8564097 C36.7614533,14.8564097 37.00532,14.8010927 37.2140533,14.6895805 C37.4227866,14.578361 37.5851676,14.4466536 37.7011962,14.2944585 C37.7708724,14.2008 37.8343485,14.0954341 37.8925105,13.978361 C37.9506724,13.8615805 37.9970247,13.6947512 38.0318628,13.4778732 C38.0667009,13.2612878 38.0956343,12.9773854 38.1186628,12.6261658 C38.1419866,12.2749463 38.1537962,11.8125073 38.1537962,11.2388488 C38.1537962,10.6654829 38.1419866,10.2001171 38.1186628,9.84275122 C38.0956343,9.48567805 38.0667009,9.19884878 38.0318628,8.98226341 C37.9970247,8.76567805 37.9506724,8.59884878 37.8925105,8.48177561 C37.8343485,8.36499512 37.7708724,8.25933659 37.7011962,8.16567805 C37.5851676,8.01377561 37.4227866,7.88470244 37.2140533,7.77933659 C37.00532,7.67397073 36.7614533,7.62128781 36.483339,7.62128781 C36.2049295,7.62128781 35.9610628,7.67397073 35.7520343,7.77933659 C35.5433009,7.88470244 35.38092,8.01377561 35.2648914,8.16567805 C35.1955105,8.25933659 35.131739,8.36499512 35.0735771,8.48177561 C35.0154152,8.59884878 34.9690628,8.76567805 34.93452,8.98226341 C34.8996819,9.19884878 34.8704533,9.48567805 34.8474247,9.84275122 C34.8241009,10.2001171 34.8128819,10.6654829 34.8128819,11.2388488 C34.8128819,11.8125073 34.8241009,12.2749463 34.8474247,12.6261658 C34.8704533,12.9773854 34.8996819,13.2612878 34.93452,13.4778732 C34.9690628,13.6947512 35.0154152,13.8615805 35.0735771,13.978361 C35.131739,14.0954341 35.1955105,14.2008 35.2648914,14.2944585 C35.38092,14.4466536 35.5433009,14.578361 35.7520343,14.6895805 C35.9610628,14.8010927 36.2049295,14.8564097 36.483339,14.8564097 M36.483339,17.5959219 C35.7174914,17.5959219 35.0620628,17.4788488 34.5170533,17.2447024 C33.9714533,17.0105561 33.4784057,16.6713366 33.0376152,16.2261658 C32.7246628,15.9100683 32.4807962,15.5705561 32.3069009,15.2076293 C32.1330057,14.8447024 32.0051676,14.4554341 31.9239771,14.0398244 C31.8424914,13.6245073 31.7964343,13.1854829 31.78492,12.7227512 C31.7731105,12.2603122 31.7675009,11.765678 31.7675009,11.2388488 C31.7675009,10.7120195 31.7731105,10.2173854 31.78492,9.75494634 C31.7964343,9.29250732 31.8424914,8.85348293 31.9239771,8.43787317 C32.0051676,8.02226341 32.1330057,7.63299512 32.3069009,7.27006829 C32.4807962,6.90743415 32.7246628,6.56762927 33.0376152,6.25153171 C33.4784057,5.80665366 33.9714533,5.46714146 34.5170533,5.23299512 C35.0620628,4.99884878 35.7174914,4.88177561 36.483339,4.88177561 C37.2488914,4.88177561 37.9040247,4.99884878 38.4496247,5.23299512 C38.9946343,5.46714146 39.4876819,5.80665366 39.9287676,6.25153171 C40.24172,6.56762927 40.4855866,6.90743415 40.6594819,7.27006829 C40.8333771,7.63299512 40.96092,8.02226341 41.0421105,8.43787317 C41.1235962,8.85348293 41.1696533,9.29250732 41.1814628,9.75494634 C41.1926819,10.2173854 41.1991771,10.7120195 41.1991771,11.2388488 C41.1991771,11.765678 41.1926819,12.2603122 41.1814628,12.7227512 C41.1696533,13.1854829 41.1235962,13.6245073 41.0421105,14.0398244 C40.96092,14.4554341 40.8333771,14.8447024 40.6594819,15.2076293 C40.4855866,15.5705561 40.24172,15.9100683 39.9287676,16.2261658 C39.4876819,16.6713366 38.9946343,17.0105561 38.4496247,17.2447024 C37.9040247,17.4788488 37.2488914,17.5959219 36.483339,17.5959219" id="Fill-29" fill="#040D2B"></path>
                    <path d="M46.9236371,17.5958927 C46.1580847,17.5958927 45.5026562,17.4791122 44.9573514,17.2446732 C44.4117514,17.0105268 43.918999,16.6713073 43.4779133,16.2261366 C43.1649609,15.910039 42.9213895,15.5708195 42.747199,15.2076 C42.5733038,14.8449658 42.4454657,14.4556976 42.3645705,14.0397951 C42.2830847,13.624478 42.2367324,13.1854536 42.2252181,12.7227219 C42.2134085,12.2605756 42.207799,11.7656488 42.207799,11.2388195 C42.207799,10.7119902 42.2134085,10.2176488 42.2252181,9.75491707 C42.2367324,9.29247805 42.2830847,8.85345366 42.3645705,8.4378439 C42.4454657,8.02252683 42.5733038,7.63296585 42.747199,7.27003902 C42.9213895,6.90740488 43.1649609,6.5676 43.4779133,6.25150244 C43.918999,5.80662439 44.4117514,5.46740488 44.9573514,5.23296585 C45.5026562,4.99881951 46.1580847,4.88174634 46.9236371,4.88174634 C47.5152943,4.88174634 48.0691609,4.96369756 48.5852371,5.1276 C49.1013133,5.29179512 49.5654276,5.54320976 49.97758,5.88272195 C50.3891419,6.22252683 50.7342752,6.64662439 51.01298,7.15589268 C51.2913895,7.66516098 51.4886085,8.26545366 51.6043419,8.95589268 L48.506999,8.95589268 C48.413999,8.60467317 48.2519133,8.29472195 48.0198562,8.02516098 C47.787799,7.75589268 47.421999,7.62125854 46.9236371,7.62125854 C46.6452276,7.62125854 46.4043133,7.67130732 46.2014847,7.77052683 C45.9983609,7.87033171 45.8386371,7.99618537 45.7229038,8.14808781 C45.6532276,8.24203902 45.5894562,8.34740488 45.5312943,8.46418537 C45.4731324,8.58155122 45.4241228,8.75130732 45.3836752,8.97345366 C45.3429324,9.19589268 45.3110466,9.48594146 45.2880181,9.84272195 C45.264399,10.2000878 45.25318,10.6654536 45.25318,11.2388195 C45.25318,11.812478 45.264399,12.2781366 45.2880181,12.6349171 C45.3110466,12.9922829 45.3429324,13.282039 45.3836752,13.5041854 C45.4241228,13.7266244 45.4731324,13.8966732 45.5312943,14.0134536 C45.5894562,14.1308195 45.6532276,14.2361854 45.7229038,14.3295512 C45.8386371,14.4817463 45.9983609,14.6078927 46.2014847,14.7071122 C46.4043133,14.8066244 46.6452276,14.8563805 46.9236371,14.8563805 C47.421999,14.8563805 47.787799,14.722039 48.0198562,14.452478 C48.2519133,14.1832097 48.413999,13.8729658 48.506999,13.5217463 L51.6043419,13.5217463 C51.4886085,14.2127707 51.2913895,14.812478 51.01298,15.3217463 C50.7342752,15.8310146 50.3891419,16.2554049 49.97758,16.5949171 C49.5654276,16.9347219 49.1013133,17.1864293 48.5852371,17.350039 C48.0691609,17.5139415 47.5152943,17.5958927 46.9236371,17.5958927" id="Fill-31" fill="#040D2B"></path>
                    <path d="M57.1903647,10.2905561 C57.6078314,10.2905561 57.9325933,10.1620683 58.1649457,9.90421463 C58.3967076,9.64694634 58.5127362,9.34840976 58.5127362,9.00860488 C58.5127362,8.66909268 58.3967076,8.3705561 58.1649457,8.11299512 C57.9325933,7.85572683 57.6078314,7.72665366 57.1903647,7.72665366 L55.4673552,7.72665366 L55.4673552,10.2905561 L57.1903647,10.2905561 Z M52.4222695,4.98714146 L57.3294219,4.98714146 C58.0137838,4.98714146 58.6199076,5.10128781 59.1480885,5.32958049 C59.675679,5.55787317 60.1161743,5.85933659 60.4701647,6.23397073 C60.8244505,6.60889756 61.0940028,7.03592195 61.2797076,7.51592195 C61.4651171,7.99621463 61.5578219,8.49348293 61.5578219,9.00860488 C61.5578219,9.52401951 61.4651171,10.0215805 61.2797076,10.5012878 C61.0940028,10.9815805 60.8244505,11.4086049 60.4701647,11.783239 C60.1161743,12.1581658 59.675679,12.4593366 59.1480885,12.6876293 C58.6199076,12.9159219 58.0137838,13.0300683 57.3294219,13.0300683 L55.4673552,13.0300683 L55.4673552,17.4905561 L52.4222695,17.4905561 L52.4222695,4.98714146 Z" id="Fill-33" fill="#040D2B"></path>
                </g>
            </g>
        </g>
    </g>
</svg>