<?xml version="1.0" encoding="UTF-8"?>
<svg width="225.242857px" height="65.5310263px" viewBox="0 0 225.242857 65.5310263" version="1.1" xmlns="http://www.w3.org/2000/svg" xmlns:xlink="http://www.w3.org/1999/xlink">
    <title>ocp_express_logo_zh</title>
    <defs>
        <linearGradient x1="100%" y1="0%" x2="1.97876229%" y2="0%" id="linearGradient-1">
            <stop stop-color="#008F57" offset="0%"></stop>
            <stop stop-color="#2A66FF" offset="100%"></stop>
        </linearGradient>
    </defs>
    <g id="页面-1" stroke="none" stroke-width="1" fill="none" fill-rule="evenodd">
        <g id="ocp_express_logo_zh" fill-rule="nonzero">
            <polygon id="Fill-19" fill="#006DFF" points="34.5521554 51.8803749 11.8451383 38.7541577 0.0985782857 45.6151406 34.5521554 65.5310263 69.0106697 45.6392777 57.2339383 38.7953006"></polygon>
            <path d="M34.45632,27.2821029 L21.6718629,19.8917486 L34.4667429,12.5052343 L47.2506514,19.8955886 L34.45632,27.2821029 Z M68.9225143,19.9054629 L34.464,0 L0,19.8687086 L34.4585143,39.7873371 L68.9225143,19.9054629 Z" id="Fill-20" fill="#006DFF"></path>
            <polygon id="Fill-21" fill="#FFFFFF" points="21.6509074 19.8974537 10.826496 13.644288 0.000438857143 19.8859337 10.8248503 26.1429394"></polygon>
            <path d="M90.3745882,10.6518689 C90.0116023,10.6518689 89.6888417,10.7179534 89.4072642,10.8501225 C89.124729,10.980376 88.8900811,11.1527704 88.7023628,11.3663478 C88.576898,11.5042633 88.4705882,11.6575027 88.3824755,11.8260661 C88.2953206,11.9955873 88.2263628,12.2187422 88.17656,12.4936154 C88.1257994,12.7694464 88.0913206,13.1171084 88.0731234,13.5366013 C88.0539685,13.9560943 88.044391,14.4847704 88.044391,15.1235873 C88.044391,15.7624042 88.0539685,16.2929957 88.0731234,16.7124887 C88.0913206,17.1319816 88.1257994,17.4758126 88.17656,17.7449394 C88.2263628,18.0140661 88.2953206,18.2333901 88.3824755,18.4029112 C88.4705882,18.5724323 88.576898,18.724714 88.7023628,18.8635873 C88.8900811,19.076207 89.124729,19.2514746 89.4072642,19.3893901 C89.6888417,19.5282633 90.0116023,19.5962633 90.3745882,19.5962633 C90.7375741,19.5962633 91.0603346,19.5282633 91.3419121,19.3893901 C91.6244473,19.2514746 91.8590952,19.076207 92.0468135,18.8635873 C92.1722783,18.724714 92.2785882,18.5724323 92.3667008,18.4029112 C92.4538558,18.2333901 92.5228135,18.0140661 92.5726163,17.7449394 C92.6233769,17.4758126 92.6578558,17.1319816 92.676053,16.7124887 C92.6952079,16.2929957 92.7047854,15.7624042 92.7047854,15.1235873 C92.7047854,14.4847704 92.6952079,13.9560943 92.676053,13.5366013 C92.6578558,13.1171084 92.6233769,12.7694464 92.5726163,12.4936154 C92.5228135,12.2187422 92.4538558,11.9955873 92.3667008,11.8260661 C92.2785882,11.6575027 92.1722783,11.5042633 92.0468135,11.3663478 C91.8590952,11.1527704 91.6244473,10.980376 91.3419121,10.8501225 C91.0603346,10.7179534 90.7375741,10.6518689 90.3745882,10.6518689 M90.3745882,8.32262951 C91.1513206,8.32262951 91.8274896,8.44426331 92.404053,8.68944641 C92.9796586,8.93271401 93.4997149,9.28037598 93.9632642,9.73147458 C94.3013487,10.0571084 94.5618558,10.4018971 94.7428699,10.764883 C94.9248417,11.1288267 95.056053,11.5262915 95.1374614,11.9582351 C95.2188699,12.3901788 95.2686727,12.8671365 95.2878276,13.3862351 C95.3069825,13.9062915 95.31656,14.4847704 95.31656,15.1235873 C95.31656,15.7624042 95.3069825,16.3427985 95.2878276,16.8618971 C95.2686727,17.3829112 95.2188699,17.8579534 95.1374614,18.2898971 C95.056053,18.7227985 94.9248417,19.1202633 94.7428699,19.484207 C94.5618558,19.8462351 94.3013487,20.1900661 93.9632642,20.5166577 C93.4997149,20.9677563 92.9796586,21.3154182 92.404053,21.5586858 C91.8274896,21.8038689 91.1513206,21.9255027 90.3745882,21.9255027 C89.5978558,21.9255027 88.9216868,21.8038689 88.3451234,21.5586858 C87.7695177,21.3154182 87.2494614,20.9677563 86.7859121,20.5166577 C86.4478276,20.1785732 86.1873206,19.828038 86.0063065,19.4640943 C85.8243346,19.1020661 85.6931234,18.7026858 85.6117149,18.2707422 C85.5303065,17.8397563 85.4805037,17.3666295 85.4613487,16.8532774 C85.4421938,16.3389675 85.4326163,15.7624042 85.4326163,15.1235873 C85.4326163,14.4847704 85.4421938,13.9091647 85.4613487,13.3948549 C85.4805037,12.8824605 85.5303065,12.408376 85.6117149,11.9764323 C85.6931234,11.5454464 85.8243346,11.1479816 86.0063065,10.784038 C86.1873206,10.4200943 86.4478276,10.0695591 86.7859121,9.73147458 C87.2494614,9.28037598 87.7695177,8.93271401 88.3451234,8.68944641 C88.9216868,8.44426331 89.5978558,8.32262951 90.3745882,8.32262951 M101.290887,11.9116887 C101.968014,11.9116887 102.565647,12.0179985 103.085704,12.2306182 C103.60576,12.443238 104.084633,12.7746182 104.523281,13.2266746 L102.850098,14.879745 C102.600126,14.6048718 102.358774,14.407576 102.126999,14.2878577 C101.895225,14.1690971 101.616521,14.1097168 101.290887,14.1097168 C100.991112,14.1097168 100.727732,14.1633506 100.501704,14.2687027 C100.276633,14.3750126 100.075506,14.535914 99.9002389,14.747576 C99.7125206,14.9860549 99.5746051,15.2752943 99.4874501,15.6124211 C99.3993375,15.9505056 99.3552811,16.3824492 99.3552811,16.908252 C99.3552811,17.4359704 99.3993375,17.8707873 99.4874501,18.215576 C99.5746051,18.559407 99.7125206,18.8505619 99.9002389,19.0890408 C100.075506,19.3007027 100.276633,19.4616042 100.501704,19.567914 C100.727732,19.6742239 100.991112,19.7268999 101.290887,19.7268999 C101.616521,19.7268999 101.895225,19.6646464 102.126999,19.5391816 C102.358774,19.4146746 102.600126,19.2192943 102.850098,18.9568718 L104.523281,20.591745 C104.084633,21.0428436 103.60576,21.3780549 103.085704,21.5964211 C102.565647,21.8167027 101.968014,21.9258858 101.290887,21.9258858 C100.802436,21.9258858 100.297704,21.8502239 99.7786051,21.6998577 C99.2585487,21.5494915 98.785422,21.2841957 98.3601825,20.9010971 C97.9339854,20.5189563 97.5863234,20.0065619 97.3171966,19.3610408 C97.0471121,18.7155196 96.9130276,17.8985619 96.9130276,16.908252 C96.9130276,15.9198577 97.0471121,15.1028999 97.3171966,14.4564211 C97.5863234,13.8118577 97.9339854,13.3023365 98.3601825,12.9249844 C98.785422,12.5495478 99.2585487,12.2871253 99.7786051,12.1367591 C100.297704,11.9863929 100.802436,11.9116887 101.290887,11.9116887 M109.445332,13.9403873 C109.020092,13.9403873 108.671473,14.0371196 108.403304,14.2315422 C108.133219,14.4259647 107.929219,14.6663591 107.792261,14.9555985 C107.704149,15.1299084 107.650515,15.297514 107.632318,15.4526689 C107.613163,15.6106971 107.597839,15.7945844 107.585388,16.0081619 L111.287078,16.0081619 C111.274628,15.7945844 111.259304,15.6106971 111.240149,15.4526689 C111.220994,15.297514 111.16736,15.1299084 111.080205,14.9555985 C110.94229,14.6663591 110.739247,14.4259647 110.469163,14.2315422 C110.200036,14.0371196 109.859078,13.9403873 109.445332,13.9403873 M109.445332,11.9118802 C110.122459,11.9118802 110.725839,12.0268098 111.259304,12.2585844 C111.790853,12.4903591 112.239078,12.8169506 112.602064,13.2364436 C112.96505,13.6559365 113.240881,14.156838 113.428599,14.7391478 C113.616318,15.3214577 113.711135,15.9574013 113.711135,16.6460211 L113.711135,17.6794295 L107.585388,17.6794295 C107.585388,18.3182464 107.76736,18.8421337 108.130346,19.2482182 C108.493332,19.6562182 109.025839,19.8592605 109.726909,19.8592605 C110.265163,19.8592605 110.692318,19.781683 111.004543,19.6236549 C111.317726,19.4675422 111.625163,19.2386408 111.925895,18.9388661 L113.428599,20.3850633 C113.17767,20.6359929 112.927698,20.8591478 112.677726,21.0516549 C112.426797,21.2470351 112.153839,21.4088943 111.859811,21.5410633 C111.565783,21.6713168 111.243022,21.769007 110.892487,21.8322182 C110.541952,21.8944718 110.146402,21.9251196 109.708712,21.9251196 C109.119698,21.9251196 108.555585,21.8504154 108.017332,21.7000492 C107.479078,21.549683 106.996374,21.2843873 106.571135,20.9012887 C106.144937,20.5191478 105.806853,20.0067534 105.555923,19.3612323 C105.305952,18.7157112 105.180487,17.8987534 105.180487,16.9084436 C105.180487,16.1077675 105.283923,15.3971196 105.490797,14.7764999 C105.696712,14.156838 105.988825,13.6339084 106.364261,13.2077112 C106.739698,12.781514 107.187923,12.4597112 107.70798,12.2403873 C108.227078,12.0220211 108.806515,11.9118802 109.445332,11.9118802 M118.595833,17.679238 C117.631383,17.679238 117.148678,18.0556323 117.148678,18.8065056 C117.148678,19.1445901 117.267439,19.4146746 117.505918,19.6148436 C117.743439,19.8150126 118.119833,19.9146182 118.633185,19.9146182 C118.933918,19.9146182 119.197298,19.8878013 119.422368,19.8312943 C119.648397,19.7747873 119.866763,19.6454915 120.08034,19.4462802 C120.217298,19.3208154 120.314988,19.1608718 120.371495,18.9654915 C120.428002,18.7729844 120.455777,18.5191816 120.455777,18.2059985 L120.455777,17.679238 L118.595833,17.679238 Z M118.727045,11.9116887 C121.50834,11.9116887 122.898988,13.0638577 122.898988,15.3681957 L122.898988,21.8128718 L120.512284,21.8128718 L120.512284,20.9671816 C120.18665,21.2937732 119.845692,21.5312943 119.488453,21.6816605 C119.131214,21.8320267 118.671495,21.9076887 118.107383,21.9076887 C117.017467,21.9076887 116.184228,21.6184492 115.607664,21.0428436 C115.345242,20.7670126 115.144115,20.4413788 115.007157,20.0659422 C114.869242,19.6895478 114.800284,19.2834633 114.800284,18.8438577 C114.800284,18.4559704 114.869242,18.0891534 115.007157,17.7453225 C115.144115,17.4005337 115.350988,17.1007591 115.626819,16.8421675 C115.901692,16.5864492 116.253185,16.3824492 116.679383,16.2330408 C117.104622,16.0826746 117.606481,16.0079704 118.182087,16.0079704 L120.455777,16.0079704 L120.455777,15.5185619 C120.455777,14.9803084 120.314988,14.5885901 120.033411,14.3443647 C119.751833,14.1010971 119.284453,13.9775478 118.633185,13.9775478 C118.194537,13.9775478 117.837298,14.0436323 117.562425,14.1758013 C117.286594,14.3070126 117.017467,14.5225056 116.754087,14.823238 L115.21403,13.3023365 C115.689073,12.7746182 116.190932,12.4125901 116.716735,12.2124211 C117.242537,12.0112943 117.91296,11.9116887 118.727045,11.9116887 L118.727045,11.9116887 Z M129.887664,11.9116887 C130.877016,11.9116887 131.647045,12.1990126 132.199664,12.7746182 C132.600002,13.175914 132.866256,13.6049844 132.997467,14.0618295 C133.128678,14.5205901 133.194763,15.0176605 133.194763,15.555914 L133.194763,21.8128718 L130.752509,21.8128718 L130.752509,15.8949563 C130.752509,15.555914 130.70558,15.2752943 130.610763,15.0483084 C130.517861,14.823238 130.39527,14.6422239 130.244904,14.5052661 C130.094537,14.3663929 129.922143,14.2658295 129.727721,14.203576 C129.533298,14.1413225 129.33696,14.1097168 129.135833,14.1097168 C128.935664,14.1097168 128.738368,14.1413225 128.544904,14.203576 C128.350481,14.2658295 128.175214,14.3663929 128.018143,14.5052661 C127.86203,14.6422239 127.736566,14.823238 127.642706,15.0483084 C127.548847,15.2752943 127.501918,15.555914 127.501918,15.8949563 L127.501918,21.8128718 L125.058706,21.8128718 L125.058706,12.023745 L127.445411,12.023745 L127.445411,12.9249844 C127.771045,12.5878577 128.146481,12.3330971 128.572678,12.1654915 C128.997918,11.9959704 129.436566,11.9116887 129.887664,11.9116887 M138.155219,16.1954013 L138.155219,19.4843027 L140.898205,19.4843027 C141.487219,19.4843027 141.924909,19.3272323 142.213191,19.0140492 C142.501473,18.7008661 142.645135,18.3053168 142.645135,17.8293168 C142.645135,17.3667253 142.501473,16.978838 142.213191,16.6656549 C141.924909,16.3524718 141.487219,16.1954013 140.898205,16.1954013 L138.155219,16.1954013 Z M138.155219,10.7649788 L138.155219,13.8652042 L140.729642,13.8652042 C141.292797,13.8652042 141.718994,13.7234577 142.006318,13.442838 C142.294599,13.1612605 142.439219,12.7819929 142.439219,12.3050351 C142.439219,11.8434013 142.294599,11.4698802 142.006318,11.187345 C141.718994,10.9057675 141.292797,10.7649788 140.729642,10.7649788 L138.155219,10.7649788 Z M140.898205,8.43573936 C142.225642,8.43573936 143.249473,8.77573936 143.970656,9.45957035 C144.690881,10.1414858 145.050994,11.0532605 145.050994,12.1920211 C145.050994,12.5693732 144.99736,12.9064999 144.89105,13.2072323 C144.78474,13.5079647 144.646825,13.7742182 144.478261,14.0059929 C144.30874,14.2377675 144.126768,14.4321901 143.932346,14.5892605 C143.738881,14.7453732 143.559783,14.867007 143.396966,14.9551196 C143.597135,15.0547253 143.810712,15.1840211 144.035783,15.339176 C144.261811,15.4962464 144.46198,15.6944999 144.637247,15.9329788 C144.812515,16.1695422 144.95905,16.4549506 145.078768,16.7872887 C145.197529,17.1186689 145.257867,17.511345 145.257867,17.9614858 C145.257867,18.587852 145.15443,19.139514 144.947557,19.6145563 C144.740684,20.0905563 144.456233,20.491852 144.09229,20.8174858 C143.729304,21.1440774 143.29736,21.3902182 142.796459,21.5587816 C142.294599,21.7283027 141.743895,21.8125844 141.14243,21.8125844 L135.543445,21.8125844 L135.543445,8.43573936 L140.898205,8.43573936 Z M150.349247,17.679238 C149.384797,17.679238 148.902092,18.0556323 148.902092,18.8065056 C148.902092,19.1445901 149.020853,19.4146746 149.259332,19.6148436 C149.496853,19.8150126 149.873247,19.9146182 150.386599,19.9146182 C150.687332,19.9146182 150.950712,19.8878013 151.175783,19.8312943 C151.401811,19.7747873 151.620177,19.6454915 151.833754,19.4462802 C151.970712,19.3208154 152.068402,19.1608718 152.124909,18.9654915 C152.181416,18.7729844 152.209191,18.5191816 152.209191,18.2059985 L152.209191,17.679238 L150.349247,17.679238 Z M150.480459,11.9116887 C153.261754,11.9116887 154.652402,13.0638577 154.652402,15.3681957 L154.652402,21.8128718 L152.265698,21.8128718 L152.265698,20.9671816 C151.940064,21.2937732 151.599106,21.5312943 151.241867,21.6816605 C150.884628,21.8320267 150.424909,21.9076887 149.860797,21.9076887 C148.770881,21.9076887 147.937642,21.6184492 147.361078,21.0428436 C147.098656,20.7670126 146.897529,20.4413788 146.760571,20.0659422 C146.622656,19.6895478 146.553698,19.2834633 146.553698,18.8438577 C146.553698,18.4559704 146.622656,18.0891534 146.760571,17.7453225 C146.897529,17.4005337 147.104402,17.1007591 147.380233,16.8421675 C147.656064,16.5864492 148.006599,16.3824492 148.432797,16.2330408 C148.858036,16.0826746 149.359895,16.0079704 149.935501,16.0079704 L152.209191,16.0079704 L152.209191,15.5185619 C152.209191,14.9803084 152.068402,14.5885901 151.786825,14.3443647 C151.505247,14.1010971 151.037867,13.9775478 150.386599,13.9775478 C149.947952,13.9775478 149.590712,14.0436323 149.315839,14.1758013 C149.040008,14.3070126 148.770881,14.5225056 148.507501,14.823238 L146.967445,13.3023365 C147.442487,12.7746182 147.944346,12.4125901 148.470149,12.2124211 C148.995952,12.0112943 149.666374,11.9116887 150.480459,11.9116887 L150.480459,11.9116887 Z M160.138087,11.9116887 C160.914819,11.9116887 161.613016,11.9930971 162.233636,12.1549563 C162.853298,12.3177732 163.401129,12.6185056 163.877129,13.0571534 L162.374425,14.5799704 C162.086143,14.328083 161.745185,14.1566464 161.350594,14.0618295 C160.956002,13.9689281 160.538425,13.9219985 160.100735,13.9219985 C159.612284,13.9219985 159.257918,14.0148999 159.039552,14.203576 C158.820228,14.3903365 158.710087,14.6106182 158.710087,14.8605901 C158.710087,15.1115196 158.788622,15.3059422 158.944735,15.4438577 C159.101805,15.5817732 159.361354,15.6679704 159.72434,15.7062802 L161.265354,15.8576042 C162.242256,15.9572098 162.972059,16.251238 163.454763,16.7406464 C163.936509,17.2281394 164.177861,17.8928154 164.177861,18.7318013 C164.177861,19.2700549 164.071552,19.7403084 163.858932,20.1416042 C163.645354,20.5409844 163.351326,20.8742802 162.974932,21.1367027 C162.599495,21.400083 162.157974,21.5964211 161.651326,21.7285901 C161.143721,21.8607591 160.601636,21.9258858 160.025073,21.9258858 C159.637185,21.9258858 159.260791,21.9096042 158.898763,21.8789563 C158.534819,21.8483084 158.181411,21.7812661 157.836622,21.6816605 C157.491833,21.5810971 157.153749,21.4403084 156.822368,21.2583365 C156.49003,21.0773225 156.16727,20.8302239 155.854087,20.5170408 L157.451608,18.9195196 C157.651777,19.1196887 157.864397,19.2786746 158.090425,19.3983929 C158.315495,19.5171534 158.544397,19.6119704 158.776171,19.6799704 C159.007946,19.7489281 159.233016,19.7929844 159.45234,19.8130971 C159.671664,19.8312943 159.875664,19.839914 160.063383,19.839914 C160.276002,19.839914 160.485749,19.8217168 160.692622,19.7843647 C160.899495,19.7470126 161.083383,19.6866746 161.247157,19.6052661 C161.409974,19.5238577 161.541185,19.4204211 161.641749,19.2939985 C161.741354,19.1704492 161.792115,19.0143365 161.792115,18.8256605 C161.792115,18.5747309 161.719326,18.3716887 161.575664,18.215576 C161.432002,18.0585056 161.159045,17.9608154 160.757749,17.9234633 L159.217692,17.7740549 C158.327946,17.6849844 157.629749,17.4321394 157.123101,17.0126464 C156.615495,16.5931534 156.361692,15.9323084 156.361692,15.0301112 C156.361692,14.5167591 156.465129,14.0656605 156.672002,13.6777732 C156.877918,13.2889281 157.153749,12.9632943 157.498537,12.699914 C157.843326,12.4374915 158.243664,12.2401957 158.701467,12.1080267 C159.158312,11.9758577 159.637185,11.9116887 160.138087,11.9116887 M169.532718,13.9403873 C169.106521,13.9403873 168.758859,14.0371196 168.489732,14.2315422 C168.220605,14.4259647 168.016605,14.6663591 167.87869,14.9555985 C167.791535,15.1299084 167.737901,15.297514 167.719704,15.4526689 C167.700549,15.6106971 167.685225,15.7945844 167.672774,16.0081619 L171.374464,16.0081619 C171.362014,15.7945844 171.345732,15.6106971 171.327535,15.4526689 C171.30838,15.297514 171.254746,15.1299084 171.167591,14.9555985 C171.028718,14.6663591 170.826633,14.4259647 170.556549,14.2315422 C170.287422,14.0371196 169.946464,13.9403873 169.532718,13.9403873 M169.532718,11.9118802 C170.208887,11.9118802 170.813225,12.0268098 171.345732,12.2585844 C171.878239,12.4903591 172.326464,12.8169506 172.68945,13.2364436 C173.052436,13.6559365 173.328267,14.156838 173.515985,14.7391478 C173.703704,15.3214577 173.798521,15.9574013 173.798521,16.6460211 L173.798521,17.6794295 L167.672774,17.6794295 C167.672774,18.3182464 167.853788,18.8421337 168.217732,19.2482182 C168.580718,19.6562182 169.113225,19.8592605 169.814295,19.8592605 C170.352549,19.8592605 170.778746,19.781683 171.091929,19.6236549 C171.405112,19.4675422 171.712549,19.2386408 172.012323,18.9388661 L173.515985,20.3850633 C173.265056,20.6359929 173.015084,20.8591478 172.765112,21.0516549 C172.513225,21.2470351 172.241225,21.4088943 171.947197,21.5410633 C171.652211,21.6713168 171.32945,21.769007 170.979873,21.8322182 C170.629337,21.8944718 170.233788,21.9251196 169.796098,21.9251196 C169.207084,21.9251196 168.642971,21.8504154 168.104718,21.7000492 C167.565506,21.549683 167.08376,21.2843873 166.658521,20.9012887 C166.232323,20.5191478 165.894239,20.0067534 165.643309,19.3612323 C165.39238,18.7157112 165.267873,17.8987534 165.267873,16.9084436 C165.267873,16.1077675 165.371309,15.3971196 165.578183,14.7764999 C165.784098,14.156838 166.075253,13.6339084 166.451647,13.2077112 C166.827084,12.781514 167.275309,12.4597112 167.794408,12.2403873 C168.314464,12.0220211 168.893901,11.9118802 169.532718,11.9118802" id="OB" fill="#FFFFFF"></path>
            <path d="M107.46016,37.2056549 L107.46016,33.7056549 L88.47616,33.7056549 L88.47616,37.2056549 L107.46016,37.2056549 Z M106.03216,57.5336549 L108.94416,55.4056549 C107.88016,53.5949882 106.834827,51.8869882 105.80816,50.2816549 C104.781493,48.6763215 103.76416,47.1643215 102.75616,45.7456549 L102.75616,45.7456549 L99.78816,47.4816549 C100.273493,48.1909882 100.749493,48.9003215 101.21616,49.6096549 C101.682827,50.3189882 102.14016,51.0283215 102.58816,51.7376549 C101.785493,51.7936549 100.954827,51.8543215 100.09616,51.9196549 C99.2374933,51.9849882 98.3834933,52.0503215 97.53416,52.1156549 C96.6848267,52.1809882 95.86816,52.2416549 95.08416,52.2976549 C94.30016,52.3536549 93.57216,52.4096549 92.90016,52.4656549 C93.18016,52.2043215 93.5488267,51.7889882 94.00616,51.2196549 C94.4634933,50.6503215 94.9534933,50.0016549 95.47616,49.2736549 C95.9988267,48.5456549 96.5214933,47.7709882 97.04416,46.9496549 C97.5668267,46.1283215 98.0428267,45.3443215 98.47216,44.5976549 L98.47216,44.5976549 L109.86816,44.5976549 L109.86816,41.0976549 L86.06816,41.0976549 L86.06816,44.5976549 L94.16016,44.5976549 C93.76816,45.2883215 93.3434933,45.9743215 92.88616,46.6556549 C92.4288267,47.3369882 91.97616,47.9809882 91.52816,48.5876549 C91.08016,49.1943215 90.6508267,49.7356549 90.24016,50.2116549 C89.8294933,50.6876549 89.4748267,51.0656549 89.17616,51.3456549 C88.9708267,51.5136549 88.79816,51.6676549 88.65816,51.8076549 C88.51816,51.9476549 88.37816,52.0736549 88.23816,52.1856549 C88.09816,52.2976549 87.9394933,52.4003215 87.76216,52.4936549 C87.5848267,52.5869882 87.3748267,52.6803215 87.13216,52.7736549 L87.13216,52.7736549 L88.14016,56.3576549 C88.4574933,56.3016549 88.77016,56.2596549 89.07816,56.2316549 C89.38616,56.2036549 89.73616,56.1709882 90.12816,56.1336549 C90.74416,56.0776549 91.4534933,56.0169882 92.25616,55.9516549 C93.0588267,55.8863215 93.9034933,55.8209882 94.79016,55.7556549 C95.6768267,55.6903215 96.58216,55.6249882 97.50616,55.5596549 C98.43016,55.4943215 99.32616,55.4289882 100.19416,55.3636549 C101.06216,55.2983215 101.87416,55.2423215 102.63016,55.1956549 C103.38616,55.1489882 104.04416,55.1069882 104.60416,55.0696549 C104.846827,55.4803215 105.084827,55.8863215 105.31816,56.2876549 C105.551493,56.6889882 105.789493,57.1043215 106.03216,57.5336549 L106.03216,57.5336549 Z M128.31216,57.3936549 L128.31216,49.4696549 L138.72816,49.4696549 L138.72816,45.9416549 L128.31216,45.9416549 L128.31216,36.8696549 L137.21616,36.8696549 L137.21616,33.3976549 L115.85216,33.3976549 L115.85216,36.8696549 L124.75616,36.8696549 L124.75616,45.9416549 L114.28416,45.9416549 L114.28416,49.4696549 L124.75616,49.4696549 L124.75616,57.3936549 L128.31216,57.3936549 Z M132.40016,45.6896549 C132.73616,45.2976549 133.104827,44.8169882 133.50616,44.2476549 C133.907493,43.6783215 134.308827,43.0856549 134.71016,42.4696549 C135.111493,41.8536549 135.489493,41.2516549 135.84416,40.6636549 C136.198827,40.0756549 136.48816,39.5576549 136.71216,39.1096549 L136.71216,39.1096549 L133.91216,37.3176549 C133.669493,37.8029882 133.36616,38.3536549 133.00216,38.9696549 C132.63816,39.5856549 132.255493,40.1969882 131.85416,40.8036549 C131.452827,41.4103215 131.05616,41.9889882 130.66416,42.5396549 C130.27216,43.0903215 129.926827,43.5429882 129.62816,43.8976549 L129.62816,43.8976549 L132.40016,45.6896549 Z M120.61216,45.6896549 L123.35616,43.6176549 C123.13216,43.2069882 122.847493,42.7356549 122.50216,42.2036549 C122.156827,41.6716549 121.783493,41.1209882 121.38216,40.5516549 C120.980827,39.9823215 120.574827,39.4269882 120.16416,38.8856549 C119.753493,38.3443215 119.361493,37.8589882 118.98816,37.4296549 L118.98816,37.4296549 L116.32816,39.3896549 C116.682827,39.8189882 117.065493,40.3136549 117.47616,40.8736549 C117.886827,41.4336549 118.28816,42.0029882 118.68016,42.5816549 C119.07216,43.1603215 119.43616,43.7203215 119.77216,44.2616549 C120.10816,44.8029882 120.38816,45.2789882 120.61216,45.6896549 L120.61216,45.6896549 Z M164.62016,44.9616549 L166.91616,42.6096549 C166.430827,42.0309882 165.856827,41.3823215 165.19416,40.6636549 C164.531493,39.9449882 163.854827,39.2263215 163.16416,38.5076549 C162.473493,37.7889882 161.801493,37.1076549 161.14816,36.4636549 C160.494827,35.8196549 159.934827,35.2829882 159.46816,34.8536549 L159.46816,34.8536549 L157.20016,36.8416549 C157.59216,37.1963215 158.044827,37.6396549 158.55816,38.1716549 C159.071493,38.7036549 159.617493,39.2776549 160.19616,39.8936549 C159.374827,39.9309882 158.51616,39.9636549 157.62016,39.9916549 L157.62016,39.9916549 L154.93216,40.0756549 C154.03616,40.1036549 153.16816,40.1363215 152.32816,40.1736549 C151.48816,40.2109882 150.722827,40.2389882 150.03216,40.2576549 C150.330827,40.0523215 150.708827,39.7163215 151.16616,39.2496549 C151.623493,38.7829882 152.11816,38.2463215 152.65016,37.6396549 C153.18216,37.0329882 153.718827,36.3936549 154.26016,35.7216549 C154.801493,35.0496549 155.305493,34.4056549 155.77216,33.7896549 L155.77216,33.7896549 L152.46816,32.2776549 C152.07616,32.9123215 151.576827,33.6076549 150.97016,34.3636549 C150.363493,35.1196549 149.73816,35.8476549 149.09416,36.5476549 C148.45016,37.2476549 147.829493,37.8823215 147.23216,38.4516549 C146.634827,39.0209882 146.149493,39.4363215 145.77616,39.6976549 C145.49616,39.9029882 145.21616,40.0616549 144.93616,40.1736549 C144.65616,40.2856549 144.189493,40.4069882 143.53616,40.5376549 L143.53616,40.5376549 L144.43216,44.0656549 C144.637493,44.0283215 144.833493,44.0049882 145.02016,43.9956549 C145.206827,43.9863215 145.393493,43.9723215 145.58016,43.9536549 C146.121493,43.9163215 146.849493,43.8743215 147.76416,43.8276549 C148.678827,43.7809882 149.691493,43.7343215 150.80216,43.6876549 C151.912827,43.6409882 153.074827,43.5989882 154.28816,43.5616549 C155.501493,43.5243215 156.66816,43.4869882 157.78816,43.4496549 C158.90816,43.4123215 159.94416,43.3796549 160.89616,43.3516549 C161.84816,43.3236549 162.613493,43.3003215 163.19216,43.2816549 C163.75216,43.9349882 164.22816,44.4949882 164.62016,44.9616549 L164.62016,44.9616549 Z M164.53616,57.1696549 L164.53616,45.5776549 L145.58016,45.5776549 L145.58016,57.1696549 L164.53616,57.1696549 Z M161.00816,53.7536549 L149.13616,53.7536549 L149.13616,48.9936549 L161.00816,48.9936549 L161.00816,53.7536549 Z" id="云平台" fill="#FFFFFF"></path>
            <g id="01-导航/01标题栏/02产品名称/开源标签中文" transform="translate(180.6048, 6.9188)">
                <g id="形状结合" fill="url(#linearGradient-1)">
                    <path d="M2.03356072,0 L0,16.54 L41.0421151,16.54 C42.0490721,16.54 42.8990027,15.7913715 43.0261158,14.7924698 L44.6218668,2.25246978 C44.761302,1.15673642 43.9860692,0.155434452 42.8903358,0.0159992417 C42.8066011,0.00534376759 42.7222759,0 42.637866,0 L2.03356072,0 L2.03356072,0 Z" id="路径"></path>
                </g>
                <g id="Express" transform="translate(5.7066, 2.032)" fill="#FFFFFF">
                    <polygon id="路径" points="1.87330769 0 5.61992308 0 5.36926923 1.33 3.02103846 1.33 2.48015385 4.242 4.49857692 4.242 4.24792308 5.558 2.2295 5.558 1.64903846 8.638 3.99726923 8.638 3.74661538 9.968 0 9.968"></polygon>
                    <polygon id="路径" points="6.55657692 6.174 5.79142308 2.59 7.17661538 2.59 7.58557692 4.928 8.81246154 2.59 10.2636154 2.59 8.0605 6.3 8.97076923 9.968 7.58557692 9.968 7.12384615 7.588 5.85738462 9.968 4.39303846 9.968"></polygon>
                    <path d="M11.1343077,2.59 L12.4007692,2.59 L12.3084231,3.122 C12.3611923,3.04733333 12.4359487,2.96566667 12.5326923,2.877 C12.6294359,2.78833333 12.7129872,2.72066667 12.7833462,2.674 C12.8800897,2.618 12.9878269,2.57133333 13.1065577,2.534 C13.2252885,2.49666667 13.3462179,2.478 13.4693462,2.478 C13.6980128,2.478 13.9046923,2.52 14.0893846,2.604 C14.2740769,2.688 14.4235897,2.83733333 14.5379231,3.052 C14.6170769,3.192 14.6720449,3.339 14.7028269,3.493 C14.733609,3.647 14.749,3.822 14.749,4.018 C14.749,4.298 14.7226154,4.62233333 14.6698462,4.991 C14.6170769,5.35966667 14.5423205,5.78666667 14.4455769,6.272 C14.3400385,6.82266667 14.2454936,7.28233333 14.1619423,7.651 C14.078391,8.01966667 13.9970385,8.32533333 13.9178846,8.568 C13.8387308,8.81066667 13.7595769,9.00433333 13.6804231,9.149 C13.6012692,9.29366667 13.5133205,9.41733333 13.4165769,9.52 C13.2494744,9.688 13.0691795,9.82333333 12.8756923,9.926 C12.6822051,10.0286667 12.4403462,10.08 12.1501154,10.08 C11.9918077,10.08 11.8554872,10.0566667 11.7411538,10.01 C11.6268205,9.96333333 11.5388718,9.91666667 11.4773077,9.87 C11.3365897,9.74866667 11.2310513,9.62266667 11.1606923,9.492 L10.5802308,12.558 L9.261,12.558 L11.1343077,2.59 Z M11.9390385,8.834 C12.1237308,8.834 12.2908333,8.75466667 12.4403462,8.596 C12.5810641,8.456 12.7019936,8.17833333 12.8031346,7.763 C12.9042756,7.34766667 13.0120128,6.85066667 13.1263462,6.272 C13.2230897,5.768 13.2934487,5.369 13.3374231,5.075 C13.3813974,4.781 13.4033846,4.55 13.4033846,4.382 C13.4033846,4.158 13.3594103,3.99933333 13.2714615,3.906 C13.1659231,3.78466667 13.0427949,3.724 12.9020769,3.724 C12.7173846,3.724 12.5546795,3.78933333 12.4139615,3.92 C12.3260128,4.01333333 12.2534551,4.11833333 12.1962885,4.235 C12.1391218,4.35166667 12.0929487,4.50333333 12.0577692,4.69 L11.4641154,7.868 C11.4377308,8.02666667 11.4245385,8.15266667 11.4245385,8.246 C11.4245385,8.43266667 11.4729103,8.582 11.5696538,8.694 C11.6488077,8.78733333 11.7719359,8.834 11.9390385,8.834 Z" id="形状"></path>
                    <path d="M16.2265385,2.59 L17.493,2.59 L17.3478846,3.374 C17.5149872,3.11266667 17.734859,2.90266667 18.0075,2.744 C18.1746026,2.64133333 18.3505,2.57133333 18.5351923,2.534 C18.7198846,2.49666667 18.9177692,2.478 19.1288462,2.478 L18.865,3.836 L18.4164615,3.836 C18.108641,3.836 17.8250064,3.955 17.5655577,4.193 C17.306109,4.431 17.1368077,4.76 17.0576538,5.18 L16.1605769,9.968 L14.8413462,9.968 L16.2265385,2.59 Z" id="路径"></path>
                    <path d="M20.3953077,10.08 C19.7005128,10.08 19.2167949,9.82333333 18.9441538,9.31 C18.865,9.16066667 18.8100321,9.002 18.77925,8.834 C18.7484679,8.666 18.7330769,8.47466667 18.7330769,8.26 C18.7330769,8.04533333 18.7550641,7.777 18.7990385,7.455 C18.8430128,7.133 18.9089744,6.73866667 18.9969231,6.272 C19.0848718,5.81466667 19.1684231,5.42033333 19.2475769,5.089 C19.3267308,4.75766667 19.4058846,4.47066667 19.4850385,4.228 C19.5641923,3.98533333 19.6477436,3.78 19.7356923,3.612 C19.823641,3.444 19.9203846,3.29466667 20.0259231,3.164 C20.2106154,2.94 20.4326859,2.76966667 20.6921346,2.653 C20.9515833,2.53633333 21.2791923,2.478 21.6749615,2.478 C22.0267564,2.478 22.310391,2.53866667 22.5258654,2.66 C22.7413397,2.78133333 22.9062436,2.93066667 23.0205769,3.108 C23.1964744,3.37866667 23.2844231,3.76133333 23.2844231,4.256 C23.2844231,4.58266667 23.2558397,4.94433333 23.1986731,5.341 C23.1415064,5.73766667 23.0645513,6.188 22.9678077,6.692 L20.237,6.692 C20.166641,7.03733333 20.1138718,7.34066667 20.0786923,7.602 C20.0435128,7.86333333 20.0259231,8.064 20.0259231,8.204 C20.0259231,8.40933333 20.0742949,8.568 20.1710385,8.68 C20.2501923,8.78266667 20.3733205,8.834 20.5404231,8.834 C20.6283718,8.834 20.7141218,8.82 20.7976731,8.792 C20.8812244,8.764 20.9581795,8.71266667 21.0285385,8.638 C21.1868462,8.47933333 21.3099744,8.20866667 21.3979231,7.826 L22.7171538,7.826 C22.6292051,8.218 22.5324615,8.53066667 22.4269231,8.764 C22.3213846,8.99733333 22.1850641,9.212 22.0179615,9.408 C21.8332692,9.62266667 21.6111987,9.78833333 21.35175,9.905 C21.0923013,10.0216667 20.7734872,10.08 20.3953077,10.08 Z M21.8464615,5.628 C21.9607949,5.07733333 22.0179615,4.65733333 22.0179615,4.368 C22.0179615,4.16266667 21.9783846,4.004 21.8992308,3.892 C21.8200769,3.78 21.6881538,3.724 21.5034615,3.724 C21.2747949,3.724 21.0901026,3.822 20.9493846,4.018 C20.8438462,4.158 20.7536987,4.354 20.6789423,4.606 C20.6041859,4.858 20.5228333,5.19866667 20.4348846,5.628 L21.8464615,5.628 Z" id="形状"></path>
                    <path d="M25.2632692,10.08 C24.9290641,10.08 24.6476282,10.0333333 24.4189615,9.94 C24.1902949,9.84666667 23.9880128,9.702 23.8121154,9.506 C23.6889872,9.35666667 23.596641,9.184 23.5350769,8.988 C23.4735128,8.792 23.4427308,8.58666667 23.4427308,8.372 C23.4427308,8.204 23.4603205,8.02666667 23.4955,7.84 L24.8015385,7.84 C24.7839487,7.896 24.7751538,7.952 24.7751538,8.008 L24.7751538,8.162 C24.7751538,8.34866667 24.8191282,8.50266667 24.9070769,8.624 C24.9510513,8.68 25.0148141,8.729 25.0983654,8.771 C25.1819167,8.813 25.2852564,8.834 25.4083846,8.834 C25.6370513,8.834 25.826141,8.75 25.9756538,8.582 C26.0723974,8.47 26.1405577,8.34633333 26.1801346,8.211 C26.2197115,8.07566667 26.2395,7.92866667 26.2395,7.77 C26.2395,7.602 26.2021218,7.44566667 26.1273654,7.301 C26.052609,7.15633333 25.9008974,7.01866667 25.6722308,6.888 L25.039,6.524 C24.7047949,6.33733333 24.4695321,6.111 24.3332115,5.845 C24.196891,5.579 24.1287308,5.28266667 24.1287308,4.956 C24.1287308,4.60133333 24.1880962,4.25133333 24.3068269,3.906 C24.4255577,3.56066667 24.6212436,3.262 24.8938846,3.01 C25.2544744,2.65533333 25.7469872,2.478 26.3714231,2.478 C26.7056282,2.478 26.9914615,2.53166667 27.2289231,2.639 C27.4663846,2.74633333 27.6554744,2.89333333 27.7961923,3.08 C27.8929359,3.22 27.969891,3.374 28.0270577,3.542 C28.0842244,3.71 28.1128077,3.90133333 28.1128077,4.116 C28.1128077,4.20933333 28.1062115,4.298 28.0930192,4.382 C28.0798269,4.466 28.0644359,4.55933333 28.0468462,4.662 L26.7935769,4.662 C26.8111667,4.59666667 26.8199615,4.54066667 26.8199615,4.494 L26.8199615,4.326 C26.8199615,4.16733333 26.7759872,4.02733333 26.6880385,3.906 C26.5825,3.78466667 26.4285897,3.724 26.2263077,3.724 C26.1295641,3.724 26.0350192,3.74266667 25.9426731,3.78 C25.8503269,3.81733333 25.7777692,3.864 25.725,3.92 C25.5403077,4.116 25.4479615,4.37733333 25.4479615,4.704 C25.4479615,5.00266667 25.6106667,5.24533333 25.9360769,5.432 L26.5561154,5.796 C26.9255,6.01066667 27.1871474,6.265 27.3410577,6.559 C27.4949679,6.853 27.5719231,7.182 27.5719231,7.546 C27.5719231,7.97533333 27.4971667,8.36266667 27.3476538,8.708 C27.198141,9.05333333 27.0178462,9.324 26.8067692,9.52 C26.4022051,9.89333333 25.8877051,10.08 25.2632692,10.08 Z" id="路径"></path>
                    <path d="M29.9993077,10.08 C29.6651026,10.08 29.3836667,10.0333333 29.155,9.94 C28.9263333,9.84666667 28.7240513,9.702 28.5481538,9.506 C28.4250256,9.35666667 28.3326795,9.184 28.2711154,8.988 C28.2095513,8.792 28.1787692,8.58666667 28.1787692,8.372 C28.1787692,8.204 28.196359,8.02666667 28.2315385,7.84 L29.5375769,7.84 C29.5199872,7.896 29.5111923,7.952 29.5111923,8.008 L29.5111923,8.162 C29.5111923,8.34866667 29.5551667,8.50266667 29.6431154,8.624 C29.6870897,8.68 29.7508526,8.729 29.8344038,8.771 C29.9179551,8.813 30.0212949,8.834 30.1444231,8.834 C30.3730897,8.834 30.5621795,8.75 30.7116923,8.582 C30.8084359,8.47 30.8765962,8.34633333 30.9161731,8.211 C30.95575,8.07566667 30.9755385,7.92866667 30.9755385,7.77 C30.9755385,7.602 30.9381603,7.44566667 30.8634038,7.301 C30.7886474,7.15633333 30.6369359,7.01866667 30.4082692,6.888 L29.7750385,6.524 C29.4408333,6.33733333 29.2055705,6.111 29.06925,5.845 C28.9329295,5.579 28.8647692,5.28266667 28.8647692,4.956 C28.8647692,4.60133333 28.9241346,4.25133333 29.0428654,3.906 C29.1615962,3.56066667 29.3572821,3.262 29.6299231,3.01 C29.9905128,2.65533333 30.4830256,2.478 31.1074615,2.478 C31.4416667,2.478 31.7275,2.53166667 31.9649615,2.639 C32.2024231,2.74633333 32.3915128,2.89333333 32.5322308,3.08 C32.6289744,3.22 32.7059295,3.374 32.7630962,3.542 C32.8202628,3.71 32.8488462,3.90133333 32.8488462,4.116 C32.8488462,4.20933333 32.84225,4.298 32.8290577,4.382 C32.8158654,4.466 32.8004744,4.55933333 32.7828846,4.662 L31.5296154,4.662 C31.5472051,4.59666667 31.556,4.54066667 31.556,4.494 L31.556,4.326 C31.556,4.16733333 31.5120256,4.02733333 31.4240769,3.906 C31.3185385,3.78466667 31.1646282,3.724 30.9623462,3.724 C30.8656026,3.724 30.7710577,3.74266667 30.6787115,3.78 C30.5863654,3.81733333 30.5138077,3.864 30.4610385,3.92 C30.2763462,4.116 30.184,4.37733333 30.184,4.704 C30.184,5.00266667 30.3467051,5.24533333 30.6721154,5.432 L31.2921538,5.796 C31.6615385,6.01066667 31.9231859,6.265 32.0770962,6.559 C32.2310064,6.853 32.3079615,7.182 32.3079615,7.546 C32.3079615,7.97533333 32.2332051,8.36266667 32.0836923,8.708 C31.9341795,9.05333333 31.7538846,9.324 31.5428077,9.52 C31.1382436,9.89333333 30.6237436,10.08 29.9993077,10.08 Z" id="路径"></path>
                </g>
            </g>
        </g>
    </g>
</svg>