<?xml version="1.0" encoding="UTF-8"?>
<!--
  - Copyright (c) 2023 OceanBase
  - OCP Express is licensed under Mulan PSL v2.
  - You can use this software according to the terms and conditions of the Mulan PSL v2.
  - You may obtain a copy of Mulan PSL v2 at:
  -          http://license.coscl.org.cn/MulanPSL2
  - THIS SOFTWARE IS PROVIDED ON AN "AS IS" BASIS, WITHOUT WARRANTIES OF ANY KIND,
  - EITHER EXPRESS OR IMPLIED, INCLUDING BUT NOT LIMITED TO NON-INFRINGEMENT,
  - MERCHANTABILITY OR FIT FOR A PARTICULAR PURPOSE.
  - See the Mulan PSL v2 for more details.
  -->

<svg width="83px" height="83px" viewBox="0 0 83 83" version="1.1" xmlns="http://www.w3.org/2000/svg" xmlns:xlink="http://www.w3.org/1999/xlink">
    <defs>
        <polygon id="path-1" points="0 0.0719578125 81.5073314 0.0719578125 81.5073314 10.2440313 0 10.2440313"></polygon>
        <polygon id="path-3" points="0 0.0651445312 81.5073314 0.0651445312 81.5073314 71.240625 0 71.240625"></polygon>
    </defs>
    <g id="L1-备份恢复-向导&amp;概览-短篇" stroke="none" stroke-width="1" fill="none" fill-rule="evenodd">
        <g id="1.0-概览" transform="translate(-602.000000, -487.000000)">
            <g id="应用服务列表" transform="translate(232.000000, 321.000000)">
                <g id="带标题的盒子">
                    <g id="Backstage/Feedback/illustration" transform="translate(206.000000, 166.000000)">
                        <g id="1.组合示例/3.功能区块示例/6.文件创建成功" transform="translate(164.000000, 0.000000)">
                            <g id="分组-copy-2" transform="translate(0.259766, 0.658203)">
                                <g id="分组-copy">
                                    <g id="分组" transform="translate(0.000000, 0.047573)">
                                        <mask id="mask-2" fill="white">
                                            <use xlink:href="#path-1"></use>
                                        </mask>
                                        <g id="Clip-2"></g>
                                        <path d="M81.5073314,10.2440313 L-7.171875e-05,10.2440313 L-7.171875e-05,2.94067195 C-7.171875e-05,1.35640477 1.28441109,0.0719219531 2.86867828,0.0719219531 L78.6385814,0.0719219531 C80.2229681,0.0719219531 81.5073314,1.35640477 81.5073314,2.94067195 L81.5073314,10.2440313 Z" id="Fill-1" fill="#253369" mask="url(#mask-2)"></path>
                                    </g>
                                    <g id="分组" transform="translate(0.000000, 9.371011)">
                                        <mask id="mask-4" fill="white">
                                            <use xlink:href="#path-3"></use>
                                        </mask>
                                        <g id="Clip-4"></g>
                                        <path d="M78.6385814,71.240625 L2.86867828,71.240625 C1.28441109,71.240625 -7.171875e-05,69.9562617 -7.171875e-05,68.371875 L-7.171875e-05,0.0651445312 L81.5073314,0.0651445312 L81.5073314,68.371875 C81.5073314,69.9562617 80.2229681,71.240625 78.6385814,71.240625" id="Fill-3" fill="#E4EBF7" mask="url(#mask-4)"></path>
                                    </g>
                                    <path d="M6.62380031,4.8533393 C6.62380031,5.84760023 5.81768156,6.65371898 4.82330109,6.65371898 C3.82904016,6.65371898 3.02304094,5.84760023 3.02304094,4.8533393 C3.02304094,3.85907836 3.82904016,3.05295961 4.82330109,3.05295961 C5.81768156,3.05295961 6.62380031,3.85907836 6.62380031,4.8533393" id="Fill-5" fill="#FF7946"></path>
                                    <path d="M13.3473136,4.8533393 C13.3473136,5.84760023 12.5413144,6.65371898 11.5469339,6.65371898 C10.552673,6.65371898 9.74667375,5.84760023 9.74667375,4.8533393 C9.74667375,3.85907836 10.552673,3.05295961 11.5469339,3.05295961 C12.5413144,3.05295961 13.3473136,3.85907836 13.3473136,4.8533393" id="Fill-7" fill="#FFC53D"></path>
                                    <path d="M20.0709464,4.8533393 C20.0709464,5.84760023 19.2649472,6.65371898 18.2705667,6.65371898 C17.2763058,6.65371898 16.4703066,5.84760023 16.4703066,4.8533393 C16.4703066,3.85907836 17.2763058,3.05295961 18.2705667,3.05295961 C19.2649472,3.05295961 20.0709464,3.85907836 20.0709464,4.8533393" id="Fill-9" fill="#BAE637"></path>
                                    <g id="分组-2" transform="translate(7.889063, 17.212500)">
                                        <path d="M0.9203795,53.7177143 C0.425909773,53.7177143 0.0252091406,53.3172186 0.0252091406,52.8232515 L0.0252091406,0.96989901 C0.0252091406,0.475931908 0.425909773,0.0754361719 0.9203795,0.0754361719 L65.6993825,0.0754361719 C66.1937404,0.0754361719 66.5945529,0.475931908 66.5945529,0.96989901 L66.5945529,52.8232515 C66.5945529,53.3172186 66.1937404,53.7177143 65.6993825,53.7177143 L0.9203795,53.7177143 Z" id="Fill-11" fill="#FFFFFF"></path>
                                        <path d="M44.4522375,30.1779497 C40.5647227,30.1779497 37.4060661,27.0060684 37.4060661,23.0832919 C37.3926023,19.1857364 40.5412945,16.0152895 44.4389695,16.0017825 C44.4433922,16.0017825 44.4478148,16.0017825 44.4522375,16.0017825 C48.3374813,16.0017825 51.4962141,19.1735442 51.4962141,23.0942887 C51.4895203,27.0060684 48.3374813,30.1756786 44.4522375,30.1779497 M61.9835273,20.6159278 C61.8466641,19.8429192 61.1066461,19.0521005 60.333518,18.882127 L59.7571383,18.7495669 C58.3574273,18.3251114 57.1723945,17.382727 56.4438516,16.1143809 C55.7078977,14.833245 55.4897531,13.3191426 55.8342422,11.8822575 L56.015332,11.338988 C56.2473422,10.585702 55.9468406,9.54542154 55.3438055,9.03083951 C55.3438055,9.03083951 54.8026875,8.57136139 53.2830867,7.68778639 C51.7566727,6.80875358 51.1029563,6.56347545 51.1029563,6.56347545 C50.3607867,6.28962936 49.3226578,6.55247858 48.7792688,7.13112936 L48.3794367,7.56191998 C47.3232586,8.57243717 45.9161367,9.13375592 44.4545086,9.12801842 C42.9846328,9.13208248 41.5704586,8.56598248 40.5094992,7.54865201 L40.1252063,7.12897779 C39.590543,6.55032701 38.5458398,6.29405201 37.8013992,6.56347545 C37.8013992,6.56347545 37.138718,6.80875358 35.6146945,7.68778639 C34.0885195,8.57793561 33.5517047,9.03741373 33.5517047,9.03741373 C32.9508211,9.54757311 32.6505586,10.5769762 32.8824492,11.338988 L33.0481195,11.8889512 C33.3887836,13.3238044 33.1708781,14.8344403 32.4383906,16.1143809 C31.711043,17.3931262 30.5163281,18.3399333 29.1052617,18.7561411 L28.5509953,18.882127 C27.7911352,19.0587942 27.0423914,19.8384965 26.9009859,20.6159278 C26.9009859,20.6159278 26.775,21.3139903 26.775,23.0854434 C26.775,24.8568965 26.9009859,25.552688 26.9009859,25.552688 C27.0379688,26.3346614 27.7778672,27.1165153 28.5509953,27.2866083 L29.0921133,27.4124747 C30.5056898,27.8299973 31.7029148,28.7797926 32.4296648,30.0630801 C33.1894055,31.3950169 33.3728859,32.910195 33.0392742,34.2952036 L32.8824492,34.8318989 C32.6505586,35.5850653 32.9508211,36.6254653 33.5538563,37.1401669 C33.5538563,37.1401669 34.0950938,37.5995255 35.6146945,38.4831005 C37.1409891,39.3666755 37.7969766,39.6074114 37.7969766,39.6074114 C38.5369945,39.8812575 39.5773945,39.6184083 40.1207836,39.0397575 L40.5005344,38.6289286 C42.7094719,36.5150184 46.1905805,36.5172895 48.3971273,38.6332317 L48.7771172,39.0463317 C49.3115414,39.6228309 50.3564836,39.8812575 51.1006852,39.611834 C51.1006852,39.611834 51.7633664,39.3666755 53.2897805,38.4875231 C54.8138039,37.6039481 55.3482281,37.1445895 55.3482281,37.1445895 C55.9512633,36.6365817 56.2517648,35.5983333 56.0197547,34.8363215 L55.8542039,34.2796645 C55.5119859,32.8499512 55.73025,31.3436184 56.4636938,30.0697739 C57.1947469,28.7905505 58.3898203,27.8414723 59.8012453,27.4191684 L60.3446344,27.2931825 C61.1044945,27.1165153 61.8532383,26.336813 61.9946438,25.5592622 C61.9946438,25.5592622 62.1206297,24.8613192 62.1206297,23.0920176 C62.1072422,21.318413 61.9835273,20.6159278 61.9835273,20.6159278" id="Fill-13" fill="#597EF7"></path>
                                        <path d="M20.0872746,39.1424981 C18.3565817,40.1265989 16.1475246,39.5140012 15.154459,37.7676497 C14.1619911,36.0358809 14.7610817,33.8274215 16.49297,32.834834 L16.498827,32.8314872 C18.2284442,31.847984 20.4376207,32.4604622 21.4299692,34.205977 C22.4172973,35.9491012 21.8164137,38.1580387 20.0872746,39.1424981 M25.4715598,30.4479145 C25.2148067,30.1384481 24.6854028,29.9736145 24.2981215,30.0936239 L24.0078996,30.1805231 C23.2773246,30.3459543 22.5112489,30.2263036 21.8658996,29.8461942 C21.2139762,29.4621403 20.7334606,28.8432075 20.5230856,28.1163379 L20.4663082,27.8286262 C20.3788114,27.4346512 19.9817286,27.0474895 19.5830918,26.9709895 C19.5830918,26.9709895 19.2258129,26.9034543 18.3257426,26.8948481 C17.4236403,26.8898278 17.070545,26.946127 17.070545,26.946127 C16.6708325,27.0121083 16.2750645,27.391859 16.1797981,27.7871489 L16.110709,28.0800004 C15.89627,28.7973075 15.4120489,29.4033309 14.7598864,29.77077 C14.1065286,30.1446637 13.3336395,30.2505684 12.6039012,30.0662512 L12.3264692,29.9767223 C11.9419371,29.8544418 11.4120551,30.0048122 11.1489668,30.3132028 C11.1489668,30.3132028 10.9158809,30.5901567 10.4599887,31.3672293 C10.00577,32.14992 9.88313089,32.490345 9.88313089,32.490345 C9.74495277,32.8694981 9.87165589,33.4038028 10.1678543,33.6843426 L10.3807395,33.8873067 C10.8956801,34.4397801 11.1810012,35.1674864 11.1790887,35.9226848 C11.1788496,36.6760903 10.8865957,37.3999715 10.3637661,37.9424043 L10.1488489,38.1389137 C9.85528011,38.4098911 9.71937308,38.9465864 9.85324808,39.3284887 C9.85324808,39.3284887 9.97397464,39.6710653 10.4223364,40.4597325 C10.8708176,41.2482801 11.1029473,41.5261903 11.1029473,41.5261903 C11.361852,41.8396012 11.8891043,42.0004903 12.2762661,41.8804809 L12.5491559,41.7995583 C13.2841536,41.6275528 14.0576403,41.7473231 14.7058582,42.1347239 C15.3813293,42.5352731 15.8464254,43.1635293 16.0485528,43.8644606 L16.1146536,44.1430879 C16.2020309,44.5370629 16.5991137,44.9242247 16.99787,45.0007247 C16.99787,45.0007247 17.3551489,45.0682598 18.2553387,45.0768661 C19.1583973,45.0839184 19.5114926,45.0249895 19.5114926,45.0249895 C19.9102489,44.9597254 20.306734,44.5792575 20.4022395,44.1840872 L20.467384,43.9049817 C20.9156262,42.4048645 22.465827,41.5246364 23.9838739,41.9080926 L24.2576004,41.9958286 C24.6415348,42.1171528 25.1720145,41.9677387 25.4351028,41.6593481 C25.4351028,41.6593481 25.6680692,41.3825137 26.1250371,40.6047239 C26.5798536,39.8256192 26.7015364,39.4857918 26.7015364,39.4857918 C26.8413879,39.1069973 26.7124137,38.5687481 26.4162153,38.2883278 L26.2015371,38.0823754 C25.6874332,37.5325317 25.4031879,36.8066184 25.407252,36.0538106 C25.4088059,35.2993293 25.7007012,34.5742528 26.2220965,34.0289512 L26.4321129,33.8354301 C26.7256817,33.5643333 26.8617082,33.0277575 26.7278332,32.6457356 C26.7278332,32.6457356 26.6072262,32.303159 26.1593426,31.5155676 C25.7044067,30.7292911 25.4715598,30.4479145 25.4715598,30.4479145" id="Fill-15" fill="#9254DE"></path>
                                        <path d="M17.180107,9.26546484 L7.27275937,9.26546484 C6.62561719,9.26546484 6.09609375,8.73594141 6.09609375,8.08879922 L6.09609375,7.99006641 C6.09609375,7.34280469 6.62561719,6.81328125 7.27275937,6.81328125 L17.180107,6.81328125 C17.8272492,6.81328125 18.3567727,7.34280469 18.3567727,7.99006641 L18.3567727,8.08879922 C18.3567727,8.73594141 17.8272492,9.26546484 17.180107,9.26546484" id="Fill-17" fill="#AAC2FE"></path>
                                        <path d="M14.408775,15.0029648 L8.27849531,15.0029648 C7.60135078,15.0029648 7.05234375,14.4540773 7.05234375,13.7769328 C7.05234375,13.0997883 7.60135078,12.5507812 8.27849531,12.5507812 L14.408775,12.5507812 C15.0859195,12.5507812 15.634807,13.0997883 15.634807,13.7769328 C15.634807,14.4540773 15.0859195,15.0029648 14.408775,15.0029648" id="Fill-19" fill="#AAC2FE"></path>
                                    </g>
                                </g>
                            </g>
                        </g>
                    </g>
                </g>
            </g>
        </g>
    </g>
</svg>