<?xml version="1.0" encoding="UTF-8"?>
<!--
  - Copyright (c) 2023 OceanBase
  - OCP Express is licensed under Mulan PSL v2.
  - You can use this software according to the terms and conditions of the Mulan PSL v2.
  - You may obtain a copy of Mulan PSL v2 at:
  -          http://license.coscl.org.cn/MulanPSL2
  - THIS SOFTWARE IS PROVIDED ON AN "AS IS" BASIS, WITHOUT WARRANTIES OF ANY KIND,
  - EITHER EXPRESS OR IMPLIED, INCLUDING BUT NOT LIMITED TO NON-INFRINGEMENT,
  - MERCHANTABILITY OR FIT FOR A PARTICULAR PURPOSE.
  - See the Mulan PSL v2 for more details.
  -->

<svg width="248px" height="126px" viewBox="0 0 248 126" version="1.1" xmlns="http://www.w3.org/2000/svg" xmlns:xlink="http://www.w3.org/1999/xlink">
    <defs>
        <polygon id="path-1" points="0 0.2157656 7.835256 0.2157656 7.835256 16.8472037 0 16.8472037"></polygon>
        <polygon id="path-3" points="0.0170152985 0.2157656 7.85207867 0.2157656 7.85207867 16.8472037 0.0170152985 16.8472037"></polygon>
        <polygon id="path-5" points="0 0.088110823 30.9953876 0.088110823 30.9953876 7.32102617 0 7.32102617"></polygon>
        <polygon id="path-7" points="0.0169396919 0.0189579738 31.6687521 0.0189579738 31.6687521 7.22222985 0.0169396919 7.22222985"></polygon>
        <polygon id="path-9" points="0.0248562073 0.0328695069 5.9426579 0.0328695069 5.9426579 5.94968553 0.0248562073 5.94968553"></polygon>
        <polygon id="path-11" points="0.0146412656 0.0505086745 6.47207575 0.0505086745 6.47207575 6.43453496 0.0146412656 6.43453496"></polygon>
        <polygon id="path-13" points="7.10633962e-06 0 63.672803 0 63.672803 63.6288247 7.10633962e-06 63.6288247"></polygon>
        <polygon id="path-15" points="2.64566392e-05 5.28030931e-06 31.747967 5.28030931e-06 31.747967 21.1212372 2.64566392e-05 21.1212372"></polygon>
    </defs>
    <g id="Page-1" stroke="none" stroke-width="1" fill="none" fill-rule="evenodd">
        <g id="页面区块无权限" transform="translate(-687.000000, -415.000000)">
            <g id="Backstage/Feedback/illustration" transform="translate(618.000000, 368.000000)">
                <g id="1.组合示例/4.空值区块示例/4.部署服务器">
                    <g id="编组-4" transform="translate(69.956734, 47.969317)">
                        <g id="编组" transform="translate(25.422533, 11.801753)">
                            <polygon id="Fill-1" fill="#CED0DB" points="16.9177397 0.189782633 10.2764821 21.4454375 14.2916855 21.4454375 20.9335747 0.189782633"></polygon>
                            <g transform="translate(0.000000, 2.467174)">
                                <g>
                                    <mask id="mask-2" fill="white">
                                        <use xlink:href="#path-1"></use>
                                    </mask>
                                    <g id="Clip-3"></g>
                                    <path d="M7.44936187,0.2157656 L3.11656059,0.2157656 L0.38576571,0.2157656 C0.172592914,0.2157656 -0.000128417347,0.391094081 -0.000128417347,0.607484622 L-0.000128417347,3.3794996 L-0.000128417347,13.6834697 L-0.000128417347,16.4554846 C-0.000128417347,16.6718752 0.172592914,16.8472037 0.38576571,16.8472037 L3.11656059,16.8472037 L7.44936187,16.8472037 C7.66253467,16.8472037 7.835256,16.6718752 7.835256,16.4554846 L7.835256,14.0751887 C7.835256,13.8587982 7.66253467,13.6834697 7.44936187,13.6834697 L3.11656059,13.6834697 L3.11656059,3.3794996 L7.44936187,3.3794996 C7.66253467,3.3794996 7.835256,3.20417112 7.835256,2.98843235 L7.835256,0.607484622 C7.835256,0.391094081 7.66253467,0.2157656 7.44936187,0.2157656" id="Fill-2" fill="#E4E6EF" mask="url(#mask-2)"></path>
                                </g>
                                <g transform="translate(23.628792, 0.000000)">
                                    <mask id="mask-4" fill="white">
                                        <use xlink:href="#path-3"></use>
                                    </mask>
                                    <g id="Clip-5"></g>
                                    <path d="M7.46650559,0.2157656 L4.73571071,0.2157656 L0.402909426,0.2157656 C0.18973663,0.2157656 0.0170152985,0.391094081 0.0170152985,0.607484622 L0.0170152985,2.98843235 C0.0170152985,3.20417112 0.18973663,3.3794996 0.402909426,3.3794996 L4.73571071,3.3794996 L4.73571071,13.6834697 L0.402909426,13.6834697 C0.18973663,13.6834697 0.0170152985,13.8587982 0.0170152985,14.0751887 L0.0170152985,16.4554846 C0.0170152985,16.6718752 0.18973663,16.8472037 0.402909426,16.8472037 L4.73571071,16.8472037 L7.46650559,16.8472037 C7.67967838,16.8472037 7.85239971,16.6718752 7.85239971,16.4554846 L7.85239971,14.0751887 L7.85239971,2.98843235 L7.85239971,0.607484622 C7.85239971,0.391094081 7.67967838,0.2157656 7.46650559,0.2157656" id="Fill-4" fill="#E4E6EF" mask="url(#mask-4)"></path>
                                </g>
                            </g>
                        </g>
                        <g id="编组" opacity="0.567708333" transform="translate(204.256364, 101.575337)">
                            <g transform="translate(0.786902, 0.455346)">
                                <mask id="mask-6" fill="white">
                                    <use xlink:href="#path-5"></use>
                                </mask>
                                <g id="Clip-2"></g>
                                <path d="M3.64826597,7.32102617 L27.3506909,7.31105436 C29.3643353,7.31014786 30.9963025,5.69205631 30.9953876,3.69776979 C30.9944719,1.70348328 29.3615894,0.0872047102 27.347945,0.088110823 L3.6446048,0.0980826367 C1.63096042,0.0989891306 -0.00100682219,1.71708069 -9.19141099e-05,3.7113672 C0.000823763609,5.70565371 1.6337063,7.32193228 3.64826597,7.32102617" id="Fill-1" fill="#E4E6EF" mask="url(#mask-6)"></path>
                            </g>
                            <g transform="translate(9.786902, 14.455346)">
                                <mask id="mask-8" fill="white">
                                    <use xlink:href="#path-7"></use>
                                </mask>
                                <g id="Clip-4"></g>
                                <path d="M3.74255197,7.22223023 L27.9468785,7.21229928 C30.003162,7.2113965 31.6696863,5.59993647 31.6687521,3.61382326 C31.667817,1.62771005 30.000358,0.0180555746 27.9440744,0.0189579738 L3.73974795,0.0288889194 C1.68252974,0.0297916981 0.0160054106,1.64034895 0.0169396919,3.62736494 C0.0178747592,5.61347815 1.68626844,7.22313262 3.74255197,7.22223023" id="Fill-3" fill="#E4E6EF" mask="url(#mask-8)"></path>
                            </g>
                            <path d="M15.7869018,7.46236874 L15.7869018,7.46061303 L28.7840571,7.45534591 C26.6970404,7.45622376 25.0073248,9.02319141 25.008273,10.9544681 C25.008273,12.8857447 26.7008332,14.4509566 28.7869018,14.4500788 L15.7897464,14.4553459 L15.7897464,14.4544681 C17.8615918,14.436911 19.5342395,12.877844 19.5332913,10.9562238 C19.5323431,9.03548135 17.8577989,7.47817009 15.7869018,7.46236874" id="Fill-5" fill="#E4E6EF"></path>
                        </g>
                        <g id="编组" transform="translate(0.371725, 102.128797)">
                            <g transform="translate(19.525316, 11.899371)">
                                <mask id="mask-10" fill="white">
                                    <use xlink:href="#path-9"></use>
                                </mask>
                                <g id="Clip-2"></g>
                                <path d="M5.92697684,3.29317478 C5.76018916,4.91832566 4.30735307,6.10087334 2.68195991,5.93411052 C1.05604226,5.7673477 -0.126681713,4.31472816 0.0406304583,2.68905286 C0.20741814,1.06390198 1.66025423,-0.118645692 3.28564739,0.0486415397 C4.91104055,0.21540436 6.09376452,1.6680239 5.92697684,3.29317478" id="Fill-1" fill="#E4E6EF" mask="url(#mask-10)"></path>
                            </g>
                            <path d="M44.4585232,4.36012069 C44.2903874,5.99427109 42.8258083,7.18336729 41.1872774,7.01568099 C39.5482178,6.8479947 38.3559341,5.38680376 38.5240699,3.75265336 C38.6927344,2.11850297 40.1573135,0.92940677 41.7958444,1.09762038 C43.4343753,1.26477936 44.626659,2.7259703 44.4585232,4.36012069" id="Fill-3" fill="#E4E6EF"></path>
                            <path d="M5.95020365,3.27854591 C5.78222312,4.9128621 4.31714073,6.1014557 2.678235,5.93394557 C1.03981617,5.76594991 -0.152602165,4.30545582 0.0158652686,2.67113962 C0.183845802,1.03682343 1.64892819,-0.151770164 3.28734702,0.0157399624 C4.92625275,0.183250089 6.11867108,1.64422972 5.95020365,3.27854591" id="Fill-5" fill="#E4E6EF"></path>
                            <g transform="translate(54.779359, 7.572327)">
                                <mask id="mask-12" fill="white">
                                    <use xlink:href="#path-11"></use>
                                </mask>
                                <g id="Clip-8"></g>
                                <path d="M6.45531718,3.56839599 C6.2729755,5.32202103 4.68776225,6.59738469 2.91388334,6.41764594 C1.14000442,6.23738621 -0.150089339,4.67027268 0.0317253449,2.91664764 C0.214067028,1.1630226 1.79928027,-0.112341061 3.57315919,0.0673976904 C5.34651111,0.247657424 6.63713186,1.81477095 6.45531718,3.56839599" id="Fill-7" fill="#E4E6EF" mask="url(#mask-12)"></path>
                            </g>
                            <polygon id="Fill-9" fill="#E4E6EF" points="22.5492305 15.1446541 22.4764948 15.0990278 3.25421934 2.95129124 3.40721501 2.70440252 22.5572565 14.8070198 41.9535958 3.83796144 42.0173022 3.86330936 58.5759482 10.4299412 58.4706069 10.70015 41.9751657 4.15886609"></polygon>
                        </g>
                        <g id="编组-5" transform="translate(79.043266, 0.000000)">
                            <g id="网页" transform="translate(0.000000, 31.294118)">
                                <rect id="矩形" fill="#E2E7F2" fill-rule="nonzero" x="0" y="3.73033714" width="110.086352" height="80.8881492" rx="3.21495001"></rect>
                                <g id="分组-2" transform="translate(31.755679, 18.799171)">
                                    <path d="M0.0179293569,56.6733934 L0.0179293569,1.11322773 C0.0179293569,0.505743988 0.510392234,0.013281111 1.11787598,0.013281111 L68.1075953,0.013281111 C68.7150791,0.013281111 69.207542,0.505743988 69.207542,1.11322773 L69.207542,56.8847237 L69.207542,56.8847237 C69.207542,57.3754621 68.8012961,57.77334 68.3002369,57.77334 L1.11787598,57.77334 C0.510392234,57.77334 0.0179293569,57.2808772 0.0179293569,56.6733934 Z" id="Fill-30" fill="#FFFFFF"></path>
                                    <path d="M6.84275771,43.7524523 C6.34158506,43.7524523 5.93545261,43.3545743 5.93545261,42.863836 L5.93545261,6.77157456 C5.93545261,6.28072514 6.34158506,5.88295827 6.84275771,5.88295827 L62.6999755,5.88295827 C63.2010348,5.88295827 63.6072806,6.28072514 63.6072806,6.77157456 L63.6072806,42.863836 C63.6072806,43.3545743 63.2010348,43.7524523 62.6999755,43.7524523 L6.84275771,43.7524523 Z" id="Fill-32" fill="#CED7EC"></path>
                                    <path d="M13.8233704,11.1039011 L9.86332383,11.1039011 C9.55688153,11.1039011 9.30850676,10.8606424 9.30850676,10.5605122 C9.30850676,10.2604932 9.55688153,10.0172345 9.86332383,10.0172345 L13.8233704,10.0172345 C14.1298127,10.0172345 14.3781874,10.2604932 14.3781874,10.5605122 C14.3781874,10.8606424 14.1298127,11.1039011 13.8233704,11.1039011" id="Fill-34" fill="#A3B5D6"></path>
                                    <path d="M13.8874715,13.7113901 L9.92731152,13.7113901 C9.62098264,13.7113901 9.37260787,13.4681314 9.37260787,13.1680012 C9.37260787,12.8679822 9.62098264,12.6247235 9.92731152,12.6247235 L13.8874715,12.6247235 C14.1939138,12.6247235 14.4422885,12.8679822 14.4422885,13.1680012 C14.4422885,13.4681314 14.1939138,13.7113901 13.8874715,13.7113901" id="Fill-36" fill="#A3B5D6"></path>
                                    <path d="M5.93556603,33.7516202 C11.9376161,33.7516202 10.3439152,26.3028172 19.4341879,26.3028172 C28.5244606,26.3028172 28.0510622,32.9617403 35.1407442,32.9617403 C42.3409047,32.9617403 41.8645947,13.8361259 48.7626086,13.8361259 C56.0438454,13.8361259 54.4002887,31.1666502 63.4699373,31.1666502 L63.4699373,42.911588 C63.4699373,43.4026596 63.0632378,43.8006486 62.5618383,43.8002047 L6.84207724,43.7532187 C6.34135823,43.7527744 5.93556603,43.3551186 5.93556603,42.8646024 L5.93556603,33.7516202 Z" id="Fill-38" fill="#393D65"></path>
                                    <path d="M5.73083263,36.6295679 C14.8004812,36.6295679 13.5148299,16.2599965 19.3598028,16.2599965 C24.9273671,16.2599965 23.2552038,36.6295679 34.7855773,36.6295679 C41.8751459,36.6295679 44.1051091,28.3261917 49.1133992,28.3261917 C54.1216893,28.3261917 57.4678646,36.6295679 63.4699146,36.6295679" id="Stroke-40" stroke="#FFFFFF" stroke-width="0.882352941"></path>
                                    <line x1="6.54228095" y1="49.0546005" x2="62.4881878" y2="49.0546005" id="Stroke-42" stroke="#E4E6EF" stroke-width="0.882352941" stroke-linecap="round" stroke-linejoin="round"></line>
                                    <line x1="6.54228095" y1="52.8075936" x2="53.5470363" y2="52.8075936" id="Stroke-44" stroke="#E4E6EF" stroke-width="0.882352941" stroke-linecap="round" stroke-linejoin="round"></line>
                                </g>
                                <path d="M2.94874158,0 L107.082322,0 C108.710867,0 110.031063,1.29300296 110.031063,2.88800295 L110.031063,11.4942517 L0,11.4942517 L0,2.88800295 C0,1.29300296 1.32019657,0 2.94874158,0 Z" id="路径" fill="#393D65" fill-rule="nonzero"></path>
                                <ellipse id="椭圆形" fill="#FFFFFF" fill-rule="nonzero" cx="6.30293512" cy="5.74712586" rx="2.1046643" ry="2.0613121"></ellipse>
                                <ellipse id="椭圆形" fill="#FFFFFF" fill-rule="nonzero" cx="14.1637887" cy="5.74712586" rx="2.1046643" ry="2.0613121"></ellipse>
                                <ellipse id="椭圆形" fill="#FFFFFF" fill-rule="nonzero" cx="22.0258709" cy="5.74712586" rx="2.1046643" ry="2.0613121"></ellipse>
                                <polygon id="路径" fill="#FFFFFF" fill-rule="nonzero" points="36.5508805 46.4487141 35.1969167 45.4511497 36.5508805 44.455992 37.9048443 45.4511497"></polygon>
                                <rect id="矩形" fill="#A3B5D6" fill-rule="nonzero" x="7.83344541" y="41.2815954" width="15.7511946" height="3.89519397" rx="0.867773179"></rect>
                                <rect id="矩形" fill="#A3B5D6" fill-rule="nonzero" x="7.83344541" y="48.7807764" width="15.7511946" height="3.77726719" rx="0.854606965"></rect>
                                <rect id="矩形" fill="#A3B5D6" fill-rule="nonzero" x="7.83344541" y="56.1271339" width="15.7511946" height="3.77726719" rx="0.854606965"></rect>
                                <ellipse id="椭圆形" fill="#FFFFFF" fill-rule="nonzero" cx="15.7090427" cy="27.2194278" rx="7.86331087" ry="7.70134119"></ellipse>
                                <path d="M15.7090427,34.9207709 C17.9754049,34.9220041 20.1262703,33.941409 21.5844103,32.2421462 C20.4354866,30.1059423 18.1730441,28.7686892 15.7078141,28.7686892 C13.2425841,28.7686892 10.9801416,30.1059423 9.83121783,32.2421462 C11.2901213,33.9417842 13.4418962,34.9223839 15.7090427,34.9207709 L15.7090427,34.9207709 Z" id="路径" fill="#393D65" fill-rule="nonzero"></path>
                                <ellipse id="椭圆形" fill="#393D65" fill-rule="nonzero" cx="15.7508165" cy="26.1785434" rx="2.95734207" ry="2.89642629"></ellipse>
                            </g>
                            <g id="编组" transform="translate(78.000000, 0.000000)">
                                <g id="分组">
                                    <g>
                                        <mask id="mask-14" fill="white">
                                            <use xlink:href="#path-13"></use>
                                        </mask>
                                        <g id="Clip-2"></g>
                                        <path d="M7.10633962e-06,31.8144088 C7.10633962e-06,49.3849852 14.2536189,63.6288247 31.8364086,63.6288247 C49.4191273,63.6288247 63.6728101,49.3849852 63.6728101,31.8144088 C63.6728101,14.2437614 49.4191273,-7.10143213e-06 31.8364086,-7.10143213e-06 C14.2536189,-7.10143213e-06 7.10633962e-06,14.2437614 7.10633962e-06,31.8144088 Z" id="Fill-1" fill="#ffac33" mask="url(#mask-14)"></path>
                                    </g>
                                </g>
                                <g id="分组复制" transform="translate(16.006635, 12.372273)">
                                    <g id="分组" transform="translate(5.659805, 0.000000)" fill="#FFFFFF">
                                        <path d="M3.38468504,10.1681924 C3.38468504,6.42467962 6.4202067,3.38991996 10.1646594,3.38991996 C13.9091122,3.38991996 16.9446338,6.42467962 16.9446338,10.1681924 L16.9446338,13.5646894 L20.334621,13.5646894 L20.334621,10.1702577 C20.334621,4.55784807 15.7837221,0.00814451798 10.1700093,0.00814451798 L10.1699563,0.00814451798 C4.55619046,0.00814451798 0.00534452669,4.55784807 0.00534452669,10.1702577 L0.00534452669,13.5646894 L3.38468504,13.5646894 L3.38468504,10.1681924 Z" id="Fill-1"></path>
                                    </g>
                                    <g id="分组" transform="translate(0.000000, 12.990886)">
                                        <mask id="mask-16" fill="white">
                                            <use xlink:href="#path-15"></use>
                                        </mask>
                                        <g id="Clip-4"></g>
                                        <path d="M30.4780748,21.1212425 L1.26994514,21.1212425 C0.57143695,21.1212425 2.64566392e-05,20.5509691 2.64566392e-05,19.8539683 L2.64566392e-05,1.26727951 C2.64566392e-05,0.570278685 0.57143695,5.28030931e-06 1.26994514,5.28030931e-06 L30.4780748,5.28030931e-06 C31.1764772,5.28030931e-06 31.7479935,0.570278685 31.7479935,1.26727951 L31.7479935,19.8539683 C31.7479935,20.5509691 31.1764772,21.1212425 30.4780748,21.1212425" id="Fill-3" fill="#FFFFFF" mask="url(#mask-16)"></path>
                                    </g>
                                    <path d="M15.9182007,18.8235294 C16.5953277,18.8235294 17.1443324,19.357088 17.1443324,20.0153355 L17.1446658,23.934107 C17.840341,24.3511043 18.3059309,25.1120934 18.3059309,25.981773 C18.3059309,27.2995974 17.2368761,28.3678542 15.9181623,28.3678542 C14.5995254,28.3678542 13.5304706,27.2995974 13.5304706,25.981773 C13.5304706,25.1120934 13.9960604,24.3511043 14.6917136,23.934107 L14.6920691,20.0153355 C14.6920691,19.3982284 15.1745928,18.8907113 15.7928436,18.8296822 L15.9182007,18.8235294 Z" id="形状结合" fill="#ffac33"></path>
                                </g>
                            </g>
                        </g>
                    </g>
                </g>
            </g>
        </g>
    </g>
</svg>